<svg width="254" height="140" viewBox="0 0 254 140" fill="none" xmlns="http://www.w3.org/2000/svg">
<path d="M107.773 0H0.800781V116.891H107.773V0Z" fill="#407BFF"/>
<path opacity="0.7" d="M107.773 0H0.800781V116.891H107.773V0Z" fill="white"/>
<path opacity="0.7" d="M102.398 111.03V5.87305L6.16462 5.87305V111.03H102.398Z" fill="white"/>
<path d="M70.0713 80.6773C71.4652 82.0664 73.0375 83.6504 74.5317 85.0517C76.026 86.453 77.654 87.8786 79.2263 89.1824C80.7437 90.4424 82.326 91.6059 83.9655 92.6674C85.2301 93.5176 86.6012 94.1621 88.0357 94.5804H88.1807C88.0173 94.5684 87.8534 94.5684 87.69 94.5804C87.4005 94.6405 87.1218 94.7517 86.8648 94.9094C86.4634 95.1897 86.4411 95.3237 86.5191 95.275C86.925 94.8157 87.2501 94.2788 87.4781 93.6909C88.2685 91.8171 88.9102 89.8725 89.3961 87.8786C90.5112 83.6382 91.3922 79.0323 92.2396 74.5482V74.4385C92.3896 73.726 92.7655 73.0945 93.3008 72.6559C93.836 72.2174 94.4961 72 95.164 72.0423C95.8319 72.0846 96.4645 72.384 96.9498 72.8872C97.4351 73.3905 97.7416 74.0652 97.8152 74.7919C98.2555 79.7273 98.2555 84.6979 97.8152 89.6333C97.5831 92.305 97.0973 94.943 96.3655 97.5048C95.8865 99.1604 95.1715 100.723 94.2468 102.135C93.5 103.228 92.545 104.13 91.4479 104.779C90.7105 105.212 89.9111 105.505 89.0839 105.644C88.6557 105.713 88.2232 105.746 87.7904 105.742H87.1213C84.274 105.469 81.5019 104.596 78.9587 103.171C76.7755 102.012 74.6766 100.671 72.6806 99.162C70.7484 97.7449 68.8873 96.2156 67.1051 94.5804C65.3432 92.9354 63.6817 91.3758 61.9756 89.4627C60.9593 88.3051 60.3921 86.7628 60.3926 85.1587C60.3931 83.5545 60.9612 82.0127 61.9782 80.8558C62.9951 79.6988 64.3821 79.0165 65.849 78.9514C67.3158 78.8863 68.7488 79.4436 69.8483 80.5067L70.0713 80.6773Z" fill="#EBC0BB"/>
<path d="M59.7216 74.7307C68.8543 72.9273 72.4115 78.6422 83.1389 88.5852C82.8598 91.7301 81.9409 94.7671 80.4495 97.4741C78.9582 100.181 76.9319 102.49 74.5191 104.231C74.5191 104.231 52.1723 88.2927 59.7216 74.7307Z" fill="#407BFF"/>
<path opacity="0.2" d="M60.1465 88.3051C64.0159 96.0792 72.3235 102.574 74.1522 103.939C73.5055 100.393 71.4648 92.8867 65.4321 88.098C64.6881 87.4012 63.7315 87.0357 62.7523 87.074C61.773 87.1124 60.8429 87.5519 60.1465 88.3051Z" fill="black"/>
<path d="M61.1394 34.374C61.1394 34.374 69.3132 56.7214 61.1394 76.1931C52.9657 95.6649 29.9833 83.9672 27.6862 79.3003C25.3891 74.6334 30.7416 65.1291 30.7416 56.4289C30.7416 47.7288 28.1545 42.7816 30.2509 35.8362C34.7225 21.0313 61.1394 34.374 61.1394 34.374Z" fill="#263238"/>
<path d="M71.3756 111.031H32.6479C32.5698 110.129 32.4918 109.227 32.4249 108.35C32.0346 103.805 31.5551 99.5889 31.0533 95.8115C30.197 89.029 29.0096 82.3014 27.4961 75.6574C47.3116 65.2026 65.945 74.7922 65.945 74.7922C70.6731 82.2982 71.6209 97.5661 71.3756 111.031Z" fill="#263238"/>
<path opacity="0.1" d="M71.3756 111.031H32.6479C32.5698 110.129 32.4918 109.227 32.4249 108.35C32.0346 103.805 31.5551 99.5889 31.0533 95.8115C30.197 89.029 29.0096 82.3014 27.4961 75.6574C47.3116 65.2026 65.945 74.7922 65.945 74.7922C70.6731 82.2982 71.6209 97.5661 71.3756 111.031Z" fill="white"/>
<path opacity="0.2" d="M31.0645 95.799C31.5551 99.5763 32.0346 103.792 32.4249 108.35C35.0945 101.572 35.4623 93.9757 33.4619 86.9282L31.0645 95.799Z" fill="black"/>
<path d="M46.2749 68.041C34.8785 68.041 33.4512 78.2887 33.4512 78.2887L38.7814 75.7785L54.3929 87.2325L58.24 75.6689L63.0684 76.6559C63.0684 76.6559 56.1882 68.0532 46.2749 68.041Z" fill="#407BFF"/>
<path d="M53.9354 86.5385L39.2383 72.55C42.8178 68.5412 40.989 57.5502 39.5059 51.543L50.657 61.291C49.9099 65.9457 50.0883 70.9172 56.3217 72.5135C56.3106 72.55 53.9243 86.5019 53.9354 86.5385Z" fill="#EEC1BB"/>
<path opacity="0.2" d="M44.0452 55.564L50.6467 61.3397C50.4482 62.4312 50.3474 63.5412 50.3456 64.654C47.9816 64.2763 44.5693 61.4737 44.1456 58.8052C43.9289 57.7409 43.8948 56.6419 44.0452 55.564Z" fill="black"/>
<path d="M36.6075 37.2128C36.3845 47.0705 36.1057 51.2256 40.1647 56.9282C46.2644 65.4578 57.2036 64.2393 60.0694 54.8446C62.6453 46.3151 62.5784 31.693 54.2597 26.4412C52.5063 25.2546 50.4944 24.602 48.4325 24.5511C46.3707 24.5001 44.3338 25.0527 42.5332 26.1515C40.7325 27.2503 39.2335 28.8553 38.1916 30.8002C37.1497 32.7451 36.6028 34.9592 36.6075 37.2128Z" fill="#EEC1BB"/>
<path d="M45.4056 32.059C39.2948 37.6885 47.6358 47.7534 37.8674 44.9996C28.0991 42.2457 35.0908 28.0257 41.603 25.9421C48.1153 23.8585 45.4056 32.059 45.4056 32.059Z" fill="#263238"/>
<path d="M50.0332 41.9532C50.0332 42.7818 50.3343 43.5129 50.8026 43.586C51.271 43.6591 51.717 43.0377 51.7616 42.2091C51.8062 41.3805 51.4717 40.6616 50.9922 40.5885C50.5127 40.5154 50.089 41.1246 50.0332 41.9532Z" fill="#263238"/>
<path d="M59.0098 43.4517C59.0098 44.2803 59.2997 45.0114 59.7792 45.0723C60.2587 45.1333 60.6824 44.5362 60.7382 43.7076C60.7939 42.879 60.4371 42.1601 59.9688 42.087C59.5004 42.0139 59.0544 42.6231 59.0098 43.4517Z" fill="#263238"/>
<path d="M59.7461 42.0873L61.5414 41.7827C61.5414 41.7827 60.5378 43.2084 59.7461 42.0873Z" fill="#263238"/>
<path d="M56.4224 44.4268C56.9397 46.4124 57.6893 48.3168 58.6526 50.0928C58.2522 50.3375 57.806 50.4789 57.348 50.5064C56.8899 50.5338 56.4322 50.4466 56.0098 50.2512L56.4224 44.4268Z" fill="#D4827D"/>
<path d="M51.6615 52.6761C52.0606 52.8201 52.4713 52.9221 52.8881 52.9807C52.9154 52.9841 52.943 52.9813 52.9692 52.9726C52.9954 52.9639 53.0198 52.9493 53.0407 52.9299C53.0615 52.9105 53.0786 52.8866 53.0907 52.8597C53.1028 52.8328 53.1098 52.8035 53.1111 52.7736C53.1148 52.7081 53.0965 52.6435 53.0595 52.5918C53.0225 52.5402 52.9694 52.5051 52.9104 52.4933C51.9762 52.3579 51.0819 51.9939 50.2942 51.4285C49.5065 50.8631 48.8456 50.1108 48.3608 49.2277C48.3489 49.1992 48.3318 49.1736 48.3106 49.1525C48.2893 49.1315 48.2644 49.1153 48.2373 49.105C48.2102 49.0948 48.1815 49.0906 48.1528 49.0929C48.1242 49.0951 48.0963 49.1037 48.0708 49.1181C48.0445 49.1308 48.021 49.1495 48.0019 49.173C47.9828 49.1965 47.9685 49.2242 47.96 49.2542C47.9516 49.2843 47.9491 49.3159 47.9529 49.3471C47.9566 49.3783 47.9664 49.4082 47.9816 49.4349C48.8001 50.9745 50.1108 52.129 51.6615 52.6761Z" fill="#263238"/>
<path d="M34.0088 46.1081C34.2032 47.0266 34.5702 47.8909 35.0866 48.646C35.603 49.4012 36.2575 50.0308 37.0084 50.4948C38.9153 51.5549 40.2868 49.2763 40.1084 46.5468C39.9412 44.1098 38.7591 40.6736 36.685 40.7711C34.6109 40.8686 33.3955 43.6468 34.0088 46.1081Z" fill="#EEC1BB"/>
<path d="M48.4055 37.0668C48.4628 37.0823 48.5224 37.0837 48.5802 37.071C48.638 37.0584 48.6926 37.032 48.74 36.9937C49.1672 36.6405 49.6674 36.4079 50.1965 36.3165C50.7256 36.2251 51.2671 36.2778 51.7731 36.4698C51.8238 36.4972 51.8793 36.5124 51.9358 36.5141C51.9923 36.5158 52.0485 36.5041 52.1004 36.4798C52.1524 36.4554 52.1989 36.4191 52.2367 36.3732C52.2746 36.3272 52.3028 36.2729 52.3195 36.2139C52.3553 36.0905 52.349 35.9572 52.3019 35.8385C52.2547 35.7198 52.1699 35.6238 52.0631 35.5681C51.426 35.312 50.7406 35.2337 50.0688 35.3401C49.3971 35.4464 48.7602 35.7342 48.2159 36.1773C48.1254 36.2585 48.0669 36.3745 48.0524 36.5015C48.0378 36.6285 48.0684 36.7567 48.1379 36.8597C48.1998 36.9634 48.2955 37.0374 48.4055 37.0668Z" fill="#263238"/>
<path d="M61.8852 39.3088C61.9343 39.333 61.9875 39.3455 62.0413 39.3455C62.0952 39.3455 62.1484 39.333 62.1974 39.3088C62.2468 39.2763 62.2898 39.2334 62.3239 39.1826C62.3579 39.1318 62.3824 39.0741 62.3959 39.0129C62.4094 38.9517 62.4116 38.8881 62.4024 38.826C62.3932 38.7638 62.3728 38.7043 62.3424 38.6508C62.0088 37.9583 61.5333 37.3594 60.953 36.9008C60.3728 36.4421 59.7034 36.1361 58.9971 36.0066C58.9408 35.9997 58.8837 36.006 58.8297 36.0249C58.7758 36.0439 58.7261 36.0751 58.6839 36.1165C58.6418 36.158 58.6082 36.2087 58.5853 36.2653C58.5624 36.322 58.5507 36.3833 58.551 36.4453C58.5471 36.5745 58.5871 36.7008 58.6633 36.7998C58.7395 36.8988 58.8464 36.9635 58.9636 36.9814C59.5179 37.0937 60.0412 37.3431 60.4935 37.7106C60.9458 38.0781 61.3151 38.554 61.573 39.1016C61.6488 39.212 61.7606 39.2862 61.8852 39.3088Z" fill="#263238"/>
<path d="M50.7344 40.6005L52.5185 40.2959C52.5185 40.2959 51.5707 41.7094 50.7344 40.6005Z" fill="#263238"/>
<path d="M50.4892 28.2693C50.4892 28.2693 45.382 40.369 36.5503 39.7841C27.7187 39.1993 32.4133 25.8932 44.8133 23.4805C57.2133 21.0679 64.4838 33.3261 64.4726 36.1652C64.4175 37.0373 64.1439 37.876 63.6817 38.5896C63.2195 39.3031 62.5865 39.8639 61.8521 40.2106C61.8521 40.2106 59.3766 30.6088 50.4892 28.2693Z" fill="#263238"/>
<path d="M31.2431 91.2785C29.4924 95.0194 27.6636 98.9186 25.9909 102.672C25.1658 104.56 24.3517 106.449 23.6938 108.228C23.3704 109.105 23.1028 109.983 22.9132 110.665C22.824 110.97 22.7794 111.262 22.7571 111.165C22.7348 111.067 22.7571 110.982 22.6122 110.458C22.4989 110.076 22.3415 109.712 22.1438 109.373C21.989 109.11 21.8097 108.865 21.6086 108.642C21.504 108.52 21.3881 108.41 21.2629 108.313C20.4154 107.667 20.3262 107.862 20.4154 107.862C20.6473 107.946 20.8864 108.003 21.1291 108.033C21.928 108.14 22.7332 108.181 23.5377 108.155C25.3107 108.155 27.2399 107.984 29.1132 107.777C32.9715 107.375 36.919 106.802 40.9222 106.339H40.9891C41.6629 106.257 42.3415 106.44 42.9026 106.855C43.4637 107.271 43.8704 107.892 44.0494 108.607C44.2284 109.321 44.1678 110.082 43.8786 110.752C43.5894 111.422 43.0906 111.958 42.4722 112.261C38.6601 114.142 34.7238 115.706 30.6967 116.94C28.6089 117.6 26.4863 118.121 24.3406 118.5C23.134 118.712 21.9158 118.834 20.6942 118.866C19.9251 118.875 19.1567 118.814 18.3971 118.683C17.0737 118.479 15.8213 117.904 14.7618 117.013C14.5433 116.823 14.3348 116.62 14.1373 116.404C13.852 116.077 13.5945 115.722 13.3679 115.344C13.0404 114.767 12.7854 114.144 12.6096 113.492C12.4132 112.73 12.3082 111.944 12.2974 111.152C12.2899 110.217 12.3608 109.283 12.5093 108.362C12.7265 107.022 13.0245 105.699 13.4014 104.402C14.0395 102.124 14.7839 99.8829 15.6316 97.6879C17.2713 93.4675 19.1329 89.3543 21.2071 85.3688C21.9184 83.9145 23.1292 82.8286 24.5732 82.3498C26.0172 81.8711 27.5761 82.0388 28.9069 82.816C30.2378 83.5932 31.2316 84.9163 31.6697 86.4942C32.1078 88.0721 31.9544 89.7755 31.2431 91.2298V91.2785Z" fill="#EBC0BB"/>
<path d="M29.7718 74.7554C23.6499 75.7789 20.2934 80.9941 15.2754 94.4221C21.0628 105.303 29.6714 106.79 29.6714 106.79C29.6714 106.79 38.1797 90.3035 29.7718 74.7554Z" fill="#407BFF"/>
<path opacity="0.6" d="M54.1465 90.6812C54.1465 90.8354 54.1883 90.9862 54.2668 91.1145C54.3452 91.2427 54.4566 91.3427 54.5871 91.4017C54.7175 91.4607 54.8609 91.4762 54.9994 91.4461C55.1378 91.416 55.265 91.3417 55.3648 91.2326C55.4646 91.1236 55.5326 90.9846 55.5601 90.8333C55.5877 90.6821 55.5735 90.5253 55.5195 90.3828C55.4655 90.2403 55.374 90.1185 55.2566 90.0328C55.1393 89.9471 55.0013 89.9014 54.8602 89.9014C54.6709 89.9014 54.4894 89.9835 54.3555 90.1298C54.2217 90.276 54.1465 90.4744 54.1465 90.6812Z" fill="white"/>
<path opacity="0.6" d="M55.5762 102.171C55.5762 102.378 55.6514 102.577 55.7852 102.723C55.919 102.869 56.1006 102.951 56.2898 102.951C56.4791 102.951 56.6606 102.869 56.7945 102.723C56.9283 102.577 57.0035 102.378 57.0035 102.171C57.0035 101.965 56.9283 101.766 56.7945 101.62C56.6606 101.474 56.4791 101.392 56.2898 101.392C56.1006 101.392 55.919 101.474 55.7852 101.62C55.6514 101.766 55.5762 101.965 55.5762 102.171Z" fill="white"/>
<path d="M92.5745 74.0001L91.9277 65.3975L100.113 68.7971C100.113 68.7971 100.269 76.498 96.6335 76.4249L92.5745 74.0001Z" fill="#EEC1BB"/>
<path d="M95.4292 57.7573L101.551 63.2893L100.113 68.797L91.9277 65.3974L95.4292 57.7573Z" fill="#EEC1BB"/>
<path d="M41.4016 106.339L50.6458 105.523L48.5048 112.237C48.5048 112.237 41.8141 114.674 40.8105 110.823L41.4016 106.339Z" fill="#EEC1BB"/>
<path d="M55.5754 111.03L50.6466 114.089L48.5391 112.236L50.6466 105.522L55.5754 111.03Z" fill="#EEC1BB"/>
<path d="M77.6088 127.383C77.4136 127.385 77.2201 127.344 77.0395 127.263C76.8589 127.182 76.6948 127.063 76.5568 126.912C76.4188 126.761 76.3096 126.582 76.2356 126.384C76.1616 126.187 76.1242 125.976 76.1257 125.762V124.446H32.4358V125.762C32.4372 125.975 32.4003 126.185 32.3269 126.382C32.2536 126.578 32.1454 126.757 32.0086 126.907C31.8718 127.058 31.709 127.178 31.5297 127.259C31.3504 127.341 31.1581 127.383 30.9638 127.383C29.8748 127.373 28.82 127.798 27.9983 128.58C27.1767 129.361 26.6449 130.443 26.5034 131.623C26.4441 132.276 26.5108 132.935 26.6992 133.558C26.8875 134.181 27.1933 134.754 27.5969 135.24C28.0004 135.725 28.4927 136.113 29.0419 136.378C29.5911 136.643 30.1851 136.779 30.7854 136.778H30.975C31.3664 136.781 31.7408 136.953 32.0165 137.257C32.2922 137.56 32.4469 137.97 32.4469 138.398V139.714H76.1368V138.398C76.1368 137.968 76.2931 137.556 76.5712 137.252C76.8494 136.948 77.2266 136.778 77.6199 136.778H77.7984C78.3987 136.779 78.9927 136.643 79.5419 136.378C80.0911 136.113 80.5834 135.725 80.9869 135.24C81.3904 134.754 81.6962 134.181 81.8846 133.558C82.0729 132.935 82.1396 132.276 82.0804 131.623C81.9386 130.441 81.4053 129.357 80.5813 128.576C79.7573 127.794 78.6998 127.37 77.6088 127.383Z" fill="#407BFF"/>
<path opacity="0.2" d="M79.0702 130.843C79.2296 130.991 79.3597 131.173 79.4527 131.377C79.5456 131.582 79.5995 131.805 79.611 132.033C79.6225 132.261 79.5913 132.489 79.5194 132.704C79.4476 132.918 79.3365 133.114 79.1929 133.28C79.0559 133.452 78.8889 133.591 78.7019 133.691C78.5148 133.79 78.3114 133.848 78.1036 133.861C77.8958 133.873 77.6879 133.84 77.4919 133.763C77.296 133.687 77.1161 133.568 76.9627 133.414C76.6934 133.104 76.5409 132.694 76.5353 132.266C76.5297 131.838 76.6715 131.423 76.9326 131.104C77.1936 130.785 77.5549 130.585 77.9446 130.544C78.3344 130.502 78.7242 130.622 79.0368 130.88L79.0702 130.843Z" fill="black"/>
<path opacity="0.2" d="M77.3238 131.043L76.9668 131.479L78.7366 133.209L79.0936 132.774L77.3238 131.043Z" fill="black"/>
<path opacity="0.2" d="M30.9884 133.731C30.6928 133.83 30.3768 133.831 30.0807 133.734C29.7845 133.637 29.5215 133.446 29.3249 133.185C29.1283 132.924 29.007 132.605 28.9764 132.269C28.9458 131.933 29.0073 131.594 29.1531 131.296C29.2988 130.998 29.5223 130.754 29.7952 130.595C30.068 130.436 30.3779 130.369 30.6856 130.403C30.9933 130.437 31.2849 130.57 31.5234 130.785C31.762 131 31.9367 131.287 32.0254 131.611C32.1437 132.042 32.101 132.507 31.9067 132.905C31.7125 133.302 31.3823 133.599 30.9884 133.731Z" fill="black"/>
<path opacity="0.2" d="M31.7355 131.992L31.5801 131.433L29.3072 132.186L29.4626 132.746L31.7355 131.992Z" fill="black"/>
<g opacity="0.4">
<path d="M59.22 136.838C59.0761 136.839 58.933 136.814 58.7963 136.765C58.6751 136.717 58.5648 136.64 58.4725 136.542C58.3802 136.443 58.3082 136.324 58.261 136.193C57.9822 135.413 58.484 133.902 58.9412 132.781C57.4887 132.894 56.0299 132.869 54.5811 132.708C54.2334 132.659 53.8902 132.577 53.5553 132.464C51.917 133.192 50.1103 133.337 48.3923 132.878C47.6103 133.34 46.8021 133.747 45.9725 134.097C44.5786 134.682 41.2668 135.937 40.4639 135.072C40.0624 134.633 40.0847 133.756 40.3301 132.744H35.8027V131.526H40.6981C41.0715 130.464 41.5701 129.461 42.1812 128.54C43.4858 126.676 44.5006 126.92 44.9801 127.224C45.3207 127.422 45.5875 127.743 45.7341 128.132C45.8808 128.522 45.8981 128.955 45.7829 129.357C45.4563 130.261 44.9095 131.05 44.2019 131.638C43.4943 132.227 42.6528 132.592 41.7686 132.696H41.4563C41.2888 133.156 41.2128 133.65 41.2333 134.146C43.2871 133.899 45.2844 133.255 47.1322 132.245C46.8229 132.05 46.5925 131.734 46.487 131.361C46.3815 130.989 46.4089 130.586 46.5635 130.234C46.965 129.43 48.1916 129.016 49.6635 129.893C49.842 129.975 49.9932 130.115 50.0969 130.293C50.2005 130.472 50.2517 130.681 50.2434 130.892C50.1744 131.323 49.9544 131.708 49.6301 131.964C50.5056 132.042 51.3868 131.964 52.2394 131.733C51.9774 131.473 51.773 131.152 51.6417 130.793C51.5103 130.434 51.4554 130.047 51.4811 129.661C51.4834 129.452 51.5475 129.248 51.664 129.081C51.7805 128.914 51.9432 128.793 52.1279 128.735C52.5962 128.653 53.0761 128.708 53.5187 128.894C53.9613 129.081 54.351 129.392 54.6481 129.796C54.8272 130.041 54.9247 130.346 54.9247 130.661C54.9247 130.975 54.8272 131.28 54.6481 131.526C56.3243 131.701 58.0121 131.701 59.6883 131.526L60.6696 131.416L60.2236 132.379C59.6741 133.389 59.2963 134.499 59.1085 135.657H59.22C60.3351 135.023 61.6286 130.405 62.097 128.662C62.4873 127.249 62.5319 127.042 63.0002 127.042H63.4128L63.5132 127.493C63.5801 127.797 63.5132 128.211 63.1452 129.381C62.8515 130.338 62.635 131.32 62.4984 132.318C62.8999 132.318 63.6135 132.172 64.316 132.062C66.6183 131.652 68.9427 131.408 71.2743 131.331V132.549C68.9952 132.63 66.7232 132.87 64.4722 133.268C63.7339 133.408 62.9895 133.505 62.2419 133.561C62.0673 133.564 61.8974 133.499 61.7624 133.378C61.4123 134.706 60.6863 135.879 59.6883 136.729C59.5392 136.795 59.3807 136.832 59.22 136.838ZM48.0689 130.575C47.9684 130.561 47.8661 130.573 47.7709 130.611C47.6757 130.649 47.5905 130.712 47.5225 130.795C47.5225 130.904 47.5894 131.185 48.0355 131.465C48.1084 131.52 48.187 131.565 48.2696 131.599C48.5839 131.413 48.8698 131.174 49.1171 130.892C48.7978 130.702 48.4432 130.594 48.0801 130.575H48.0689ZM44.2441 128.138C43.9724 128.189 43.7247 128.34 43.5416 128.565C42.7909 129.416 42.2032 130.423 41.8132 131.526C42.4426 131.416 43.0367 131.135 43.5413 130.709C44.0458 130.284 44.4446 129.726 44.7013 129.089C44.7549 128.936 44.7536 128.767 44.6978 128.616C44.6419 128.464 44.5356 128.342 44.4002 128.272C44.3561 128.239 44.307 128.214 44.2553 128.199L44.2441 128.138ZM52.574 129.771C52.5706 130.074 52.6566 130.371 52.8193 130.617C52.9819 130.862 53.2126 131.044 53.4772 131.136C53.6132 131.04 53.7338 130.921 53.834 130.783C53.834 130.685 53.9344 130.588 53.834 130.405C53.5 130.045 53.054 129.836 52.5851 129.82L52.574 129.771Z" fill="white"/>
</g>
<path d="M134.944 133.797L241.916 133.797V16.9055L134.944 16.9055V133.797Z" fill="#407BFF"/>
<path opacity="0.7" d="M241.904 16.918H134.932V133.809H241.904V16.918Z" fill="white"/>
<path opacity="0.7" d="M236.54 22.7793H140.295V127.936H236.54V22.7793Z" fill="white"/>
<path d="M178.934 93.9641C178.298 94.7196 177.819 95.2558 177.25 95.865C176.681 96.4743 176.135 97.0226 175.577 97.5709C174.462 98.6919 173.347 99.7642 172.12 100.812C169.736 102.915 167.217 104.829 164.582 106.539C161.88 108.317 159.027 109.806 156.063 110.987C152.935 112.268 149.651 113.032 146.317 113.253H144.979C144.279 113.257 143.581 113.187 142.893 113.046C141.558 112.75 140.287 112.179 139.147 111.364C137.391 110.025 135.929 108.277 134.865 106.247C133.286 103.107 132.158 99.7203 131.519 96.2062C130.311 89.858 129.82 83.3717 130.059 76.8928L135.734 76.5029C136.733 82.2926 138.12 87.9943 139.883 93.562C140.641 96.0154 141.703 98.344 143.038 100.483C143.417 101.116 143.935 101.636 144.544 101.994C144.689 101.994 144.711 101.994 144.711 101.994L145.469 101.884C149.841 101.239 154.39 98.9235 158.639 95.9381C160.8 94.4096 162.881 92.7498 164.872 90.9666C165.887 90.0771 166.879 89.1632 167.838 88.2006L169.266 86.7749L170.57 85.4102L178.934 93.9641Z" fill="#EBC0BB"/>
<path d="M153.131 97.4373L159.275 112.303C159.275 112.303 159.922 112.072 161.015 111.633L164.059 110.353C170.861 107.392 181.823 101.105 184.32 96.3041C188.056 89.1271 181.733 83.9119 170.304 86.6413C165.364 87.8598 160.948 92.0515 157.602 94.3057C156.487 95.049 155.551 95.707 154.815 96.231C153.755 96.9742 153.131 97.4373 153.131 97.4373Z" fill="#263238"/>
<path opacity="0.3" d="M183.975 97.193C182.47 94.0614 178.5 97.4367 171.932 98.3384C169.011 98.7526 158.93 106.868 158.094 109.463L159.276 112.327C159.276 112.327 180.385 104.394 183.975 97.193Z" fill="black"/>
<path d="M135.879 79.0739L137.418 69.6792L129.133 71.0683C129.133 71.0683 128.977 80.1218 131.508 80.7432L135.879 79.0739Z" fill="#EEC1BB"/>
<path d="M132.568 62.9897L127.037 65.5974L129.134 71.0685L137.419 69.6794L132.568 62.9897Z" fill="#EEC1BB"/>
<path d="M215.655 89.3579C215.399 90.223 215.165 91.0881 214.919 91.9654C211.82 103.634 209.66 115.576 208.463 127.656V127.96H165.264C166.78 100.385 173.594 86.2994 173.594 86.2994C173.594 86.2994 175.177 85.9217 177.842 85.5683C179.927 85.3002 182.548 85.0321 185.202 84.9834C190.942 85.1016 196.672 85.5735 202.363 86.3969C205.352 86.799 208.374 87.457 210.782 88.0419C213.682 88.7242 215.655 89.3579 215.655 89.3579Z" fill="#263238"/>
<path opacity="0.3" d="M208.462 127.656C209.676 115.584 211.847 103.651 214.951 91.9902C212.275 91.515 207.636 91.4296 206.544 96.1209C205.373 101.153 205.618 113.277 208.462 127.656Z" fill="black"/>
<path d="M217.674 94.8169C218.376 96.2304 218.967 97.4854 219.547 98.8258C220.127 100.166 220.662 101.494 221.231 102.835C222.346 105.528 223.305 108.257 224.197 111.047C226.076 116.734 227.37 122.631 228.055 128.63L228.122 129.215V129.642V130.288C228.138 130.88 228.093 131.473 227.989 132.054C227.989 132.237 227.933 132.383 227.888 132.578C227.844 132.773 227.766 133.005 227.699 133.212C227.632 133.419 227.565 133.602 227.464 133.821C227.364 134.041 227.23 134.284 227.108 134.516C226.831 134.96 226.509 135.369 226.149 135.734C225.781 136.108 225.373 136.432 224.933 136.697C224.555 136.922 224.16 137.11 223.751 137.258C223.417 137.359 223.079 137.441 222.736 137.501C221.867 137.624 220.984 137.583 220.127 137.379C219.146 137.145 218.192 136.789 217.284 136.319C216.514 135.929 215.845 135.527 215.198 135.101C212.827 133.539 210.555 131.804 208.396 129.91C204.267 126.307 200.356 122.416 196.688 118.261L200.289 113.387C204.616 116.299 208.987 119.272 213.291 122.002C215.345 123.344 217.463 124.565 219.636 125.657C220.098 125.884 220.571 126.084 221.053 126.254C221.318 126.377 221.601 126.447 221.889 126.462C221.889 126.462 221.777 126.364 221.209 126.462C221.022 126.483 220.839 126.528 220.662 126.596C220.399 126.68 220.145 126.794 219.904 126.937C219.607 127.115 219.333 127.336 219.09 127.595C218.839 127.852 218.615 128.138 218.421 128.448C218.023 129.098 217.806 129.859 217.797 130.641V130.763V130.653L217.707 130.19C217.232 127.671 216.632 125.182 215.912 122.733C215.176 120.235 214.34 117.737 213.459 115.239C212.578 112.741 211.596 110.28 210.593 107.818C209.589 105.357 208.496 102.859 207.493 100.605L217.674 94.8169Z" fill="#EBC0BB"/>
<path d="M204.637 103.554C205.964 109.208 213.413 121.965 213.413 121.965L228.188 118.724C228.188 118.724 228.043 118.017 227.776 116.799C227.575 115.897 227.307 114.691 226.973 113.314C224.977 105.162 220.751 90.5766 215.699 89.3459C208.15 87.506 202.273 93.2939 204.637 103.554Z" fill="#263238"/>
<path d="M203.444 65.3047L198.56 69.0942L191.869 74.2485C191.994 75.1768 192.065 76.1129 192.081 77.0511C192.159 80.7797 191.055 84.0819 185.97 84.9592C185.97 84.9592 179.759 88.7609 188.49 90.2597C188.45 91.3055 188.525 92.3527 188.713 93.3791C189.567 92.2715 190.594 91.339 191.746 90.6252C201.37 91.2345 202.975 86.4702 202.975 86.4702C199.563 82.1323 201.749 71.251 203.444 65.3047Z" fill="#EEC1BB"/>
<path opacity="0.2" d="M191.914 74.2485C192.039 75.1768 192.11 76.1129 192.126 77.0511C194.49 76.7221 197.802 74.2607 198.304 71.6897C198.48 70.8382 198.566 69.9673 198.56 69.0942L191.914 74.2485Z" fill="black"/>
<path d="M189.807 42.9816C185.96 44.517 183.116 55.8003 187.666 58.6516C192.215 61.5029 197.1 40.0816 189.807 42.9816Z" fill="#263238"/>
<path d="M205.931 56.7752C203.79 64.659 202.898 69.3868 198.304 72.6889C196.824 73.78 195.099 74.4081 193.316 74.5053C191.532 74.6025 189.759 74.165 188.187 73.2403C186.615 72.3155 185.304 70.9386 184.397 69.2586C183.489 67.5786 183.019 65.6593 183.038 63.7085C182.982 56.1904 186.506 44.5414 194.378 42.9086C196.077 42.5052 197.843 42.5972 199.5 43.1752C201.156 43.7532 202.644 44.797 203.814 46.2018C204.984 47.6066 205.796 49.323 206.168 51.1789C206.539 53.0347 206.458 54.9647 205.931 56.7752Z" fill="#EEC1BB"/>
<path d="M202.776 51.3648C200.691 55.5686 201.661 62.5263 203.713 63.8789C205.943 66.3159 210.782 62.2948 212.031 59.8091C213.146 57.5914 214.105 52.2421 213.314 49.7686L202.776 51.3648Z" fill="#263238"/>
<path d="M207.046 65.2807C205.756 66.7533 204.037 67.6884 202.184 67.9249C199.843 68.1686 199.475 65.7803 200.813 63.6114C202.006 61.6618 204.671 59.1882 206.7 59.9559C208.73 60.7235 208.685 63.4408 207.046 65.2807Z" fill="#EEC1BB"/>
<path d="M194.3 56.6166C194.155 57.2624 193.731 57.7255 193.33 57.6402C192.928 57.5549 192.739 56.9578 192.873 56.312C193.006 55.6662 193.441 55.2032 193.832 55.2885C194.222 55.3737 194.467 55.9586 194.3 56.6166Z" fill="#263238"/>
<path d="M187.521 55.1669C187.387 55.8127 186.952 56.2758 186.562 56.1905C186.171 56.1052 185.959 55.5081 186.104 54.8623C186.249 54.2165 186.673 53.7534 187.063 53.8387C187.454 53.924 187.654 54.5455 187.521 55.1669Z" fill="#263238"/>
<path d="M189.606 55.9463C188.465 57.7848 187.103 59.4486 185.559 60.8934C185.906 61.3039 186.332 61.6258 186.806 61.8363C187.28 62.0469 187.791 62.141 188.302 62.112L189.606 55.9463Z" fill="#D4827D"/>
<path d="M196.899 54.6917H197.077C197.12 54.6695 197.158 54.6383 197.19 54.5999C197.221 54.5615 197.245 54.5166 197.261 54.4679C197.277 54.4191 197.283 54.3675 197.28 54.316C197.277 54.2644 197.265 54.2141 197.244 54.1677C197.026 53.5983 196.68 53.0986 196.237 52.715C195.794 52.3315 195.27 52.0767 194.713 51.9744C194.666 51.9658 194.618 51.968 194.571 51.9808C194.525 51.9936 194.482 52.0167 194.444 52.0488C194.406 52.0809 194.375 52.1211 194.352 52.167C194.329 52.213 194.316 52.2635 194.312 52.3156C194.305 52.3662 194.309 52.4176 194.321 52.4668C194.334 52.516 194.355 52.5619 194.384 52.6018C194.414 52.6416 194.45 52.6746 194.491 52.6987C194.532 52.7228 194.577 52.7376 194.624 52.7421C195.057 52.8405 195.463 53.0513 195.806 53.3566C196.15 53.662 196.421 54.0529 196.598 54.4967C196.628 54.5547 196.672 54.6032 196.725 54.6373C196.778 54.6714 196.837 54.6902 196.899 54.6917Z" fill="#263238"/>
<path d="M185.145 52.0109C185.204 52.0168 185.263 52.0065 185.318 51.981C185.372 51.9555 185.42 51.9155 185.457 51.8647C185.73 51.4631 186.085 51.1362 186.493 50.9099C186.901 50.6837 187.352 50.5642 187.81 50.5609C187.862 50.5743 187.915 50.5754 187.968 50.5639C188.02 50.5524 188.069 50.5288 188.112 50.4945C188.155 50.4603 188.19 50.4163 188.216 50.3655C188.242 50.3148 188.258 50.2585 188.262 50.2005C188.266 50.1426 188.258 50.0844 188.24 50.0299C188.222 49.9754 188.192 49.9259 188.155 49.8849C188.117 49.8439 188.072 49.8123 188.022 49.7922C187.972 49.7722 187.919 49.7642 187.866 49.7689C187.289 49.767 186.72 49.9112 186.204 50.1903C185.687 50.4694 185.237 50.8757 184.888 51.3773C184.822 51.4503 184.785 51.5488 184.785 51.6515C184.785 51.7541 184.822 51.8526 184.888 51.9256C184.961 51.9872 185.053 52.0176 185.145 52.0109Z" fill="#263238"/>
<path d="M187.008 63.6108C187.008 63.6108 189.171 62.9893 195.249 63.1356C194.502 65.5726 193.152 67.6075 190.041 67.4978C186.93 67.3882 187.008 63.6108 187.008 63.6108Z" fill="#263238"/>
<path d="M191.512 65.573C190.285 65.4564 189.064 65.8576 188.1 66.6941C188.633 67.2155 189.324 67.5021 190.04 67.4983C191.246 67.5974 192.442 67.1924 193.385 66.3651C192.867 65.8656 192.203 65.5847 191.512 65.573Z" fill="#A02724"/>
<path d="M187.275 63.5502C187.443 64.0864 187.61 64.6225 188.212 64.7688C190.018 64.8129 191.823 64.6496 193.598 64.2814C193.91 64.2393 194.204 64.1029 194.448 63.8876C194.693 63.6722 194.877 63.3866 194.981 63.0628C192.404 62.9492 189.823 63.1124 187.275 63.5502Z" fill="white"/>
<path d="M145.849 92.8551C146.235 92.9259 146.631 92.8274 146.95 92.5809C147.27 92.3344 147.487 91.96 147.555 91.5391L147.756 90.2354L190.799 98.4115L190.598 99.7153C190.565 99.9242 190.569 100.138 190.612 100.345C190.654 100.552 190.734 100.748 190.846 100.921C190.958 101.095 191.1 101.242 191.264 101.355C191.428 101.468 191.611 101.544 191.803 101.58C192.878 101.772 193.851 102.388 194.539 103.31C195.227 104.233 195.583 105.398 195.538 106.588C195.493 107.242 195.322 107.879 195.039 108.457C194.755 109.035 194.364 109.542 193.891 109.946C193.417 110.35 192.872 110.641 192.29 110.801C191.708 110.962 191.101 110.987 190.509 110.877H190.331C190.14 110.84 189.944 110.845 189.754 110.891C189.565 110.938 189.386 111.025 189.227 111.147C189.069 111.269 188.934 111.425 188.83 111.604C188.727 111.784 188.657 111.984 188.625 112.193L188.413 113.484L145.37 105.32L145.57 104.017C145.606 103.808 145.603 103.595 145.561 103.388C145.52 103.181 145.442 102.985 145.331 102.811C145.22 102.638 145.078 102.49 144.915 102.377C144.751 102.264 144.568 102.188 144.377 102.152H144.188C143.597 102.039 143.035 101.791 142.537 101.426C142.039 101.061 141.616 100.586 141.296 100.032C140.976 99.4776 140.765 98.8564 140.677 98.2081C140.589 97.5598 140.627 96.8986 140.787 96.2669C141.099 95.1173 141.787 94.1338 142.721 93.5043C143.655 92.8749 144.769 92.6438 145.849 92.8551Z" fill="#407BFF"/>
<path opacity="0.2" d="M143.864 95.9746C143.676 96.0852 143.511 96.2367 143.379 96.4198C143.247 96.6029 143.15 96.8137 143.095 97.0392C143.04 97.2647 143.029 97.5001 143.06 97.7308C143.092 97.9615 143.167 98.1826 143.28 98.3805C143.393 98.5784 143.542 98.7488 143.718 98.8813C143.894 99.0137 144.092 99.1053 144.302 99.1505C144.511 99.1957 144.727 99.1934 144.936 99.1439C145.144 99.0944 145.341 98.9986 145.515 98.8625C145.837 98.6097 146.059 98.2324 146.136 97.8072C146.213 97.3821 146.138 96.9409 145.928 96.5733C145.718 96.2057 145.388 95.9393 145.005 95.8281C144.621 95.7169 144.214 95.7693 143.864 95.9746Z" fill="black"/>
<path opacity="0.2" d="M143.58 97.8441L143.863 98.3403L145.878 96.9665L145.595 96.4703L143.58 97.8441Z" fill="black"/>
<path opacity="0.2" d="M190.787 107.806C191.15 107.968 191.555 107.974 191.922 107.824C192.29 107.674 192.592 107.379 192.769 106.997C192.946 106.614 192.984 106.174 192.878 105.761C192.771 105.349 192.526 104.996 192.192 104.772C192.008 104.649 191.803 104.569 191.589 104.537C191.375 104.504 191.158 104.521 190.95 104.585C190.742 104.649 190.549 104.76 190.383 104.91C190.216 105.06 190.08 105.246 189.983 105.456C189.885 105.667 189.829 105.897 189.817 106.132C189.805 106.367 189.838 106.603 189.913 106.824C189.989 107.045 190.106 107.246 190.256 107.415C190.406 107.584 190.587 107.717 190.787 107.806Z" fill="black"/>
<path opacity="0.2" d="M192.433 107.158L192.674 106.636L190.553 105.468L190.312 105.99L192.433 107.158Z" fill="black"/>
<g opacity="0.4">
<path d="M160.547 107.039C160.403 107.034 160.263 106.983 160.146 106.892C160.029 106.801 159.939 106.674 159.889 106.527C159.331 105.126 160.112 102.055 161.506 100.191C161.85 99.7137 162.265 99.302 162.732 98.9722C162.968 98.0506 163.103 97.1017 163.134 96.1453C162.255 96.8828 161.458 97.7292 160.758 98.6676C159.264 100.471 157.725 102.323 156.298 102.408C156.003 102.442 155.706 102.375 155.447 102.218C155.188 102.062 154.979 101.822 154.848 101.531C154.671 101.155 154.587 100.735 154.603 100.313C153.094 100.295 151.594 100.057 150.143 99.6059L150.444 98.4848C151.824 98.9241 153.255 99.1456 154.692 99.1428C154.82 98.5458 155.055 97.9824 155.384 97.4856C155.523 97.227 155.731 97.0202 155.979 96.892C156.228 96.7638 156.506 96.7202 156.777 96.7667L157.112 96.852C157.658 96.9739 158.082 97.0714 158.227 97.5466C158.372 98.0218 157.982 98.497 157.045 99.4718C156.65 99.8466 156.167 100.095 155.651 100.191C155.632 100.45 155.675 100.71 155.774 100.946C155.841 101.092 155.919 101.214 156.231 101.202C157.201 101.202 158.718 99.3134 159.933 97.839C160.759 96.6296 161.803 95.6178 163 94.8659C163.105 94.8114 163.22 94.7826 163.336 94.7813C163.452 94.78 163.567 94.8064 163.673 94.8585C163.779 94.9107 163.874 94.9874 163.95 95.0833C164.026 95.1793 164.082 95.2922 164.115 95.4142C164.262 96.4221 164.209 97.4527 163.959 98.4361C164.327 98.356 164.706 98.356 165.074 98.4361C166.034 98.6504 167.007 98.7969 167.984 98.8748C169.635 99.0332 170.95 99.1672 171.541 100.41C171.947 100.307 172.363 100.258 172.779 100.264C174.563 100.337 174.798 102.079 174.931 103.018C174.951 103.253 174.992 103.486 175.054 103.712C176.074 103.313 177.018 102.714 177.842 101.945L178.7 101.202V103.907H185.302V105.126H177.63V103.651C176.832 104.374 175.86 104.831 174.831 104.967C174.073 104.858 173.961 103.98 173.861 103.286C173.705 102.067 173.549 101.568 172.746 101.543C172.423 101.532 172.1 101.569 171.787 101.653C171.71 102.364 171.483 103.047 171.123 103.645C170.763 104.244 170.28 104.742 169.713 105.101C169.585 105.191 169.442 105.251 169.292 105.278C169.143 105.305 168.99 105.298 168.843 105.258C168.695 105.218 168.557 105.146 168.436 105.045C168.316 104.945 168.215 104.819 168.14 104.675C168.01 104.392 167.954 104.075 167.978 103.759C168.001 103.443 168.104 103.14 168.274 102.884C168.833 102.006 169.605 101.318 170.504 100.897C170.136 100.386 169.389 100.288 167.884 100.142C166.861 100.066 165.843 99.9108 164.84 99.679C164.445 99.5838 164.032 99.622 163.658 99.7886C162.933 102.945 161.628 106.612 160.814 106.978C160.729 107.016 160.638 107.037 160.547 107.039ZM162.197 101.129C161.387 102.347 160.897 103.784 160.781 105.284C161.365 103.948 161.839 102.557 162.197 101.129ZM170.616 102.153C170.046 102.464 169.556 102.925 169.189 103.493C169.111 103.639 168.977 103.919 169.077 104.102C169.177 104.285 169.568 103.944 170.047 103.261C170.295 102.931 170.487 102.556 170.616 102.153ZM156.554 97.9731C156.554 97.9731 156.421 97.9731 156.253 98.2655C156.11 98.4744 155.994 98.704 155.908 98.9479C156.054 98.8834 156.19 98.7928 156.309 98.6798L156.9 98.0583L156.554 97.9731Z" fill="white"/>
</g>
<path d="M201.483 114.472L198.137 106.941L193.354 115.934C193.354 115.934 197.401 122.027 200.044 119.48L201.483 114.472Z" fill="#EEC1BB"/>
<path d="M191.323 104.736L187.654 112.364L193.319 115.934L198.159 106.941L191.323 104.736Z" fill="#EEC1BB"/>
<path d="M190.765 37.0965C190.765 37.0965 191.88 32.9779 189.65 32.917C184.744 32.783 183.662 44.2613 188.635 46.5399C193.609 48.8185 201.649 46.5399 201.649 46.5399C202.047 48.9511 202.163 51.4078 201.994 53.851C201.649 57.2262 212.432 59.4439 213.146 56.5073C213.915 53.3514 214.383 44.3222 210.458 40.9713C206.533 37.6204 200.088 36.4507 200.088 36.4507C200.088 36.4507 205.139 32.7221 203.489 31.93C199.775 30.151 195.594 36.207 195.594 36.207C195.594 36.207 199.43 31.6132 196.787 30.675C192.483 29.1275 190.765 37.0965 190.765 37.0965Z" fill="#263238"/>
<path d="M191.791 90.6254L194.3 95.865C194.3 95.865 204.269 93.2695 207.603 87.3354L202.864 83.5215C200.166 87.3817 196.191 89.9321 191.791 90.6254Z" fill="#263238"/>
<path d="M188.534 90.2602L182.468 93.3796C182.468 93.3796 181.464 88.5056 183.037 84.9597L188.534 82.3887C187.631 84.9197 187.631 87.7292 188.534 90.2602Z" fill="#263238"/>
<path opacity="0.2" d="M191.791 90.6254L194.3 95.865C194.3 95.865 204.269 93.2695 207.603 87.3354L202.864 83.5215C200.166 87.3817 196.191 89.9321 191.791 90.6254Z" fill="white"/>
<path opacity="0.2" d="M188.534 90.2602L182.468 93.3796C182.468 93.3796 181.464 88.5056 183.037 84.9597L188.534 82.3887C187.631 84.9197 187.631 87.7292 188.534 90.2602Z" fill="white"/>
<path opacity="0.2" d="M241.905 16.918V36.5603C240.892 36.8451 239.85 36.9884 238.805 36.9868C236.659 36.987 234.552 36.3644 232.699 35.1825C230.846 34.0006 229.313 32.3019 228.258 30.2603C227.203 28.2187 226.664 25.9075 226.695 23.5632C226.726 21.2188 227.326 18.9255 228.434 16.918H241.905Z" fill="black"/>
<path d="M245.105 30.071C249.835 24.9032 249.835 16.5245 245.105 11.3567C240.376 6.18893 232.708 6.18891 227.979 11.3567C223.25 16.5245 223.25 24.9032 227.979 30.071C232.708 35.2388 240.376 35.2388 245.105 30.071Z" fill="#407BFF"/>
<path d="M239.284 20.7075L243.299 23.1446L241.927 25.7522L237.846 23.1446V28.1039H235.17V23.2299L231.133 25.8009L229.717 23.1933L233.765 20.7563L229.717 18.3193L231.133 15.6751L235.17 18.2827V13.4087H237.846V18.368L241.927 15.7238L243.299 18.368L239.284 20.7075Z" fill="white"/>
</svg>
