<svg width="228" height="160" viewBox="0 0 228 160" fill="none" xmlns="http://www.w3.org/2000/svg">
<path d="M125.13 68.2376C125.13 70.916 124.067 73.485 122.175 75.3802C120.282 77.2754 117.714 78.3419 115.036 78.3456H111.362V87.9761H101.395V91.9275C101.339 94.5706 100.25 97.0865 98.3604 98.9359C96.4713 100.785 93.9329 101.821 91.2892 101.821C88.6455 101.821 86.1071 100.785 84.218 98.9359C82.3289 97.0865 81.2396 94.5706 81.1835 91.9275V87.9761H71.8758V78.3456H67.6471C64.9662 78.3456 62.3952 77.2806 60.4996 75.385C58.604 73.4894 57.5391 70.9184 57.5391 68.2376C57.5391 65.5568 58.604 62.9858 60.4996 61.0901C62.3952 59.1945 64.9662 58.1296 67.6471 58.1296H71.8758V48.499H81.5063V52.7459C81.4778 54.0911 81.7181 55.4284 82.2131 56.6794C82.7082 57.9305 83.448 59.0701 84.3892 60.0315C85.3304 60.9929 86.4541 61.7568 87.6944 62.2782C88.9347 62.7997 90.2666 63.0683 91.612 63.0683C92.9575 63.0683 94.2894 62.7997 95.5297 62.2782C96.7699 61.7568 97.8936 60.9929 98.8349 60.0315C99.7761 59.0701 100.516 57.9305 101.011 56.6794C101.506 55.4284 101.746 54.0911 101.718 52.7459V48.5172H111.348V58.1478H115.036C117.711 58.1514 120.276 59.2154 122.168 61.1067C124.06 62.998 125.125 65.5623 125.13 68.2376Z" fill="#407BFF"/>
<g opacity="0.5">
<path d="M125.13 68.2376C125.13 70.916 124.067 73.485 122.175 75.3802C120.282 77.2754 117.714 78.3419 115.036 78.3456H111.362V87.9761H101.395V91.9275C101.339 94.5706 100.25 97.0865 98.3604 98.9359C96.4713 100.785 93.9329 101.821 91.2892 101.821C88.6455 101.821 86.1071 100.785 84.218 98.9359C82.3289 97.0865 81.2396 94.5706 81.1835 91.9275V87.9761H71.8758V78.3456H67.6471C64.9662 78.3456 62.3952 77.2806 60.4996 75.385C58.604 73.4894 57.5391 70.9184 57.5391 68.2376C57.5391 65.5568 58.604 62.9858 60.4996 61.0901C62.3952 59.1945 64.9662 58.1296 67.6471 58.1296H71.8758V48.499H81.5063V52.7459C81.4778 54.0911 81.7181 55.4284 82.2131 56.6794C82.7082 57.9305 83.448 59.0701 84.3892 60.0315C85.3304 60.9929 86.4541 61.7568 87.6944 62.2782C88.9347 62.7997 90.2666 63.0683 91.612 63.0683C92.9575 63.0683 94.2894 62.7997 95.5297 62.2782C96.7699 61.7568 97.8936 60.9929 98.8349 60.0315C99.7761 59.0701 100.516 57.9305 101.011 56.6794C101.506 55.4284 101.746 54.0911 101.718 52.7459V48.5172H111.348V58.1478H115.036C117.711 58.1514 120.276 59.2154 122.168 61.1067C124.06 62.998 125.125 65.5623 125.13 68.2376Z" fill="white"/>
</g>
<path d="M115.076 78.2951H110.848V87.9256H150.325V78.2951H153.994C156.675 78.2951 159.246 77.2301 161.142 75.3345C163.037 73.4389 164.102 70.8679 164.102 68.1871C164.102 65.5063 163.037 62.9353 161.142 61.0396C159.246 59.144 156.675 58.0791 153.994 58.0791H150.325V48.4485H140.694V44.2198C140.694 41.539 139.629 38.968 137.734 37.0724C135.838 35.1768 133.267 34.1118 130.586 34.1118C127.905 34.1118 125.334 35.1768 123.439 37.0724C121.543 38.968 120.478 41.539 120.478 44.2198V48.4485H110.848V58.0791H115.076C117.757 58.0791 120.328 59.144 122.224 61.0396C124.119 62.9353 125.184 65.5063 125.184 68.1871C125.184 70.8679 124.119 73.4389 122.224 75.3345C120.328 77.2301 117.757 78.2951 115.076 78.2951Z" fill="#407BFF"/>
<g opacity="0.3">
<path d="M115.076 78.2955H110.848V87.9261H150.325V78.2955H153.994C156.675 78.2955 159.246 77.2306 161.142 75.335C163.037 73.4394 164.102 70.8684 164.102 68.1876C164.102 65.5068 163.037 62.9357 161.142 61.0401C159.246 59.1445 156.675 58.0796 153.994 58.0796H150.325V48.449H140.694V44.2203C140.694 41.5395 139.629 38.9685 137.734 37.0729C135.838 35.1773 133.267 34.1123 130.586 34.1123C127.905 34.1123 125.334 35.1773 123.439 37.0729C121.543 38.9685 120.478 41.5395 120.478 44.2203V48.449H110.848V58.0796H115.076C117.757 58.0796 120.328 59.1445 122.224 61.0401C124.119 62.9357 125.184 65.5068 125.184 68.1876C125.184 70.8684 124.119 73.4394 122.224 75.335C120.328 77.2306 117.757 78.2955 115.076 78.2955Z" fill="white"/>
</g>
<path d="M117.488 43.9821L116.638 43.7684C115.723 43.5801 114.831 43.2919 113.978 42.909L113.864 42.8544C113.028 42.4498 111.982 41.945 111.759 40.1854C111.755 40.0743 111.713 39.9681 111.639 39.8851C111.565 39.8021 111.464 39.7475 111.354 39.7307C103.561 39.3533 100.846 35.2291 100.842 30.6366C100.842 26.1351 103.802 21.8837 112.209 21.7836C120.003 21.6881 123.904 26.4852 123.668 31.4278C123.513 34.5834 121.04 38.9076 116.333 39.8898C115.756 40.0853 114.728 40.1217 114.369 40.6401C114.289 40.7657 114.246 40.9116 114.246 41.0606C114.246 41.2097 114.289 41.3556 114.369 41.4812C114.538 41.7396 114.745 41.9711 114.983 42.1679C115.82 42.8863 117.488 43.9821 117.488 43.9821Z" fill="white"/>
<path d="M117.489 44.2105H117.435L116.584 44.0013C115.653 43.8077 114.746 43.5134 113.879 43.1238L113.77 43.0692C112.929 42.6645 111.774 42.1098 111.537 40.2228C111.537 40.1819 111.496 39.959 111.342 39.9499C102.016 39.4952 100.62 33.9252 100.615 30.6468C100.615 27.9595 101.738 21.6937 112.21 21.5528C117.153 21.5028 119.94 23.317 121.431 24.863C122.274 25.7299 122.927 26.7613 123.352 27.8927C123.777 29.0241 123.964 30.2311 123.9 31.438C123.745 33.4957 122.932 35.449 121.584 37.0108C120.235 38.5725 118.42 39.6601 116.407 40.1136C116.216 40.175 116.022 40.2236 115.825 40.2591C115.338 40.3592 114.788 40.4729 114.584 40.773C114.528 40.8606 114.498 40.9623 114.498 41.0662C114.498 41.1701 114.528 41.2719 114.584 41.3595C114.741 41.5986 114.932 41.8131 115.152 41.9961C115.966 42.6963 117.616 43.7785 117.635 43.7922C117.679 43.8211 117.712 43.8649 117.727 43.9158C117.742 43.9666 117.738 44.0211 117.717 44.0695C117.698 44.114 117.667 44.1517 117.626 44.177C117.585 44.2023 117.537 44.214 117.489 44.2105ZM112.447 22.0075H112.215C102.148 22.1302 101.065 28.0777 101.07 30.6468C101.07 33.766 102.411 39.0633 111.364 39.4952C111.532 39.5128 111.688 39.5908 111.802 39.7146C111.917 39.8384 111.983 39.9996 111.987 40.1682C112.196 41.8051 113.133 42.2598 113.965 42.66L114.079 42.7145C114.796 43.0437 115.546 43.2952 116.316 43.4648C115.811 43.1147 115.234 42.6918 114.838 42.3508C114.583 42.1385 114.363 41.8886 114.183 41.6096C114.077 41.4486 114.019 41.2596 114.019 41.0662C114.019 40.8729 114.077 40.6839 114.183 40.5229C114.488 40.0682 115.134 39.9409 115.707 39.8226C115.911 39.7772 116.111 39.7362 116.261 39.6862C118.186 39.2627 119.923 38.2311 121.216 36.7441C122.509 35.2571 123.289 33.3935 123.441 31.4289C123.502 30.2837 123.325 29.1384 122.922 28.0648C122.519 26.9912 121.899 26.0126 121.099 25.1904C119.699 23.7262 117.062 22.0075 112.447 22.0075Z" fill="#407BFF"/>
<path d="M108.222 42.0728C108.763 41.4589 109.018 40.8451 108.882 40.2813C108.6 39.0945 107.549 39.1127 106.872 38.8853C102.166 37.8986 99.6921 34.4884 99.5375 31.3328C99.301 26.3902 103.202 21.5885 110.996 21.684C119.408 21.7886 122.363 26.04 122.363 30.537C122.363 35.1159 119.635 39.24 111.851 39.631C111.592 39.631 111.473 39.8811 111.442 40.0857C111.223 41.8454 110.177 42.3592 109.341 42.7548L109.227 42.8094C108.374 43.1903 107.482 43.4784 106.567 43.6688L105.717 43.8779C105.717 43.8779 107.481 42.9003 108.222 42.0728Z" fill="white"/>
<path d="M105.702 44.1055C105.656 44.1062 105.611 44.0931 105.573 44.0679C105.535 44.0428 105.506 44.0068 105.488 43.9645C105.468 43.9134 105.467 43.8566 105.485 43.8048C105.504 43.753 105.54 43.7095 105.588 43.6826C105.588 43.6826 107.343 42.705 108.035 41.9184C108.548 41.3273 108.753 40.7953 108.644 40.3315C108.448 39.5085 107.853 39.3675 107.225 39.2174C107.071 39.1811 106.916 39.1447 106.77 39.0992C101.814 38.0625 99.4316 34.4522 99.2815 31.342C99.2184 30.1345 99.405 28.9269 99.8299 27.7948C100.255 26.6627 100.909 25.6304 101.751 24.7625C103.242 23.2211 106.029 21.3886 110.972 21.4523C121.43 21.5842 122.571 27.8454 122.567 30.5463C122.567 33.8247 121.166 39.3993 111.84 39.8495C111.686 39.8495 111.649 40.0768 111.645 40.1223C111.408 42.0048 110.253 42.564 109.412 42.9687L109.303 43.0233C108.428 43.4124 107.513 43.7066 106.575 43.9009L105.72 44.11L105.702 44.1055ZM110.745 21.907C106.125 21.907 103.469 23.6258 102.105 25.0899C101.306 25.9121 100.685 26.8908 100.282 27.9644C99.8793 29.0379 99.7027 30.1833 99.7635 31.3284C99.9045 34.2658 102.173 37.6942 106.916 38.6673C107.066 38.7173 107.207 38.7491 107.371 38.7855C107.998 38.9355 108.862 39.1401 109.121 40.2314C109.267 40.8498 109.03 41.5182 108.412 42.2276C108.013 42.6427 107.567 43.0104 107.084 43.3234C107.794 43.1569 108.486 42.9192 109.149 42.6141L109.262 42.5595C110.09 42.1594 111.031 41.7047 111.24 40.0677C111.243 39.8985 111.308 39.7362 111.423 39.612C111.538 39.4878 111.695 39.4104 111.863 39.3948C120.812 38.9628 122.153 33.6656 122.158 30.5418C122.158 27.9909 121.08 22.0434 111.008 21.9024L110.745 21.907Z" fill="#407BFF"/>
<path d="M108.398 30.9873L110.381 32.9698L114.86 29.3413" fill="white"/>
<path d="M110.38 33.4249C110.32 33.4253 110.261 33.4138 110.206 33.3912C110.15 33.3685 110.1 33.3352 110.057 33.293L108.075 31.3106C108.027 31.2698 107.989 31.2196 107.961 31.1632C107.934 31.1068 107.919 31.0454 107.916 30.9827C107.914 30.9201 107.924 30.8577 107.947 30.7993C107.97 30.741 108.005 30.688 108.049 30.6437C108.094 30.5994 108.147 30.5647 108.205 30.5418C108.263 30.519 108.326 30.5084 108.388 30.5108C108.451 30.5132 108.512 30.5286 108.569 30.5559C108.625 30.5832 108.675 30.6218 108.716 30.6694L110.412 32.3609L114.573 28.9916C114.618 28.9504 114.672 28.9189 114.73 28.8991C114.789 28.8793 114.851 28.8716 114.912 28.8764C114.973 28.8812 115.033 28.8984 115.088 28.927C115.142 28.9557 115.191 28.9951 115.229 29.0429C115.268 29.0907 115.297 29.1459 115.314 29.2052C115.331 29.2644 115.335 29.3265 115.328 29.3876C115.32 29.4487 115.3 29.5076 115.268 29.5607C115.237 29.6138 115.195 29.6599 115.146 29.6964L110.667 33.334C110.584 33.3959 110.483 33.4279 110.38 33.4249Z" fill="#407BFF"/>
<path d="M168.291 20.2037C168.409 20.2463 168.537 20.2493 168.657 20.2124C168.777 20.1755 168.881 20.1006 168.955 19.9991L172.401 15.1884C172.446 15.1278 172.478 15.0589 172.495 14.9858C172.513 14.9127 172.515 14.8369 172.503 14.7627C172.491 14.6886 172.464 14.6177 172.424 14.5541C172.383 14.4906 172.331 14.4357 172.269 14.3926C172.146 14.3053 171.994 14.2701 171.844 14.2948C171.695 14.3195 171.562 14.4021 171.474 14.5245L168.027 19.3352C167.983 19.3958 167.951 19.4647 167.933 19.5378C167.916 19.6109 167.913 19.6867 167.926 19.7609C167.938 19.835 167.965 19.9059 168.005 19.9695C168.045 20.033 168.097 20.0879 168.159 20.131C168.199 20.1613 168.244 20.1858 168.291 20.2037Z" fill="#407BFF"/>
<path d="M172.366 26.5379C172.459 26.572 172.56 26.5814 172.657 26.5652L178.373 25.6194C178.514 25.5857 178.637 25.4998 178.717 25.3791C178.797 25.2583 178.829 25.1117 178.805 24.9687C178.781 24.8258 178.704 24.697 178.59 24.6085C178.475 24.52 178.331 24.4783 178.187 24.4917L172.471 25.4375C172.347 25.459 172.234 25.5206 172.149 25.6128C172.063 25.705 172.011 25.8227 171.999 25.9478C171.987 26.0728 172.016 26.1984 172.083 26.305C172.149 26.4116 172.249 26.4935 172.366 26.5379Z" fill="#407BFF"/>
<path d="M154.806 22.5586C154.936 22.6042 155.077 22.6018 155.205 22.5521C155.333 22.5023 155.438 22.4083 155.503 22.2872C155.567 22.1662 155.586 22.026 155.556 21.8922C155.526 21.7585 155.448 21.64 155.338 21.5582L150.382 18.007C150.261 17.9421 150.121 17.9232 149.987 17.9536C149.853 17.9841 149.735 18.0619 149.654 18.1727C149.573 18.2835 149.535 18.4198 149.547 18.5565C149.559 18.6932 149.62 18.821 149.718 18.9164L154.674 22.4676C154.714 22.5044 154.758 22.535 154.806 22.5586Z" fill="#407BFF"/>
<path d="M175.348 37.2858C175.478 37.334 175.621 37.3335 175.75 37.2846C175.88 37.2356 175.987 37.1415 176.053 37.0195C176.118 36.8975 176.137 36.756 176.106 36.621C176.075 36.4861 175.997 36.3669 175.885 36.2854L171.224 32.9434C171.163 32.8995 171.094 32.8681 171.02 32.851C170.947 32.8338 170.871 32.8313 170.797 32.8436C170.722 32.8558 170.651 32.8826 170.587 32.9223C170.523 32.9621 170.468 33.014 170.424 33.0752C170.38 33.1364 170.349 33.2057 170.331 33.279C170.314 33.3524 170.312 33.4284 170.324 33.5027C170.336 33.577 170.363 33.6482 170.403 33.7121C170.443 33.7761 170.495 33.8316 170.556 33.8755L175.216 37.213C175.257 37.2424 175.302 37.2668 175.348 37.2858Z" fill="#407BFF"/>
<path d="M161.03 18.6435C161.124 18.6781 161.225 18.6875 161.324 18.6709C161.422 18.6542 161.515 18.6121 161.592 18.5487C161.669 18.4852 161.728 18.4027 161.764 18.3093C161.799 18.2158 161.81 18.1147 161.794 18.0161L160.807 12.0549C160.8 11.9766 160.777 11.9006 160.739 11.8317C160.701 11.7628 160.649 11.7025 160.587 11.6544C160.525 11.6064 160.453 11.5717 160.377 11.5525C160.301 11.5333 160.221 11.53 160.144 11.5428C160.066 11.5557 159.992 11.5843 159.926 11.6271C159.86 11.6698 159.803 11.7257 159.76 11.7912C159.716 11.8567 159.687 11.9305 159.673 12.008C159.659 12.0854 159.661 12.1649 159.68 12.2414L160.666 18.1888C160.68 18.2904 160.722 18.3863 160.786 18.4663C160.85 18.5464 160.934 18.6076 161.03 18.6435Z" fill="#407BFF"/>
<g opacity="0.5">
<path d="M168.291 20.2037C168.409 20.2463 168.537 20.2493 168.657 20.2124C168.777 20.1755 168.881 20.1006 168.955 19.9991L172.401 15.1884C172.446 15.1278 172.478 15.0589 172.495 14.9858C172.513 14.9127 172.515 14.8369 172.503 14.7627C172.491 14.6886 172.464 14.6177 172.424 14.5541C172.383 14.4906 172.331 14.4357 172.269 14.3926C172.146 14.3053 171.994 14.2701 171.844 14.2948C171.695 14.3195 171.562 14.4021 171.474 14.5245L168.027 19.3352C167.983 19.3958 167.951 19.4647 167.933 19.5378C167.916 19.6109 167.913 19.6867 167.926 19.7609C167.938 19.835 167.965 19.9059 168.005 19.9695C168.045 20.033 168.097 20.0879 168.159 20.131C168.199 20.1613 168.244 20.1858 168.291 20.2037Z" fill="white"/>
<path d="M172.366 26.5374C172.459 26.5715 172.56 26.5809 172.657 26.5647L178.373 25.6189C178.514 25.5852 178.637 25.4993 178.717 25.3786C178.797 25.2578 178.829 25.1112 178.805 24.9682C178.781 24.8253 178.704 24.6966 178.59 24.608C178.475 24.5195 178.331 24.4778 178.187 24.4912L172.471 25.437C172.347 25.4585 172.234 25.5201 172.149 25.6123C172.063 25.7045 172.011 25.8222 171.999 25.9473C171.987 26.0724 172.016 26.1979 172.083 26.3045C172.149 26.4111 172.249 26.493 172.366 26.5374Z" fill="white"/>
<path d="M154.806 22.5586C154.936 22.6042 155.077 22.6018 155.205 22.5521C155.333 22.5023 155.438 22.4083 155.503 22.2872C155.567 22.1662 155.586 22.026 155.556 21.8922C155.526 21.7585 155.448 21.64 155.338 21.5582L150.382 18.007C150.261 17.9421 150.121 17.9232 149.987 17.9536C149.853 17.9841 149.735 18.0619 149.654 18.1727C149.573 18.2835 149.535 18.4198 149.547 18.5565C149.559 18.6932 149.62 18.821 149.718 18.9164L154.674 22.4676C154.714 22.5044 154.758 22.535 154.806 22.5586Z" fill="white"/>
<path d="M175.348 37.2858C175.478 37.334 175.621 37.3335 175.75 37.2846C175.88 37.2356 175.987 37.1415 176.053 37.0195C176.118 36.8975 176.137 36.756 176.106 36.621C176.075 36.4861 175.997 36.3669 175.885 36.2854L171.224 32.9434C171.163 32.8995 171.094 32.8681 171.02 32.851C170.947 32.8338 170.871 32.8313 170.797 32.8436C170.722 32.8558 170.651 32.8826 170.587 32.9223C170.523 32.9621 170.468 33.014 170.424 33.0752C170.38 33.1364 170.349 33.2057 170.331 33.279C170.314 33.3524 170.312 33.4284 170.324 33.5027C170.336 33.577 170.363 33.6482 170.403 33.7121C170.443 33.7761 170.495 33.8316 170.556 33.8755L175.216 37.213C175.257 37.2424 175.302 37.2668 175.348 37.2858Z" fill="white"/>
<path d="M161.03 18.6435C161.124 18.6781 161.225 18.6875 161.324 18.6709C161.422 18.6542 161.515 18.6121 161.592 18.5487C161.669 18.4852 161.728 18.4027 161.764 18.3093C161.799 18.2158 161.81 18.1147 161.794 18.0161L160.807 12.0549C160.8 11.9766 160.777 11.9006 160.739 11.8317C160.701 11.7628 160.649 11.7025 160.587 11.6544C160.525 11.6064 160.453 11.5717 160.377 11.5525C160.301 11.5333 160.221 11.53 160.144 11.5428C160.066 11.5557 159.992 11.5843 159.926 11.6271C159.86 11.6698 159.803 11.7257 159.76 11.7912C159.716 11.8567 159.687 11.9305 159.673 12.008C159.659 12.0854 159.661 12.1649 159.68 12.2414L160.666 18.1888C160.68 18.2904 160.722 18.3863 160.786 18.4663C160.85 18.5464 160.934 18.6076 161.03 18.6435Z" fill="white"/>
</g>
<path d="M156.067 24.1866C157.311 22.649 159.098 21.647 161.059 21.3869C163.02 21.1269 165.006 21.6285 166.608 22.7886C168.211 23.9486 169.307 25.6788 169.672 27.623C170.037 29.5671 169.643 31.5773 168.571 33.2397C166.752 35.7451 163.538 35.9951 160.841 37.0682C160.005 37.4002 158.386 39.7282 158.386 39.7282L153.084 35.886C153.084 35.886 154.789 33.6125 154.844 32.7258C155.021 29.8294 154.253 26.692 156.067 24.1866Z" fill="#407BFF"/>
<path opacity="0.4" d="M156.067 24.1866C157.311 22.649 159.098 21.647 161.059 21.3869C163.02 21.1269 165.006 21.6285 166.608 22.7886C168.211 23.9486 169.307 25.6788 169.672 27.623C170.037 29.5671 169.643 31.5773 168.571 33.2397C166.752 35.7451 163.538 35.9951 160.841 37.0682C160.005 37.4002 158.386 39.7282 158.386 39.7282L153.084 35.886C153.084 35.886 154.789 33.6125 154.844 32.7258C155.021 29.8294 154.253 26.692 156.067 24.1866Z" fill="white"/>
<path d="M153.233 38.8642L155.507 40.5011C155.706 40.646 155.933 40.7501 156.173 40.8075C156.413 40.8649 156.662 40.8745 156.905 40.8356C157.149 40.7968 157.382 40.7103 157.593 40.5811C157.803 40.4519 157.986 40.2826 158.13 40.0828L152.824 36.2451C152.533 36.6474 152.413 37.1484 152.489 37.6389C152.566 38.1294 152.833 38.5698 153.233 38.8642Z" fill="#263238"/>
<path d="M153.231 41.2787C153.56 41.5163 153.969 41.6139 154.37 41.5499C154.771 41.486 155.13 41.2658 155.368 40.9377L152.89 39.1416C152.652 39.4704 152.555 39.88 152.619 40.2806C152.683 40.6813 152.903 41.0402 153.231 41.2787Z" fill="#263238"/>
<path opacity="0.5" d="M153.231 41.2787C153.56 41.5163 153.969 41.6139 154.37 41.5499C154.771 41.486 155.13 41.2658 155.368 40.9377L152.89 39.1416C152.652 39.4704 152.555 39.88 152.619 40.2806C152.683 40.6813 152.903 41.0402 153.231 41.2787Z" fill="white"/>
<g opacity="0.7">
<path d="M153.233 38.8642L155.507 40.5011C155.706 40.646 155.933 40.7501 156.173 40.8075C156.413 40.8649 156.662 40.8745 156.905 40.8356C157.149 40.7968 157.382 40.7103 157.593 40.5811C157.803 40.4519 157.986 40.2826 158.13 40.0828L152.824 36.2451C152.533 36.6474 152.413 37.1484 152.489 37.6389C152.566 38.1294 152.833 38.5698 153.233 38.8642Z" fill="white"/>
</g>
<path opacity="0.3" d="M157.646 23.5586C154.813 27.51 154.081 33.7576 157.132 35.9401C160.183 38.1227 166.226 34.8943 168.691 31.475C170.2 29.3697 168.954 25.8867 165.903 23.7041C162.852 21.5216 159.147 21.4534 157.646 23.5586Z" fill="white"/>
<path opacity="0.4" d="M156.828 28.7964C156.323 29.4999 156.038 30.3376 156.008 31.2034C155.979 32.0691 156.207 32.9241 156.664 33.6601C157.121 34.3962 157.786 34.9801 158.575 35.3382C159.364 35.6962 160.241 35.8123 161.096 35.6716C161.95 35.531 162.744 35.1399 163.377 34.548C164.009 33.9561 164.452 33.1898 164.649 32.3462C164.846 31.5026 164.788 30.6196 164.483 29.8088C164.178 28.9981 163.639 28.296 162.935 27.7915C161.992 27.1157 160.819 26.8419 159.674 27.0303C158.529 27.2187 157.505 27.8539 156.828 28.7964Z" fill="white"/>
<path opacity="0.4" d="M157.273 30.4662C156.282 31.8303 157.1 33.0671 158.483 34.0583C159.865 35.0496 161.279 35.4224 162.27 34.0583C163.262 32.6942 162.425 31.4756 161.047 30.4844C159.67 29.4931 158.26 29.1021 157.273 30.4662Z" fill="white"/>
<path d="M48.4961 40.1277L50.0466 41.419L59.0133 33.7573L70.4627 36.0717L79.1884 27.8416L79.9705 28.9147L82.0393 24.2495L76.9649 24.7906L77.747 25.8637L70.0898 34.3439L58.6268 32.1158L48.4961 40.1277Z" fill="#407BFF"/>
<g opacity="0.3">
<path d="M48.4961 40.1277L50.0466 41.419L59.0133 33.7573L70.4627 36.0717L79.1884 27.8416L79.9705 28.9147L82.0393 24.2495L76.9649 24.7906L77.747 25.8637L70.0898 34.3439L58.6268 32.1158L48.4961 40.1277Z" fill="white"/>
</g>
<path d="M133.273 107.182C133.537 111.301 132.519 116.603 131.546 120.555C130.741 123.819 130.182 124.72 129.968 126.166C129.736 127.812 130.236 130.258 130.109 132.327C129.622 140.511 126.294 157.062 126.294 157.062L123.502 156.885L123.575 124.842L125.394 93.7954L136.411 96.7328C137.511 102.762 133.273 107.182 133.273 107.182Z" fill="#DD8C6A"/>
<path d="M147.449 157.631L144.912 157.558L137.869 126.275L130.748 96.0056L142.166 95.6646C144.894 101.121 142.125 106.577 142.125 106.577C143.548 110.456 144.089 115.826 144.284 119.896C144.448 123.251 144.153 124.279 144.371 125.72C144.626 127.366 145.426 129.553 145.903 131.586C147.777 139.652 147.449 157.631 147.449 157.631Z" fill="#DD8C6A"/>
<path d="M110.265 68.0183L111.592 69.7644C112.916 70.1736 112.888 72.1424 112.888 72.1424C113.175 72.3653 115.867 74.0658 116.494 74.616L114.907 76.3257C114.22 75.2753 111.833 73.4975 111.833 73.4975C111.833 73.4975 108.587 71.5104 108.055 70.8011C107.523 70.0917 108.409 67.9819 108.409 67.9819L110.265 68.0183Z" fill="#DD8C6A"/>
<path d="M113.94 72.3201C116.118 73.907 119.333 76.3397 119.333 76.3397C121.045 74.448 122.85 72.6436 124.744 70.9333C125.917 69.8194 127.26 68.8986 128.722 68.2051L128.163 74.7482C126.44 76.2305 121.038 80.7139 118.928 80.532C117.186 80.382 113.954 76.6489 112.107 74.339L113.94 72.3201Z" fill="#263238"/>
<path opacity="0.2" d="M122.836 78.8044C123.986 76.8628 127.142 71.7656 127.142 71.7656L127.897 73.4798L127.387 75.3623C126.587 76.0353 123.991 77.9632 122.836 78.8044Z" fill="black"/>
<path d="M143.552 71.5151C143.09 77.5069 142.23 83.4614 140.978 89.3393C140.978 89.3393 147.64 94.7957 145.48 117.208C145.48 117.208 138.741 120.191 122.836 116.644L125.86 89.2393C125.86 89.2393 125.159 71.4287 127.051 69.4417C128.724 67.6774 136.022 65.3494 141.601 68.1139C142.228 68.4229 142.748 68.9115 143.095 69.5172C143.442 70.123 143.602 70.8185 143.552 71.5151Z" fill="#407BFF"/>
<path opacity="0.4" d="M143.552 71.5151C143.09 77.5069 142.23 83.4614 140.978 89.3393C140.978 89.3393 147.64 94.7957 145.48 117.208C145.48 117.208 138.741 120.191 122.836 116.644L125.86 89.2393C125.86 89.2393 125.159 71.4287 127.051 69.4417C128.724 67.6774 136.022 65.3494 141.601 68.1139C142.228 68.4229 142.748 68.9115 143.095 69.5172C143.442 70.123 143.602 70.8185 143.552 71.5151Z" fill="black"/>
<path opacity="0.3" d="M135.809 88.7397C135.809 88.7397 130.93 89.5855 127.502 88.7397V90.8314C127.502 90.8314 130.053 91.1997 135.809 90.8314V88.7397Z" fill="black"/>
<path d="M138.648 60.4756C138.003 62.2944 137.162 65.5455 137.853 67.4143C137.935 67.6315 137.941 67.8702 137.869 68.091C137.797 68.3118 137.652 68.5014 137.457 68.6284C136.052 69.6423 133.765 70.4472 132.046 70.2789C129.841 70.0379 130.414 68.4601 130.978 67.6189C131.128 67.3916 131.364 67.0687 131.632 67.0187C133.801 66.6504 134.215 65.0226 134.047 63.3811L138.648 60.4756Z" fill="#DD8C6A"/>
<path opacity="0.3" d="M136.777 61.6621L134.049 63.3672C134.085 63.7696 134.085 64.1744 134.049 64.5767C134.596 64.5602 135.13 64.4103 135.605 64.14C136.081 63.8698 136.483 63.4874 136.777 63.0262C137.095 62.4487 137 61.7667 136.777 61.6621Z" fill="black"/>
<path d="M131.488 61.4067L130.256 63.6211C130.638 63.653 130.983 63.7803 131.365 63.8121C131.556 63.512 131.784 63.2164 131.975 62.9027C131.902 63.2119 131.652 63.5438 131.574 63.8485C132.253 63.9732 132.94 64.0386 133.63 64.044C133.664 63.9423 133.678 63.8345 133.669 63.7274C133.661 63.6202 133.63 63.516 133.58 63.4211C133.214 62.5987 132.57 61.9319 131.761 61.5386L131.488 61.4067Z" fill="#263238"/>
<path d="M139.507 57.4881C138.711 60.3209 138.388 62.0351 136.619 63.181C133.959 64.927 130.708 62.84 130.631 59.8298C130.572 57.1016 131.886 52.9366 134.941 52.4046C135.987 52.2191 137.063 52.455 137.934 53.0609C138.806 53.6667 139.403 54.5932 139.593 55.6375C139.706 56.2529 139.676 56.886 139.507 57.4881Z" fill="#DD8C6A"/>
<path d="M132.864 57.4883C132.522 58.022 132.109 58.5069 131.637 58.9297C131.749 59.047 131.885 59.1389 132.035 59.1993C132.186 59.2597 132.348 59.2871 132.51 59.2798L132.864 57.4883Z" fill="#FF5652"/>
<path d="M135.979 56.4464C136.001 56.4509 136.025 56.4509 136.047 56.4464C136.08 56.4297 136.105 56.4012 136.118 56.3666C136.131 56.332 136.13 56.2939 136.115 56.26C136.026 56.0557 135.888 55.8757 135.715 55.735C135.542 55.5942 135.338 55.4968 135.12 55.4506C135.083 55.4454 135.045 55.4549 135.016 55.477C134.986 55.4992 134.966 55.5322 134.96 55.5688C134.955 55.6056 134.965 55.6429 134.987 55.6727C135.009 55.7025 135.042 55.7224 135.079 55.728C135.251 55.7675 135.411 55.847 135.547 55.9599C135.683 56.0729 135.79 56.2161 135.861 56.3782C135.873 56.399 135.89 56.4162 135.911 56.4282C135.931 56.4401 135.955 56.4464 135.979 56.4464Z" fill="#263238"/>
<path d="M131.509 55.1095C131.53 55.122 131.553 55.1285 131.577 55.1285C131.601 55.1285 131.625 55.122 131.646 55.1095C131.795 55.0179 131.964 54.9631 132.139 54.9496C132.313 54.9362 132.489 54.9645 132.651 55.0322C132.684 55.0481 132.722 55.0503 132.757 55.0384C132.792 55.0265 132.82 55.0014 132.837 54.9686C132.846 54.9525 132.851 54.9349 132.853 54.9167C132.854 54.8985 132.852 54.8802 132.847 54.8629C132.841 54.8455 132.832 54.8294 132.82 54.8155C132.809 54.8017 132.794 54.7903 132.778 54.7821C132.573 54.6928 132.35 54.6537 132.127 54.6679C131.904 54.6821 131.687 54.7494 131.496 54.864C131.48 54.8725 131.466 54.8842 131.454 54.8982C131.443 54.9123 131.434 54.9284 131.429 54.9458C131.424 54.9631 131.423 54.9813 131.425 54.9993C131.427 55.0172 131.432 55.0346 131.441 55.0504C131.458 55.076 131.482 55.0964 131.509 55.1095Z" fill="#263238"/>
<path d="M137.75 66.4868L134.567 68.9513C134.432 69.0567 134.274 69.1295 134.105 69.1637C133.937 69.198 133.763 69.193 133.597 69.1489C133.431 69.1049 133.278 69.0231 133.149 68.91C133.019 68.7968 132.918 68.6553 132.853 68.4966L132.13 66.8415L131.284 67.0597C131.187 67.0828 131.099 67.1325 131.029 67.2032C130.959 67.274 130.91 67.3629 130.889 67.4599C130.72 68.2374 130.102 70.1381 130.138 71.8432C130.138 71.8432 132.089 69.2332 133.189 71.1111C133.189 71.1111 134.626 69.4151 135.786 72.3479C136.528 71.2813 137.185 70.1578 137.75 68.9877C138.346 67.5963 138.746 66.8415 138.746 66.8415L137.75 66.4868Z" fill="white"/>
<path d="M138.131 66.6279C136.737 72.6491 135.787 78.7647 135.29 84.9251C134.648 94.1464 134.517 96.9337 138.163 96.5336C141.81 96.1334 144.797 95.6742 144.265 94.3465C143.733 93.0187 141.746 90.0314 141.869 88.5081C141.992 86.9849 143.26 75.1126 143.406 73.3166C143.552 71.5205 144.634 67.751 138.131 66.6279Z" fill="#263238"/>
<path d="M138.752 91.7399C138.706 91.4944 139.579 90.6077 140.571 89.9893C141.231 89.5951 141.932 89.2735 142.662 89.0299C142.662 89.0299 144.699 86.6336 145.263 85.9834L146.836 87.3475C145.811 88.2912 144.836 89.2868 143.913 90.3303L143.067 92.1173C142.763 92.5485 142.354 92.8957 141.88 93.1267C141.347 93.3743 140.791 93.5707 140.22 93.7133C140.111 93.7423 139.995 93.7354 139.889 93.6937C139.784 93.6519 139.694 93.5776 139.634 93.4814C139.254 92.9484 138.957 92.3614 138.752 91.7399Z" fill="#DD8C6A"/>
<path d="M131.73 66.9365C131.73 66.9365 128.743 72.5566 128.547 81.9416C128.352 91.3267 128.761 96.3011 127.024 96.5875C125.287 96.874 124.9 95.6781 124.9 95.6781C124.9 95.6781 125.414 90.5855 125.414 89.3442C125.414 88.1028 124.869 80.5866 125.414 75.2166C125.96 69.8466 125.414 70.174 126.324 69.5738C127.233 68.9736 129.293 67.4321 131.73 66.9365Z" fill="#263238"/>
<path opacity="0.2" d="M142.389 83.4326L140.598 73.1519C140.598 73.1519 142.075 74.6569 143.171 75.8118C142.962 77.9126 142.653 80.8772 142.389 83.4326Z" fill="black"/>
<path d="M141.575 67.8052C141.575 67.8052 140.361 70.9017 140.597 73.1525C140.697 74.1073 147.481 81.3825 147.481 81.3825L142.366 88.1667L145.003 90.4402C145.003 90.4402 152.278 83.2377 152.337 81.287C152.396 79.3364 144.307 68.6282 141.575 67.8052Z" fill="#263238"/>
<path d="M134.944 57.1517C134.899 57.3881 134.735 57.5518 134.58 57.5245C134.426 57.4972 134.335 57.279 134.385 57.038C134.435 56.797 134.594 56.6379 134.749 56.6651C134.903 56.6924 134.99 56.9107 134.944 57.1517Z" fill="#263238"/>
<path d="M132.267 56.624C132.221 56.8605 132.058 57.0287 131.903 56.9969C131.748 56.9651 131.662 56.7513 131.707 56.5149C131.753 56.2785 131.917 56.1102 132.071 56.1421C132.226 56.1739 132.317 56.383 132.267 56.624Z" fill="#263238"/>
<path d="M132.138 56.1644L131.602 55.8916C131.602 55.8916 131.811 56.3827 132.138 56.1644Z" fill="#263238"/>
<path d="M134.816 56.6918L134.279 56.4189C134.279 56.4189 134.488 56.9191 134.816 56.6918Z" fill="#263238"/>
<path d="M133.288 60.5976C133.136 60.6096 132.984 60.6096 132.833 60.5976C132.823 60.5977 132.812 60.5955 132.803 60.5913C132.794 60.5871 132.785 60.5809 132.778 60.5732C132.771 60.5654 132.766 60.5563 132.763 60.5464C132.76 60.5365 132.759 60.526 132.76 60.5157C132.761 60.496 132.77 60.4775 132.785 60.464C132.799 60.4505 132.818 60.4429 132.838 60.443C133.164 60.4713 133.493 60.4232 133.797 60.3024C134.102 60.1817 134.374 59.9916 134.593 59.7473C134.6 59.7395 134.608 59.7333 134.617 59.7291C134.627 59.7249 134.637 59.7227 134.647 59.7227C134.658 59.7227 134.668 59.7249 134.677 59.7291C134.687 59.7333 134.695 59.7395 134.702 59.7473C134.716 59.7618 134.724 59.7814 134.724 59.8019C134.724 59.8223 134.716 59.8419 134.702 59.8564C134.341 60.2736 133.836 60.5384 133.288 60.5976Z" fill="#263238"/>
<path d="M137.818 51.9502C139.214 55.9423 139.015 60.3188 137.264 64.168C137.659 64.0498 138.082 63.9588 138.473 63.8452C138.664 63.3404 138.814 62.8221 139.005 62.3219C138.942 62.7766 138.819 63.3404 138.755 63.8179L139.824 63.6224C140.01 63.1358 140.165 62.5902 140.351 62.1037C140.269 62.5356 140.178 63.1404 140.092 63.5723C141.331 62.7274 142.206 61.4464 142.543 59.9848C142.887 58.3667 142.675 56.6799 141.943 55.1968C141.06 53.6553 139.519 53.0233 137.818 51.9502Z" fill="#263238"/>
<path d="M140.504 59.8064C140.285 60.5161 139.794 61.1107 139.14 61.4616C138.271 61.9163 137.63 61.1978 137.698 60.2702C137.753 59.4381 138.276 58.1923 139.231 58.1104C139.442 58.0936 139.653 58.1304 139.846 58.2174C140.039 58.3044 140.207 58.4388 140.334 58.608C140.461 58.7772 140.543 58.9759 140.573 59.1854C140.603 59.3949 140.579 59.6086 140.504 59.8064Z" fill="#DD8C6A"/>
<path d="M131.75 74.0436C131.611 74.0427 131.474 74.0101 131.349 73.9481C131.208 73.8772 131.084 73.7741 130.99 73.6469C130.895 73.5198 130.831 73.3722 130.804 73.216C130.777 72.9514 130.828 72.6848 130.951 72.4489C131.074 72.213 131.263 72.0181 131.495 71.8883C131.904 71.652 132.355 71.4975 132.823 71.4336H132.877H133.246C133.305 71.4371 133.36 71.463 133.401 71.5062C133.441 71.5493 133.464 71.6063 133.464 71.6655C133.463 71.7242 133.439 71.7802 133.397 71.8218C133.356 71.8633 133.3 71.8871 133.241 71.8883C133.018 71.8883 132.75 72.343 132.695 72.7113V72.7659C132.696 72.9907 132.643 73.2124 132.543 73.4136C132.443 73.6149 132.297 73.79 132.118 73.9254C132.007 73.9953 131.88 74.036 131.75 74.0436ZM132.509 71.9792C132.237 72.0293 131.977 72.1279 131.74 72.2702C131.586 72.3579 131.459 72.486 131.373 72.6407C131.286 72.7953 131.244 72.9707 131.249 73.1478C131.267 73.232 131.303 73.3111 131.356 73.3789C131.409 73.4467 131.477 73.5015 131.554 73.5389C131.606 73.5667 131.664 73.5813 131.722 73.5813C131.781 73.5813 131.839 73.5667 131.891 73.5389C132.127 73.4161 132.182 73.0569 132.236 72.7113V72.6567C132.282 72.4153 132.375 72.1852 132.509 71.9792Z" fill="white"/>
<path d="M134.528 74.193C134.374 74.1933 134.224 74.1474 134.096 74.0612C133.93 73.9093 133.802 73.72 133.723 73.5089C133.644 73.2978 133.616 73.071 133.642 72.8471V72.7925C133.642 72.4333 133.405 71.9468 133.187 71.915C133.129 71.9081 133.075 71.8785 133.039 71.8325C133.002 71.7865 132.985 71.7279 132.992 71.6694C132.996 71.6111 133.024 71.557 133.068 71.5187C133.112 71.4804 133.17 71.4611 133.228 71.4648H133.596H133.651C134.11 71.5757 134.544 71.7733 134.929 72.0468C135.144 72.2011 135.31 72.4148 135.406 72.6619C135.502 72.909 135.524 73.1788 135.47 73.4382C135.427 73.5914 135.348 73.7321 135.24 73.8485C135.131 73.9648 134.997 74.0534 134.847 74.1066C134.747 74.1553 134.639 74.1846 134.528 74.193ZM133.91 72.0514C134.018 72.2766 134.081 72.5206 134.096 72.7698V72.8289C134.096 73.1745 134.133 73.5337 134.351 73.6883C134.401 73.7183 134.458 73.7359 134.517 73.7399C134.575 73.7438 134.634 73.734 134.688 73.711C134.769 73.6817 134.842 73.634 134.902 73.5717C134.962 73.5094 135.007 73.4342 135.033 73.3518C135.057 73.179 135.033 73.003 134.964 72.8428C134.895 72.6826 134.784 72.5441 134.642 72.4424C134.422 72.2719 134.174 72.1397 133.91 72.0514Z" fill="white"/>
<path d="M131.86 76.4985C131.836 76.5033 131.812 76.5033 131.788 76.4985C131.73 76.4798 131.683 76.4391 131.656 76.3854C131.628 76.3317 131.623 76.2694 131.642 76.2121C132.095 74.8062 132.399 73.357 132.551 71.8879C132.557 71.8276 132.587 71.7722 132.634 71.7338C132.681 71.6954 132.741 71.6772 132.802 71.6833C132.862 71.6893 132.917 71.719 132.956 71.7659C132.994 71.8128 133.012 71.8731 133.006 71.9333C132.856 73.4339 132.551 74.915 132.097 76.353C132.079 76.4 132.046 76.4398 132.003 76.4661C131.961 76.4924 131.91 76.5038 131.86 76.4985Z" fill="white"/>
<path d="M133.681 77.6313C133.636 77.6311 133.593 77.6176 133.555 77.5925C133.518 77.5674 133.489 77.5319 133.472 77.4903C133.295 77.0341 133.195 76.5516 133.177 76.0626C133.176 75.5659 133.217 75.07 133.299 74.5803C133.336 74.3347 133.372 74.0892 133.395 73.8436C133.51 73.1637 133.386 72.4648 133.045 71.8657C133.028 71.8409 133.016 71.8131 133.01 71.7838C133.004 71.7545 133.004 71.7243 133.01 71.695C133.016 71.6656 133.027 71.6377 133.044 71.6128C133.06 71.5878 133.081 71.5664 133.106 71.5497C133.131 71.533 133.159 71.5213 133.188 71.5153C133.217 71.5094 133.248 71.5092 133.277 71.5149C133.306 71.5206 133.334 71.532 133.359 71.5485C133.384 71.565 133.405 71.5863 133.422 71.6111C133.824 72.2962 133.974 73.1006 133.845 73.8846C133.822 74.1392 133.786 74.3938 133.75 74.6439C133.671 75.1065 133.631 75.5751 133.631 76.0444C133.648 76.482 133.737 76.9137 133.895 77.3221C133.916 77.3783 133.915 77.4404 133.891 77.4956C133.867 77.5507 133.823 77.5944 133.768 77.6177C133.74 77.627 133.711 77.6316 133.681 77.6313Z" fill="white"/>
<path d="M137.598 57.1655C137.352 56.9427 137.007 56.6653 136.761 56.438C136.877 55.9437 136.917 55.4347 136.879 54.9284C136.766 55.3285 136.729 55.7377 136.616 56.1379L135.779 55.5831C135.58 55.4198 135.335 55.3214 135.079 55.3012C135.124 54.8874 135.142 54.4646 135.192 54.0508C135.097 54.4191 134.988 54.8283 134.897 55.1966C134.569 55.1512 134.192 55.0739 133.869 55.0284C133.906 54.5737 133.96 54.1554 134.001 53.7143C133.86 54.0599 133.76 54.651 133.619 54.9966L133.524 54.8647C132.593 54.6368 131.628 54.5828 130.677 54.7056C130.359 53.4551 130.741 51.6863 131.969 51.2817C136.129 49.8948 139.535 53.1414 139.63 53.4097C140.253 55.1239 139.103 56.2606 137.598 57.1655Z" fill="#263238"/>
<path d="M139.137 60.6568C139.137 60.7351 139.114 60.8115 139.07 60.8766C139.027 60.9417 138.965 60.9924 138.893 61.0223C138.82 61.0522 138.741 61.0601 138.664 61.0448C138.587 61.0295 138.517 60.9919 138.462 60.9365C138.406 60.8812 138.369 60.8107 138.353 60.734C138.338 60.6573 138.346 60.5777 138.376 60.5054C138.406 60.4331 138.456 60.3714 138.522 60.3279C138.587 60.2844 138.663 60.2612 138.741 60.2612C138.846 60.2612 138.947 60.3029 139.021 60.3771C139.095 60.4513 139.137 60.5519 139.137 60.6568Z" fill="#407BFF"/>
<path d="M122.549 156.317C120.353 157.522 120.108 157.545 117.684 158.004C117.152 158.104 117.338 159.368 118.593 159.395C120.644 159.459 120.471 159.395 122.231 159.432C123.722 159.468 125.519 159.595 126.705 159.645H126.746C126.876 159.636 126.996 159.576 127.082 159.478C127.167 159.38 127.21 159.252 127.201 159.123L126.942 156.422C126.934 156.364 126.907 156.312 126.865 156.273C126.822 156.234 126.767 156.211 126.71 156.208L123.327 156.112C123.054 156.109 122.785 156.18 122.549 156.317Z" fill="#263238"/>
<path d="M122.563 156.521C122.569 156.51 122.573 156.498 122.573 156.485C122.573 156.472 122.569 156.46 122.563 156.449C122.552 156.441 122.538 156.437 122.524 156.437C122.511 156.437 122.497 156.441 122.486 156.449C122.34 156.499 121.076 156.999 120.981 157.403C120.972 157.442 120.973 157.482 120.983 157.52C120.993 157.558 121.013 157.593 121.04 157.622C121.084 157.669 121.138 157.706 121.199 157.729C121.26 157.752 121.325 157.76 121.39 157.754C121.845 157.704 122.322 156.981 122.572 156.553L122.563 156.521ZM121.112 157.39C121.203 157.167 121.835 156.849 122.322 156.64C121.963 157.212 121.604 157.549 121.358 157.59C121.315 157.596 121.272 157.591 121.232 157.575C121.192 157.559 121.157 157.533 121.131 157.499C121.119 157.49 121.109 157.477 121.105 157.462C121.1 157.448 121.099 157.432 121.103 157.417L121.112 157.39Z" fill="#407BFF"/>
<path d="M122.563 156.522C122.566 156.509 122.565 156.495 122.56 156.483C122.555 156.471 122.547 156.461 122.536 156.453C122.198 156.189 121.786 156.038 121.358 156.021C121.286 156.03 121.218 156.054 121.156 156.091C121.094 156.128 121.041 156.177 120.999 156.235C120.885 156.394 120.917 156.503 120.971 156.567C121.194 156.844 122.158 156.735 122.522 156.567C122.532 156.564 122.541 156.558 122.548 156.55C122.555 156.542 122.56 156.532 122.563 156.522ZM121.08 156.372L121.13 156.317C121.16 156.274 121.199 156.238 121.243 156.21C121.288 156.183 121.338 156.165 121.39 156.158C121.737 156.166 122.073 156.281 122.354 156.485C121.935 156.613 121.226 156.635 121.094 156.485C121.094 156.485 121.062 156.449 121.094 156.394L121.08 156.372Z" fill="#407BFF"/>
<path d="M143.737 156.53C142.496 157.546 141.041 158.266 139.481 158.636C138.835 158.818 139.24 160 140.786 160C143.346 159.959 142.327 159.918 144.514 159.868C146.383 159.832 146.879 159.818 148.361 159.809H148.411C148.486 159.807 148.56 159.79 148.628 159.759C148.697 159.729 148.758 159.684 148.809 159.629C148.86 159.574 148.899 159.509 148.925 159.438C148.95 159.368 148.961 159.293 148.957 159.218L148.461 156.317C148.445 156.251 148.406 156.192 148.351 156.152C148.296 156.112 148.229 156.093 148.161 156.098L144.255 156.203C143.914 156.162 144 156.344 143.737 156.53Z" fill="#263238"/>
<path d="M143.717 156.757C143.726 156.746 143.731 156.731 143.731 156.717C143.731 156.702 143.726 156.687 143.717 156.676C143.711 156.661 143.701 156.648 143.689 156.638C143.676 156.628 143.66 156.623 143.644 156.621C143.449 156.621 141.753 156.676 141.485 157.076C141.462 157.112 141.449 157.154 141.449 157.196C141.449 157.239 141.462 157.281 141.485 157.317C141.521 157.384 141.573 157.442 141.635 157.487C141.697 157.532 141.768 157.562 141.844 157.576C142.38 157.685 143.253 157.121 143.735 156.771L143.717 156.757ZM141.644 157.121C141.839 156.921 142.717 156.821 143.376 156.789C142.712 157.244 142.144 157.467 141.848 157.417C141.799 157.408 141.752 157.388 141.712 157.358C141.671 157.328 141.639 157.289 141.616 157.244C141.606 157.23 141.601 157.213 141.601 157.196C141.601 157.179 141.606 157.162 141.616 157.149L141.644 157.121Z" fill="#407BFF"/>
<path d="M143.72 156.758C143.727 156.747 143.732 156.733 143.732 156.719C143.732 156.705 143.727 156.692 143.72 156.681C143.688 156.658 143.119 155.917 142.51 155.821C142.335 155.788 142.154 155.821 142.001 155.912C141.796 156.035 141.792 156.158 141.828 156.24C141.973 156.594 143.156 156.835 143.647 156.803C143.662 156.802 143.676 156.797 143.689 156.789C143.701 156.781 143.712 156.771 143.72 156.758ZM142.033 156.071L142.092 156.012C142.204 155.946 142.337 155.923 142.465 155.949C142.858 156.068 143.206 156.303 143.465 156.622C142.915 156.599 142.074 156.376 141.987 156.167C141.987 156.167 141.987 156.117 142.046 156.067L142.033 156.071Z" fill="#407BFF"/>
<path d="M103.7 84.7053C103.059 85.9694 105.192 87.5199 105.192 87.5199L106.201 88.5521C106.367 88.7322 106.593 88.8449 106.836 88.8684C107.079 88.8919 107.323 88.8246 107.52 88.6794L108.516 87.9701L108.547 87.9473C108.752 87.791 108.888 87.5613 108.926 87.3067C108.964 87.0521 108.902 86.7927 108.752 86.5832L108.084 85.6738C107.813 85.3015 107.466 84.9914 107.065 84.7644L105.151 83.6641L103.7 84.7053Z" fill="#FFC3BD"/>
<path d="M95.3842 57.0098C95.6257 56.4768 96.0186 56.0266 96.514 55.7152C97.0094 55.4038 97.5855 55.245 98.1705 55.2586C98.7554 55.2722 99.3235 55.4575 99.804 55.7915C100.284 56.1255 100.656 56.5935 100.872 57.1371L100.936 57.2963C101.329 58.408 101.484 59.5901 101.391 60.7656C101.364 61.9251 101.327 63.1028 101.345 64.2259C101.364 65.349 101.345 69.4049 101.382 70.5053C101.418 71.5238 103.478 76.13 105.474 82.7822C105.515 82.9101 105.565 83.0348 105.624 83.1551L105.992 83.8871C105.992 83.8871 105.442 84.2373 104.878 84.5737C104.422 84.9171 103.922 85.1984 103.392 85.4104C103.095 85.1417 102.85 84.8212 102.669 84.4646C101.077 81.9547 95.8799 72.6424 95.607 71.2783C95.3388 70.0142 95.1523 65.8219 95.0341 64.5487C94.9159 63.2756 94.825 62.0342 94.7886 60.7793C94.7606 60.1493 94.7849 59.5182 94.8613 58.8923C94.9417 58.2409 95.1179 57.605 95.3842 57.0052V57.0098Z" fill="#263238"/>
<path opacity="0.3" d="M95.3842 57.0098C95.6257 56.4768 96.0186 56.0266 96.514 55.7152C97.0094 55.4038 97.5855 55.245 98.1705 55.2586C98.7554 55.2722 99.3235 55.4575 99.804 55.7915C100.284 56.1255 100.656 56.5935 100.872 57.1371L100.936 57.2963C101.329 58.408 101.484 59.5901 101.391 60.7656C101.364 61.9251 101.327 63.1028 101.345 64.2259C101.364 65.349 101.345 69.4049 101.382 70.5053C101.418 71.5238 103.478 76.13 105.474 82.7822C105.515 82.9101 105.565 83.0348 105.624 83.1551L105.992 83.8871C105.992 83.8871 105.442 84.2373 104.878 84.5737C104.422 84.9171 103.922 85.1984 103.392 85.4104C103.095 85.1417 102.85 84.8212 102.669 84.4646C101.077 81.9547 95.8799 72.6424 95.607 71.2783C95.3388 70.0142 95.1523 65.8219 95.0341 64.5487C94.9159 63.2756 94.825 62.0342 94.7886 60.7793C94.7606 60.1493 94.7849 59.5182 94.8613 58.8923C94.9417 58.2409 95.1179 57.605 95.3842 57.0052V57.0098Z" fill="black"/>
<path d="M79.0546 58.5785C79.8321 67.536 82.8058 72.5832 82.4057 79.7402C82.4057 79.7402 98.5476 80.0585 99.1023 80.0585C99.3388 66.8722 101.221 67.8771 100.644 59.5288C100.744 56.8006 99.1842 55.0954 97.6063 54.8226L90.7313 53.3994L81.8692 54.9227C81.0264 55.0667 80.2688 55.5229 79.7472 56.2003C79.2256 56.8778 78.9783 57.7269 79.0546 58.5785Z" fill="#407BFF"/>
<path d="M91.7324 140.593L93.824 157.121L97.8982 156.83L96.7978 140.593H91.7324Z" fill="#FFC3BD"/>
<path d="M98.8907 123.092C99.259 138.679 98.3587 152.038 98.3587 152.038L92.8613 152.411C92.8613 152.411 89.7648 132.186 91.0152 123.924C90.9561 122.187 88.9464 100.466 88.2552 96.3599C87.0048 88.9892 85.668 83.9329 85.668 83.9329L98.6042 83.21C98.6042 83.21 98.6633 113.279 98.8907 123.092Z" fill="#407BFF"/>
<g opacity="0.2">
<path d="M91.5115 89.5977C91.5115 89.5977 91.0932 106.672 90.3475 116.034C89.961 110.973 88.947 100.465 88.2559 96.3591L91.5115 89.5977Z" fill="black"/>
</g>
<path d="M74.5255 140.897L72.8477 156.562L76.9081 156.121L79.8546 140.702L74.5255 140.897Z" fill="#FFC3BD"/>
<path d="M72.3359 151.983L78.5699 151.755C78.5699 151.755 83.8808 132.617 86.1225 122.504C88.2959 111.232 92.3518 83.1001 92.3518 83.1001L81.9892 82.2998C76.4692 92.2714 78.4562 116.143 77.4786 122.827C72.7952 131.18 72.3359 151.983 72.3359 151.983Z" fill="#407BFF"/>
<path d="M98.5 78.208H83.3266C83.3266 78.208 80.8348 86.9883 80.8576 86.9019C80.8803 86.8155 98.6636 87.7567 98.6636 87.7567L98.5 78.208Z" fill="#407BFF"/>
<path d="M98.6659 155.507C101.358 156.871 101.653 156.898 104.577 157.362C105.223 157.467 105.032 158.995 103.545 159.076C101.076 159.226 101.271 159.126 99.1751 159.245C97.3791 159.345 94.7782 159.558 93.3459 159.663H93.3004C93.2222 159.661 93.1452 159.643 93.0738 159.611C93.0024 159.579 92.9381 159.533 92.8845 159.476C92.8308 159.419 92.789 159.352 92.7613 159.278C92.7335 159.205 92.7205 159.127 92.7229 159.049L92.9412 155.78C92.9476 155.71 92.9787 155.646 93.0287 155.597C93.0788 155.549 93.1445 155.52 93.214 155.516L97.7292 155.284C98.0564 155.267 98.3816 155.344 98.6659 155.507Z" fill="#263238"/>
<path d="M98.6632 155.744C98.9815 156.253 99.5999 157.108 100.132 157.149C100.21 157.155 100.289 157.143 100.362 157.113C100.435 157.083 100.499 157.036 100.55 156.976C100.583 156.941 100.605 156.898 100.617 156.852C100.628 156.806 100.627 156.758 100.614 156.712C100.482 156.226 98.9406 155.671 98.7678 155.616C98.7508 155.609 98.7321 155.608 98.7143 155.612C98.6964 155.616 98.6802 155.626 98.6678 155.639C98.6602 155.653 98.6563 155.669 98.6562 155.684C98.6562 155.7 98.6602 155.716 98.6678 155.73L98.6632 155.744ZM100.45 156.758C100.455 156.775 100.455 156.794 100.45 156.811C100.445 156.829 100.436 156.845 100.423 156.858C100.392 156.899 100.35 156.932 100.302 156.952C100.254 156.972 100.202 156.978 100.15 156.971C99.85 156.948 99.4089 156.517 98.9497 155.862C99.5499 156.094 100.314 156.457 100.441 156.721L100.45 156.758Z" fill="#407BFF"/>
<path d="M98.6656 155.78C99.1203 155.962 100.28 156.058 100.539 155.717C100.598 155.639 100.639 155.503 100.493 155.316C100.438 155.247 100.369 155.19 100.291 155.147C100.213 155.105 100.127 155.079 100.039 155.071C99.4431 154.998 98.6747 155.608 98.6337 155.63C98.6226 155.641 98.6139 155.653 98.6084 155.667C98.6028 155.682 98.6006 155.697 98.6019 155.712C98.6019 155.729 98.6084 155.746 98.6203 155.759C98.6321 155.771 98.6483 155.779 98.6656 155.78ZM100.403 155.503C100.414 155.52 100.42 155.539 100.42 155.56C100.42 155.58 100.414 155.6 100.403 155.617C100.248 155.817 99.3931 155.817 98.8838 155.676C99.2154 155.42 99.6164 155.271 100.034 155.248C100.097 155.255 100.158 155.274 100.213 155.306C100.267 155.337 100.315 155.379 100.353 155.43L100.416 155.494L100.403 155.503Z" fill="#407BFF"/>
<path d="M77.907 155.339C79.0074 156.303 80.5852 157.185 83.0496 157.877C83.8272 158.095 83.3361 159.541 81.4718 159.5C78.3844 159.454 79.6121 159.4 76.9748 159.345C74.7013 159.3 74.1239 159.282 72.3324 159.268H72.2914C72.2009 159.267 72.1115 159.247 72.0287 159.211C71.9458 159.174 71.8713 159.121 71.8097 159.055C71.748 158.988 71.7005 158.91 71.67 158.825C71.6394 158.74 71.6266 158.649 71.6321 158.559L72.2278 155.057C72.248 154.977 72.2961 154.906 72.3635 154.858C72.431 154.81 72.5134 154.787 72.5961 154.794L77.3068 154.921C77.6978 154.894 77.5978 155.112 77.907 155.339Z" fill="#263238"/>
<path d="M77.918 155.626C78.4954 156.048 79.5458 156.721 80.1915 156.594C80.2867 156.582 80.3777 156.547 80.4567 156.492C80.5358 156.438 80.6007 156.365 80.6462 156.28C80.6753 156.237 80.6909 156.187 80.6909 156.135C80.6909 156.083 80.6753 156.032 80.6462 155.989C80.3233 155.512 78.2726 155.448 78.0407 155.448C78.0201 155.448 77.9998 155.454 77.9833 155.466C77.9668 155.479 77.9549 155.496 77.9498 155.516C77.9391 155.53 77.9333 155.547 77.9333 155.564C77.9333 155.582 77.9391 155.598 77.9498 155.612L77.918 155.626ZM80.4643 156.08C80.4765 156.097 80.483 156.117 80.483 156.137C80.483 156.158 80.4765 156.178 80.4643 156.194C80.4363 156.248 80.3963 156.295 80.3475 156.331C80.2986 156.367 80.2422 156.392 80.1824 156.403C79.8277 156.462 79.1366 156.189 78.3363 155.644C79.132 155.685 80.1915 155.808 80.4279 156.048L80.4643 156.08Z" fill="#407BFF"/>
<path d="M78.0022 155.649C78.6024 155.69 80.0302 155.399 80.203 154.971C80.253 154.871 80.2439 154.721 79.9984 154.576C79.8136 154.466 79.5962 154.426 79.3845 154.462C78.6479 154.58 77.9613 155.471 77.9249 155.503C77.9153 155.516 77.9102 155.532 77.9102 155.549C77.9102 155.565 77.9153 155.581 77.9249 155.594C77.9427 155.622 77.9704 155.641 78.0022 155.649ZM79.9529 154.771C80.0166 154.835 79.9984 154.876 80.0257 154.894C79.9211 155.148 78.9071 155.417 78.2432 155.449C78.5546 155.063 78.9743 154.78 79.4482 154.635C79.6041 154.602 79.7666 154.629 79.9029 154.712L79.9756 154.785L79.9529 154.771Z" fill="#407BFF"/>
<path opacity="0.8" d="M79.0548 58.5785C79.8324 67.536 82.8061 72.5832 82.406 79.7402C82.406 79.7402 98.5479 80.0585 99.1026 80.0585C99.339 66.8722 101.221 67.8771 100.644 59.5288C100.744 56.8006 99.1117 55.0773 97.5339 54.8044L90.7134 53.3994L81.8513 54.9227C81.0118 55.0708 80.2586 55.5287 79.7407 56.2057C79.2229 56.8827 78.9781 57.7295 79.0548 58.5785Z" fill="white"/>
<path d="M95.8237 71.9068L94.0049 75.1443L90.7129 71.6386C90.7129 71.5522 92.1225 56.8381 92.1225 56.8381L92.9728 56.7744C92.8909 58.5614 95.8237 71.9068 95.8237 71.9068Z" fill="#407BFF"/>
<path d="M95.277 56.2147C96.0561 62.5035 95.4128 68.8869 93.3945 74.8938L94.7586 89.5988C95.0269 91.7313 96.3956 92.1497 97.6187 92.2633L100.129 92.0633L99.2192 78.0312C99.2192 78.0312 101.27 62.5714 100.797 59.0702C100.483 56.7603 99.7194 55.86 99.1738 55.3917C98.9397 55.195 98.6597 55.0605 98.3599 55.0006C97.405 54.8006 94.5949 54.0412 94.7223 54.0912C94.8496 54.1412 95.277 56.2147 95.277 56.2147Z" fill="#263238"/>
<path d="M93.9453 49.7714C93.5997 51.4129 93.0677 53.65 94.8547 54.4139C95.6322 54.7504 96.0005 55.8417 95.2548 56.1918C94.5091 56.5419 89.6802 56.1918 89.2573 55.9917C88.2115 55.4552 87.4749 55.0823 88.0387 54.0365C89.0209 52.2495 88.3979 48.5119 88.2661 46.7158L93.9453 49.7714Z" fill="#FFC3BD"/>
<path d="M93.4516 56.019L93.2288 56.7238C93.2131 56.8048 93.1735 56.8792 93.1152 56.9376C93.0568 56.9959 92.9824 57.0355 92.9014 57.0512L92.0511 57.1148C91.9826 57.1153 91.9157 57.094 91.8601 57.0539C91.8045 57.0139 91.7631 56.9572 91.7419 56.892L91.3281 56.2645L92.3876 55.6416L93.4516 56.019Z" fill="#407BFF"/>
<path opacity="0.2" d="M89.3926 49.312C89.6508 49.9428 90.0205 50.5219 90.4839 51.0217C91.1432 51.7765 92.3845 52.1084 93.5849 52.1084C93.6256 51.3136 93.7444 50.5247 93.9396 49.7531L93.6895 49.6212L89.3926 49.312Z" fill="black"/>
<path d="M87.2957 92.2086C91.388 92.486 92.5248 92.0631 93.0932 88.8711C93.0932 88.8711 94.1753 77.4263 93.9616 74.8937C93.9616 74.8937 91.2334 69.5737 90.6969 65.8769C90.1149 61.7437 87.5776 53.4682 86.8456 53.5227C85.4405 53.6182 80.1979 55.4552 79.3476 56.5783C78.2199 58.0743 78.952 59.8021 79.2202 61.6573C80.0751 67.6003 80.7162 69.6464 81.039 75.6394C81.039 75.6394 78.3108 91.0992 78.7292 91.1537C79.0475 91.1856 84.031 91.9858 87.2957 92.2086Z" fill="#263238"/>
<path opacity="0.2" d="M82.4082 79.7402H89.3924V80.054C89.3924 80.4978 89.2161 80.9234 88.9023 81.2372C88.5885 81.551 88.1629 81.7273 87.7191 81.7273H84.0815C83.6377 81.7273 83.2121 81.551 82.8983 81.2372C82.5845 80.9234 82.4082 80.4978 82.4082 80.054V79.7402Z" fill="white"/>
<path opacity="0.2" d="M99.3766 81.8043H98.3945C97.9505 81.8216 97.5177 81.6625 97.1905 81.3618C96.8634 81.0611 96.6685 80.6431 96.6484 80.1992V79.89L99.3494 79.7764L99.3766 81.8043Z" fill="white"/>
<path d="M96.6968 47.4704C96.2421 50.7215 92.4726 52.5949 89.8263 50.4032C88.2939 49.1392 88.0075 47.5659 87.6073 45.106C87.5482 44.7331 87.4891 44.3421 87.4209 43.9238C87.3112 43.2751 87.3485 42.61 87.53 41.9776C87.6019 41.7135 87.701 41.4575 87.8256 41.2137C88.2808 40.2936 89.0442 39.5621 89.983 39.1467C90.9218 38.7313 91.9766 38.6583 92.9637 38.9402C96.2057 39.886 97.1015 44.5603 96.6968 47.4704Z" fill="#FFC3BD"/>
<path d="M88.9102 41.4777C89.3515 42.1992 89.7245 42.9603 90.0242 43.7512C89.7339 43.8173 89.4551 43.9261 89.1967 44.074C88.9602 44.2241 89.1967 44.9334 89.3195 45.1971C89.5407 45.7291 89.7974 46.2456 90.0879 46.7431C89.6666 46.9221 89.2254 47.0503 88.7738 47.1251C88.6502 46.7801 88.4478 46.4687 88.1827 46.2157C88.0291 46.0277 87.8225 45.8904 87.5897 45.8214C87.357 45.7525 87.1089 45.7552 86.8777 45.8292C86.7959 45.4245 84.4178 43.5966 86.4003 42.3734C86.6907 42.143 87.0102 41.9519 87.3506 41.8051L87.8053 41.6368C88.162 41.5218 88.5356 41.468 88.9102 41.4777Z" fill="#263238"/>
<path d="M86.9881 45.0145C88.0021 44.7826 88.9433 45.8966 89.2616 46.7423C89.6344 47.679 89.1888 48.6384 88.143 48.452C87.7535 48.3777 87.3825 48.2269 87.0516 48.0084C86.7207 47.7899 86.4364 47.5079 86.2151 47.1789C86.0749 46.9978 85.9826 46.7844 85.9466 46.5583C85.9107 46.3322 85.9322 46.1007 86.0092 45.8851C86.0862 45.6695 86.2162 45.4767 86.3873 45.3246C86.5583 45.1724 86.765 45.0658 86.9881 45.0145Z" fill="#FFC3BD"/>
<path d="M93.0699 43.6504C93.2382 43.6504 93.3973 43.8277 93.4246 44.1051C93.4519 44.3825 93.3564 44.5871 93.1654 44.6053C92.9744 44.6235 92.8198 44.4279 92.7926 44.1506C92.7653 43.8732 92.9017 43.6868 93.0699 43.6504Z" fill="#263238"/>
<path d="M95.9877 43.4595C96.156 43.4595 96.3151 43.6368 96.3424 43.9142C96.3697 44.1915 96.256 44.3962 96.0832 44.4143C95.9104 44.4325 95.7558 44.237 95.7285 43.9824C95.7012 43.7277 95.8195 43.4822 95.9877 43.4595Z" fill="#263238"/>
<path d="M95.2469 46.7019C95.4662 46.7107 95.6847 46.6708 95.8868 46.5851C96.0888 46.4994 96.2694 46.37 96.4155 46.2063C95.7759 45.6485 95.2173 45.0042 94.7559 44.292L95.2469 46.7019Z" fill="#F98C8C"/>
<path d="M92.3756 43.2236C92.4689 43.0576 92.5997 42.9156 92.7576 42.809C92.9154 42.7024 93.096 42.6342 93.285 42.6098H93.335C93.3753 42.6031 93.4114 42.5807 93.4353 42.5474C93.4591 42.5142 93.4689 42.4728 93.4623 42.4324C93.4545 42.3926 93.4319 42.3572 93.3989 42.3336C93.3659 42.3099 93.3252 42.2997 93.285 42.3051C93.0439 42.3279 92.8117 42.4079 92.6076 42.5383C92.4036 42.6688 92.2336 42.8461 92.1118 43.0554C92.0925 43.0902 92.0869 43.131 92.0962 43.1697C92.1054 43.2084 92.1289 43.2422 92.1618 43.2645C92.1872 43.2711 92.2138 43.2711 92.2391 43.2645C92.2882 43.269 92.3371 43.2543 92.3756 43.2236Z" fill="#263238"/>
<path d="M96.56 42.9596C96.5914 42.9345 96.6119 42.8982 96.617 42.8583C96.6221 42.8184 96.6114 42.7781 96.5873 42.7459C96.441 42.5531 96.2508 42.3981 96.0325 42.2936C95.8142 42.1892 95.5742 42.1385 95.3323 42.1457C95.3127 42.1474 95.2937 42.153 95.2764 42.1622C95.259 42.1714 95.2437 42.1841 95.2314 42.1994C95.2191 42.2147 95.21 42.2323 95.2047 42.2512C95.1993 42.2701 95.1979 42.2899 95.2004 42.3094C95.2061 42.3476 95.2262 42.3821 95.2567 42.4059C95.2872 42.4296 95.3257 42.4406 95.3641 42.4367C95.5554 42.4336 95.7447 42.4762 95.9162 42.5608C96.0878 42.6454 96.2368 42.7696 96.3508 42.9232C96.366 42.9434 96.3861 42.9594 96.4092 42.9697C96.4322 42.98 96.4575 42.9844 96.4827 42.9823C96.5096 42.9796 96.5359 42.9719 96.56 42.9596Z" fill="#263238"/>
<path d="M91.4908 72.3699C90.9224 70.3692 90.2677 68.3503 89.0809 66.6452C88.6535 66.0268 88.1715 65.4584 87.7168 64.8264C87.1072 64.0213 86.5469 63.1801 86.039 62.3073C86.5391 61.8526 87.1985 61.3979 87.735 60.9796L85.707 59.3018C86.2168 57.3741 86.4511 55.384 86.4027 53.3907C86.6253 53.2319 86.9011 53.1667 87.1712 53.2088C88.1406 54.7137 88.8464 56.3729 89.2582 58.115C90.4228 62.7912 91.1699 67.5615 91.4908 72.3699Z" fill="#263238"/>
<path opacity="0.2" d="M93.7222 74.3931C93.6903 74.3522 93.663 74.3021 93.6312 74.2521C92.3399 72.2424 86.4651 63.0665 86.0559 62.3026C86.5606 61.8479 87.2199 61.3932 87.7565 60.9749L85.7285 59.297C86.2361 57.369 86.4703 55.3792 86.4242 53.3859C86.6453 53.2279 86.9195 53.1627 87.1881 53.204C87.8001 54.1537 88.3092 55.1658 88.7068 56.2233C88.9367 56.8394 89.1266 57.4697 89.2752 58.1103C90.4256 62.63 91.626 69.9961 93.6494 74.193L93.7222 74.3931Z" fill="white"/>
<path d="M96.6513 73.3391C96.6195 71.2566 96.6513 69.1377 97.3015 67.1598C97.5334 66.4459 97.8426 65.7593 98.0836 65.0454C98.3928 64.136 99.334 63.0084 99.525 62.0535C98.9157 61.7761 98.1609 61.4942 97.5152 61.2714L98.9748 59.0797C97.929 57.3837 96.333 56.0014 95.7919 54.078C95.5337 53.9905 95.2516 54.0068 95.0053 54.1235C94.6824 55.1921 95.1917 58.3022 95.219 58.957C95.4463 63.7904 95.5873 68.6239 96.6513 73.3391Z" fill="#263238"/>
<path opacity="0.2" d="M99.5255 62.0528C98.3932 65.1538 96.0334 71.6015 93.7235 74.3933C93.6507 74.4797 93.5825 74.5616 93.5098 74.6389L93.6325 74.2524C93.631 74.2312 93.631 74.2099 93.6325 74.1887C95.7378 67.3682 95.4513 63.6624 95.2285 58.9381C95.2013 58.2833 94.692 55.0868 95.0148 54.0228C95.1365 53.9638 95.2686 53.9294 95.4036 53.9216C95.5386 53.9138 95.6738 53.9327 95.8015 53.9773C96.3335 55.8961 97.9295 57.3603 98.9844 59.0563C98.5024 59.7884 98.0158 60.5159 97.5293 61.2479C98.1432 61.4935 98.9162 61.7754 99.5255 62.0528Z" fill="white"/>
<path opacity="0.3" d="M78.8685 59.8926C78.8685 59.8926 80.2644 63.03 83.6338 67.6634C87.0577 72.3696 88.981 72.3696 88.981 72.3696L91.491 73.1244C91.491 73.1244 90.8453 61.2567 83.5519 59.4834C81.3875 58.9423 78.4047 59.9063 78.8685 59.8926Z" fill="black"/>
<path d="M107.394 67.6191L103.643 67.7919V69.8563L107.394 69.3288V67.6191Z" fill="#FFC3BD"/>
<path d="M106.316 68.9787C106.239 70.7975 108.458 71.2113 108.458 71.2113L109.613 72.157C109.798 72.3158 110.033 72.4031 110.277 72.4031C110.52 72.4031 110.756 72.3158 110.941 72.157L111.896 71.3431L111.923 71.3204C112.122 71.1381 112.24 70.8845 112.252 70.6151C112.264 70.3458 112.168 70.0827 111.987 69.8835L111.209 69.0242C110.895 68.6733 110.509 68.3941 110.077 68.2057L107.394 67.6191L106.316 68.9787Z" fill="#FFC3BD"/>
<path d="M79.2327 57.3916C78.4597 58.9012 78.8053 60.6472 79.7329 62.0659C81.8427 65.2761 88.7996 69.5412 90.191 70.4824C93.3375 72.6286 106.106 70.1277 106.106 70.1277L106.292 66.9767L92.6509 66.2946C92.6509 66.2946 88.0721 58.6693 84.921 56.3412C83.3341 55.1772 80.3149 55.2772 79.2327 57.3916Z" fill="#263238"/>
<path d="M89.3341 38.5264C89.1222 38.502 88.9076 38.5231 88.7046 38.5881C88.5015 38.6532 88.3146 38.7608 88.1564 38.9038C87.2527 39.5843 86.6208 40.5643 86.374 41.6684C86.3154 41.8935 86.3154 42.1299 86.374 42.355C86.3988 42.4699 86.4576 42.5747 86.5428 42.6558C86.6279 42.7368 86.7354 42.7905 86.8514 42.8097C87.1708 42.4759 87.5698 42.2287 88.0109 42.0913C88.8996 41.7996 89.8127 41.588 90.7391 41.4592C92.4215 41.2034 94.0827 40.8235 95.709 40.3225C96.0318 40.227 96.4001 40.0815 96.4865 39.7586C96.5729 39.4358 95.8772 38.9083 95.9909 38.8038C96.1682 38.631 96.4138 38.4764 96.4138 38.2308C96.4113 38.1334 96.3847 38.0381 96.3365 37.9535C96.2689 37.7946 96.1707 37.6505 96.0474 37.5296C95.9241 37.4086 95.7782 37.3132 95.618 37.2487C95.4552 37.1929 95.2769 37.2031 95.1214 37.277C94.9659 37.3509 94.8455 37.4827 94.7859 37.6443C94.7359 37.3497 94.6691 37.0582 94.5859 36.7713C94.5058 36.6392 94.3793 36.5419 94.2312 36.4984C94.0044 36.4336 93.7652 36.4254 93.5345 36.4745C93.3038 36.5237 93.0887 36.6287 92.908 36.7803C92.5475 37.0869 92.2402 37.451 91.9986 37.858C91.5257 38.5491 90.1616 38.7174 89.3341 38.5264Z" fill="#263238"/>
<path d="M93.5808 47.1973C93.5738 47.1905 93.5682 47.1824 93.5644 47.1734C93.5606 47.1644 93.5586 47.1548 93.5586 47.145C93.5586 47.1353 93.5606 47.1256 93.5644 47.1166C93.5682 47.1077 93.5738 47.0995 93.5808 47.0927C93.5935 47.0802 93.6107 47.0732 93.6285 47.0732C93.6464 47.0732 93.6635 47.0802 93.6763 47.0927C93.8841 47.3117 94.1406 47.4785 94.4251 47.5796C94.7095 47.6807 95.0138 47.7133 95.3132 47.6748C95.333 47.6735 95.3525 47.6798 95.3677 47.6925C95.383 47.7052 95.3927 47.7233 95.395 47.743C95.3963 47.7615 95.3904 47.7799 95.3786 47.7943C95.3668 47.8087 95.3499 47.818 95.3314 47.8203C95.0111 47.8627 94.6853 47.8283 94.3809 47.72C94.0765 47.6117 93.8023 47.4325 93.5808 47.1973Z" fill="#263238"/>
<path d="M87.1665 53.354L88.3214 52.9902C89.4984 54.2851 90.9622 55.2864 92.5956 55.914C91.8576 56.3598 91.2688 57.0151 90.9041 57.7964C87.0392 56.2686 87.1665 53.354 87.1665 53.354Z" fill="white"/>
<path d="M94.8657 53.5537L93.8153 53.2764C93.8153 53.2764 93.2788 55.4635 92.1738 55.7227C94.0426 56.5548 94.3109 57.5096 94.3109 57.5096C97.0937 56.7594 94.8657 53.5537 94.8657 53.5537Z" fill="white"/>
<path opacity="0.3" d="M92.6804 75.4343C92.6741 75.5172 92.6434 75.5964 92.5922 75.662C92.5411 75.7275 92.4717 75.7766 92.3928 75.8029C92.3139 75.8293 92.229 75.8318 92.1487 75.8102C92.0684 75.7885 91.9963 75.7437 91.9414 75.6812C91.8864 75.6188 91.8511 75.5415 91.8398 75.4591C91.8286 75.3767 91.8419 75.2928 91.878 75.2179C91.9142 75.1431 91.9717 75.0805 92.0432 75.0381C92.1148 74.9957 92.1972 74.9753 92.2803 74.9796C92.3365 74.983 92.3914 74.9976 92.4419 75.0223C92.4925 75.0471 92.5376 75.0815 92.5748 75.1238C92.612 75.166 92.6405 75.2152 92.6586 75.2685C92.6767 75.3218 92.6841 75.3781 92.6804 75.4343Z" fill="white"/>
</svg>
