<svg width="102" height="48" viewBox="0 0 102 48" fill="none" xmlns="http://www.w3.org/2000/svg">
<path d="M21.0061 28.3548C20.5954 27.2299 20.0551 26.283 19.3848 25.5142C18.7146 24.7455 17.9537 24.106 17.1024 23.5961C16.2508 23.0862 15.3843 22.6049 14.5028 22.1514C13.5364 21.6658 12.6517 21.2006 11.8488 20.7553C11.0455 20.3104 10.357 19.8004 9.78355 19.2257C9.20992 18.6515 8.76586 17.9674 8.45203 17.174C8.13777 16.381 7.98107 15.3857 7.98107 14.1877C7.98107 13.1842 8.09279 12.2817 8.31621 11.4805C8.53964 10.6791 8.87478 9.9994 9.32163 9.44105C9.76827 8.88248 10.3301 8.45392 11.0064 8.15409C11.6827 7.85468 12.4797 7.70487 13.3975 7.70487C14.0859 7.70487 14.7592 7.82239 15.4176 8.05701C16.0759 8.29185 16.6736 8.72083 17.2111 9.34397C17.7483 9.96732 18.2042 10.8292 18.5787 11.9297C18.9528 13.0307 19.1946 14.4548 19.3033 16.203H20.5715L20.3541 7.38953C19.8468 7.14673 19.3093 6.92438 18.7417 6.72184C18.1739 6.51972 17.5974 6.34558 17.0117 6.19986C16.4256 6.05414 15.8369 5.9448 15.2454 5.87204C14.6535 5.79929 14.0799 5.7627 13.5245 5.7627C12.1233 5.7627 10.8947 6.00549 9.83801 6.49109C8.78093 6.97669 7.89627 7.66074 7.18402 8.54261C6.47112 9.42512 5.93386 10.4891 5.57182 11.7354C5.20934 12.9821 5.02832 14.3577 5.02832 15.8629C5.02832 17.4654 5.2186 18.8049 5.59894 19.8812C5.9795 20.9578 6.49566 21.8683 7.14785 22.6126C7.79984 23.3572 8.55169 23.9805 9.40321 24.4823C10.2547 24.9842 11.1514 25.4616 12.0934 25.9147C13.0355 26.368 13.8988 26.8052 14.6839 27.2258C15.4536 27.6384 16.1142 28.1262 16.6691 28.6862H21.1163C21.0808 28.5741 21.045 28.462 21.0061 28.3548Z" fill="#064F94"/>
<path d="M17.1559 38.9163C16.6909 39.5233 16.099 39.9968 15.3805 40.3367C14.6618 40.6766 13.7956 40.8466 12.781 40.8466C11.9355 40.8466 11.1352 40.697 10.3808 40.3974C9.62589 40.098 8.95562 39.584 8.36993 38.8556C7.93814 38.3188 7.55802 37.6448 7.22805 36.8359H4.96387L5.06396 40.9194C5.59518 41.1947 6.16903 41.4375 6.78485 41.6478C7.40067 41.8583 8.03178 42.0443 8.67795 42.2061C9.3239 42.3678 9.97588 42.4892 10.6345 42.5703C11.2928 42.651 11.9299 42.6917 12.5457 42.6917C13.9586 42.6917 15.2268 42.4649 16.35 42.012C17.4734 41.5591 18.4243 40.9035 19.2033 40.0453C19.9823 39.1875 20.58 38.1272 20.9967 36.8648C21 36.8553 21.0023 36.8454 21.0056 36.8359H18.1398C17.9267 37.6395 17.6008 38.3351 17.1559 38.9163Z" fill="#064F94"/>
<path d="M29.8105 24.4336C29.8105 22.1677 29.9041 20.1808 30.0914 18.473C30.2785 16.7655 30.5413 15.2887 30.8794 14.0419C31.2174 12.7957 31.6313 11.7681 32.1203 10.9585C32.6094 10.1494 33.1589 9.50175 33.7689 9.01615C34.3787 8.53055 35.0397 8.19068 35.7526 7.99652C36.4651 7.80216 37.2199 7.70508 38.0172 7.70508C38.802 7.70508 39.5448 7.81852 40.2454 8.04517C40.9459 8.27204 41.5739 8.69263 42.1295 9.30759C42.6848 9.92298 43.147 10.7848 43.5153 11.8933C43.8835 13.0023 44.122 14.4389 44.2307 16.203H45.499L45.2816 7.34088C44.726 7.09809 44.1494 6.87961 43.5516 6.68546C42.9537 6.49131 42.3497 6.32535 41.7399 6.18759C41.1299 6.05026 40.5291 5.94479 39.9374 5.87204C39.3455 5.79929 38.7841 5.7627 38.2527 5.7627C36.3686 5.7627 34.6626 6.20395 33.1352 7.08603C31.6072 7.96833 30.3058 9.23096 29.2311 10.8735C28.1561 12.5165 27.3289 14.4955 26.7493 16.81C26.1698 19.1248 25.8799 21.7144 25.8799 24.5796C25.8799 26.0245 25.9544 27.3924 26.1007 28.6865H29.942C29.8548 27.4049 29.8105 25.9896 29.8105 24.4336Z" fill="#064F94"/>
<path d="M42.3549 38.8317C41.7571 39.5442 41.0688 40.0418 40.2898 40.3249C39.5108 40.6081 38.6621 40.7498 37.7445 40.7498C36.9836 40.7498 36.2591 40.6611 35.5705 40.4826C34.8821 40.3046 34.245 39.985 33.6593 39.5235C33.0732 39.0622 32.5422 38.4393 32.0652 37.6539C31.9133 37.4038 31.7695 37.1295 31.6321 36.8362H28.4844C28.6727 37.1778 28.8682 37.5097 29.0761 37.8239C30.1086 39.3862 31.3646 40.5879 32.8442 41.4293C34.3234 42.2707 35.9872 42.6917 37.8351 42.6917C38.4148 42.6917 39.0399 42.6513 39.7101 42.5703C40.3804 42.4892 41.0597 42.3721 41.7481 42.2184C42.4364 42.0643 43.1158 41.8785 43.7863 41.6598C44.4565 41.4414 45.0816 41.1947 45.6613 40.9194L45.7689 36.8359H43.5138C43.1836 37.6388 42.7976 38.3046 42.3549 38.8317Z" fill="#064F94"/>
<path d="M56.7848 24.5791H59.1579C60.0275 24.5791 60.7367 24.6359 61.2864 24.7491C61.836 24.8625 62.2738 25.1376 62.5999 25.5746C62.9262 26.0115 63.1615 26.6551 63.3065 27.5049C63.3649 27.8472 63.4161 28.2426 63.4606 28.686H64.9007V16.6154H63.6143C63.5418 18.0722 63.421 19.2011 63.2519 20.0023C63.0827 20.8034 62.8321 21.3945 62.5 21.7746C62.1679 22.1552 61.7303 22.3857 61.1866 22.4666C60.6433 22.5478 59.9666 22.588 59.1577 22.588H56.7846V8.53006H62.5273C63.6985 8.53006 64.6678 8.63144 65.4349 8.83356C66.2018 9.03611 66.8234 9.42462 67.3009 9.99912C67.7779 10.5738 68.1489 11.367 68.415 12.3785C68.6804 13.3903 68.904 14.7055 69.0853 16.3239H70.3533L69.991 6.58789H49.6289V8.53028H53.2519V28.686H56.7846V24.5791H56.7848Z" fill="#064F94"/>
<path d="M67.3007 38.1515C66.9201 38.6212 66.4642 38.9854 65.933 39.2441C65.4013 39.5033 64.7797 39.6811 64.067 39.7781C63.3541 39.8752 62.5274 39.9239 61.5852 39.9239H56.7846V36.8359H53.2519V39.9239H49.6289V41.8663H70.4437L70.595 36.8359H68.0816C67.851 37.3545 67.591 37.7934 67.3007 38.1515Z" fill="#064F94"/>
<path d="M81.5846 25.308H83.9577C84.8273 25.308 85.5365 25.3648 86.0863 25.4781C86.6358 25.5915 87.0736 25.8707 87.3997 26.3158C87.726 26.7611 87.9613 27.4168 88.1063 28.2825C88.1277 28.4097 88.1477 28.5457 88.167 28.6867H89.7005V17.2231H88.4141C88.3416 18.7124 88.2209 19.8657 88.0517 20.683C87.8825 21.5005 87.6319 22.1034 87.2998 22.4919C86.9677 22.8805 86.5301 23.1153 85.9864 23.196C85.4431 23.2772 84.7664 23.3174 83.9575 23.3174H81.5844V8.53125H87.1459C88.3171 8.53125 89.2926 8.63672 90.0715 8.84681C90.8505 9.05732 91.4846 9.4622 91.9737 10.0608C92.4627 10.6598 92.84 11.4974 93.1061 12.5736C93.3715 13.6502 93.5831 15.0623 93.74 16.8105H95.0082L94.6096 6.58887H74.4287V8.53125H78.0517V28.6869H81.5844L81.5846 25.308Z" fill="#064F94"/>
<path d="M78.0517 36.8359V39.9239H74.4287V41.8663H85.3886V39.9239H81.5844V36.8359H78.0517Z" fill="#064F94"/>
<path d="M26.1003 28.6865H21.1163C21.4523 29.7511 21.6221 31.0353 21.6221 32.5433C21.6221 34.1499 21.4163 35.5807 21.0059 36.8364H28.4852C27.7381 35.4808 27.1425 33.9146 26.7037 32.1307C26.4376 31.0495 26.2376 29.9005 26.1003 28.6865Z" fill="white"/>
<path d="M6.09654 31.305C6.22935 33.1503 6.49518 34.6882 6.8936 35.9182C6.99842 36.2419 7.11035 36.5473 7.22809 36.8364H18.1396C18.1491 36.8007 18.1618 36.768 18.1708 36.7316C18.3817 35.8818 18.4879 34.947 18.4879 33.9273C18.4879 32.6649 18.3307 31.6251 18.0169 30.8073C17.7026 29.9903 17.265 29.2942 16.7035 28.7192C16.6925 28.7078 16.6798 28.6977 16.6686 28.6865H2.89453V36.8364H4.96391L4.82831 31.3052H6.09654V31.305Z" fill="white"/>
<path d="M64.9003 28.6865V30.9894H63.614C63.5776 30.11 63.5264 29.3439 63.4601 28.6865H56.7842V36.8364H68.0812C68.1529 36.6754 68.2217 36.5075 68.2876 36.331C68.5653 35.5867 68.8008 34.6801 68.994 33.6118C69.1869 32.5435 69.3681 31.2809 69.5373 29.8241H70.8056L70.5946 36.8364H78.0521V28.6865H64.9003Z" fill="white"/>
<path d="M29.9414 28.6865C29.9802 29.2578 30.0262 29.8052 30.0822 30.3217C30.2634 31.997 30.5198 33.4418 30.8521 34.6557C31.0783 35.4829 31.3392 36.2083 31.6328 36.8364H43.5142C43.63 36.5551 43.7391 36.2578 43.841 35.9425C44.2334 34.7285 44.5022 33.183 44.6473 31.3052H45.9153L45.7693 36.8364H53.252V28.6865H29.9414Z" fill="white"/>
<path d="M88.4145 31.8392C88.3626 30.5549 88.2802 29.5055 88.1674 28.6865H81.585V36.8364H96.1996V28.6865H89.7008V31.8392H88.4145Z" fill="white"/>
<path d="M21.1162 28.6865H16.6689C16.6801 28.6977 16.6926 28.708 16.7038 28.7192C17.2652 29.294 17.703 29.9901 18.0172 30.8073C18.3311 31.6249 18.4882 32.6647 18.4882 33.9273C18.4882 34.9472 18.3823 35.882 18.1712 36.7316C18.1621 36.7677 18.1494 36.8007 18.1399 36.8364H21.0057C21.4162 35.5807 21.622 34.1501 21.622 32.5433C21.622 31.0353 21.4522 29.7511 21.1162 28.6865Z" fill="white"/>
<path d="M6.89342 35.9178C6.49478 34.6879 6.22916 33.15 6.09636 31.3047H4.82812L4.96373 36.8359H7.22791C7.11017 36.547 6.99846 36.2418 6.89342 35.9178Z" fill="white"/>
<path d="M30.8516 34.6557C30.5193 33.4418 30.2629 31.997 30.0817 30.3217C30.0257 29.8052 29.9796 29.2578 29.9409 28.6865H26.0996C26.2367 29.9005 26.4369 31.0495 26.7029 32.1305C27.1418 33.9146 27.7374 35.4806 28.4845 36.8362H31.6323C31.3387 36.2083 31.0778 35.4829 30.8516 34.6557Z" fill="white"/>
<path d="M44.6467 31.3047C44.5017 33.1825 44.2328 34.7282 43.8404 35.942C43.7386 36.2571 43.6295 36.5546 43.5137 36.8359H45.7688L45.9147 31.3047H44.6467Z" fill="white"/>
<path d="M56.7846 28.6865H53.252V36.8364H56.7846V28.6865Z" fill="white"/>
<path d="M63.6137 30.9894H64.9V28.6865H63.46C63.526 29.3439 63.5773 30.11 63.6137 30.9894Z" fill="white"/>
<path d="M69.5382 29.8242C69.369 31.281 69.1878 32.5434 68.9949 33.6119C68.8016 34.6802 68.5661 35.5868 68.2885 36.3311C68.2226 36.5076 68.1537 36.6757 68.082 36.8365H70.5955L70.8064 29.8242H69.5382Z" fill="white"/>
<path d="M81.5844 28.6865H78.0518V36.8364H81.5844V28.6865Z" fill="white"/>
<path d="M88.4141 31.8392H89.7004V28.6865H88.167C88.2798 29.5055 88.3622 30.5549 88.4141 31.8392Z" fill="white"/>
<path d="M4.80469 34.0261H4.97667C4.99475 34.3346 5.0307 34.5918 5.08472 34.7974C5.13875 35.0031 5.20569 35.1667 5.28512 35.2886C5.36454 35.4104 5.45538 35.4963 5.55784 35.5462C5.66029 35.5964 5.76878 35.6213 5.8835 35.6213C6.02126 35.6213 6.13879 35.5929 6.23629 35.5361C6.33358 35.4793 6.41387 35.4001 6.47694 35.2987C6.54001 35.1971 6.58607 35.0753 6.6147 34.9334C6.64333 34.7913 6.65775 34.6351 6.65775 34.4646C6.65775 34.2537 6.63622 34.0797 6.59382 33.9431C6.5512 33.8064 6.49179 33.6901 6.41559 33.5939C6.3394 33.4979 6.24813 33.4146 6.1418 33.3442C6.03525 33.2739 5.91816 33.2007 5.7903 33.1249C5.66245 33.0491 5.54105 32.9693 5.42546 32.8855C5.31009 32.8016 5.20806 32.6974 5.11959 32.573C5.03113 32.4486 4.96117 32.2964 4.9093 32.1163C4.85785 31.9363 4.83202 31.7125 4.83202 31.4445C4.83202 31.1928 4.85656 30.963 4.90585 30.7544C4.95515 30.5458 5.02768 30.3682 5.12454 30.2206C5.22119 30.0731 5.3413 29.9588 5.48465 29.8777C5.62801 29.7965 5.79461 29.7559 5.98467 29.7559C6.06001 29.7559 6.13771 29.7619 6.218 29.7742C6.29828 29.7864 6.37814 29.8047 6.45757 29.8288C6.53699 29.8532 6.61513 29.8824 6.69218 29.9162C6.76924 29.95 6.842 29.9873 6.91109 30.0279L6.94058 31.5013H6.7686C6.75396 31.209 6.72103 30.9709 6.67023 30.7869C6.61943 30.6029 6.55766 30.4589 6.4849 30.3547C6.41193 30.2505 6.33079 30.1788 6.24146 30.1394C6.15213 30.1 6.06087 30.0807 5.96767 30.0807C5.84304 30.0807 5.73498 30.1056 5.64329 30.1558C5.55138 30.2059 5.4754 30.2776 5.4147 30.371C5.354 30.4645 5.30858 30.5781 5.27823 30.712C5.24788 30.8461 5.23281 30.9968 5.23281 31.1647C5.23281 31.3648 5.25412 31.5314 5.29674 31.6638C5.33915 31.7964 5.39941 31.9107 5.47733 32.0067C5.55504 32.1029 5.64845 32.1882 5.75737 32.2624C5.8665 32.3369 5.98618 32.4148 6.11748 32.4957C6.23715 32.5715 6.35468 32.652 6.47005 32.7372C6.58564 32.8225 6.68896 32.9295 6.77958 33.058C6.87063 33.1865 6.94381 33.3449 6.99956 33.533C7.05509 33.7211 7.08307 33.9545 7.08307 34.2332C7.08307 34.5038 7.05488 34.7446 6.99827 34.9556C6.94166 35.1665 6.86051 35.3439 6.75482 35.4872C6.64935 35.6308 6.5202 35.7404 6.36781 35.8161C6.21541 35.8919 6.04343 35.9298 5.85186 35.9298C5.76835 35.9298 5.68203 35.9231 5.59271 35.9096C5.50338 35.896 5.41491 35.8758 5.32752 35.8486C5.23992 35.8215 5.15425 35.7903 5.07073 35.7552C4.98722 35.7201 4.9093 35.6794 4.83741 35.6336L4.80469 34.0261Z" fill="#064F94"/>
<path d="M9.64093 35.7921C9.57226 35.8138 9.50833 35.8272 9.44914 35.8326C9.39038 35.838 9.34367 35.8408 9.30923 35.8408C9.22249 35.8408 9.15081 35.8293 9.0942 35.8063C9.03759 35.7835 8.99303 35.7501 8.96032 35.7069C8.9276 35.6636 8.90371 35.6109 8.88907 35.5487C8.87443 35.4865 8.86539 35.4174 8.86216 35.3416H8.84968C8.80383 35.4471 8.75476 35.5364 8.70224 35.6096C8.64972 35.6825 8.59483 35.7409 8.53736 35.7841C8.4801 35.8274 8.42155 35.8586 8.36193 35.8776C8.30209 35.8965 8.24182 35.906 8.18112 35.906C8.08125 35.906 7.99192 35.8836 7.91336 35.839C7.83479 35.7945 7.7685 35.7314 7.71425 35.6503C7.66023 35.5691 7.61933 35.4725 7.59156 35.3601C7.56358 35.248 7.5498 35.124 7.5498 34.9886C7.5498 34.6126 7.66173 34.3263 7.88537 34.1302C8.10902 33.9341 8.43124 33.8293 8.85226 33.8157C8.85377 33.6939 8.85506 33.5843 8.85592 33.4868C8.85678 33.3895 8.85721 33.2935 8.85721 33.1986C8.85721 32.9524 8.82643 32.7799 8.76509 32.6811C8.70374 32.5826 8.60667 32.5331 8.47386 32.5331C8.38539 32.5331 8.3064 32.5492 8.23644 32.5817C8.16692 32.6142 8.10988 32.6575 8.06575 32.7117C8.10514 32.7741 8.13398 32.8396 8.15293 32.9087C8.17187 32.9778 8.18112 33.046 8.18112 33.1136C8.18112 33.2272 8.15895 33.3219 8.11483 33.3977C8.07049 33.4735 8.01 33.5114 7.93294 33.5114C7.90023 33.5114 7.86815 33.5032 7.83716 33.487C7.80595 33.4709 7.77883 33.4453 7.75601 33.41C7.73319 33.3747 7.71468 33.3308 7.70069 33.278C7.68692 33.2251 7.67981 33.1637 7.67981 33.0933C7.67981 32.9825 7.69811 32.8749 7.73513 32.7707C7.77194 32.6665 7.82683 32.5737 7.8998 32.4926C7.97276 32.4114 8.0636 32.3464 8.17273 32.2978C8.28164 32.2489 8.40907 32.2246 8.55458 32.2246C8.67253 32.2246 8.77693 32.2435 8.86798 32.2814C8.95881 32.3193 9.03565 32.3824 9.09893 32.4702C9.16179 32.5582 9.20957 32.6751 9.24143 32.8213C9.27328 32.9674 9.28943 33.1487 9.28943 33.3652C9.28943 33.4192 9.289 33.5079 9.28814 33.631C9.28728 33.7542 9.28598 33.8902 9.28426 34.0389C9.28254 34.1877 9.28125 34.3388 9.2806 34.4916C9.27974 34.6444 9.27931 34.7792 9.27931 34.8954C9.27931 35.0144 9.28082 35.1139 9.28405 35.1937C9.28749 35.2736 9.29567 35.3373 9.30858 35.3846C9.32171 35.432 9.3413 35.4658 9.36756 35.486C9.39361 35.5063 9.43063 35.5166 9.4782 35.5166C9.51888 35.5166 9.57312 35.5084 9.64028 35.4923V35.7921H9.64093ZM8.85226 34.1199C8.67361 34.128 8.52939 34.1504 8.41962 34.187C8.30984 34.2234 8.22482 34.275 8.16412 34.3411C8.10342 34.4074 8.06231 34.4879 8.04121 34.5826C8.0199 34.6773 8.00936 34.7856 8.00936 34.9074C8.00936 35.1184 8.03605 35.2762 8.08921 35.3803C8.14238 35.4845 8.21578 35.5366 8.30898 35.5366C8.35978 35.5366 8.41682 35.519 8.47989 35.4839C8.54295 35.4488 8.60215 35.3911 8.65789 35.3112C8.71364 35.2314 8.75992 35.1266 8.79694 34.9968C8.83375 34.867 8.85226 34.706 8.85226 34.5138V34.1199Z" fill="#064F94"/>
<path d="M10.6968 35.4668H11.0285V35.7916H9.88574V35.4668H10.2542V32.658H9.88574V32.3332H10.6968V32.9217H10.7065C10.7738 32.6972 10.8636 32.5246 10.9768 32.4042C11.0898 32.2839 11.2356 32.2236 11.4142 32.2236C11.6387 32.2236 11.8055 32.319 11.9155 32.5099C12.0253 32.7006 12.0802 32.9733 12.0802 33.3278V35.467H12.4364V35.7918H11.3062V35.467H11.6378V33.2142C11.6378 33.0005 11.6073 32.8427 11.5468 32.7413C11.4863 32.6397 11.4011 32.5889 11.2911 32.5889C11.2076 32.5889 11.1299 32.618 11.0578 32.6763C10.9857 32.7346 10.923 32.8244 10.8698 32.9462C10.8165 33.068 10.7745 33.2237 10.7433 33.4129C10.7121 33.6023 10.6966 33.827 10.6966 34.0866L10.6968 35.4668Z" fill="#064F94"/>
<path d="M14.245 34.9797C14.2007 35.2963 14.1277 35.5297 14.0261 35.6799C13.9245 35.8301 13.7846 35.905 13.6059 35.905C13.5125 35.905 13.4288 35.8861 13.3541 35.8482C13.2794 35.8103 13.2159 35.7501 13.1636 35.6676C13.1113 35.5852 13.0711 35.4795 13.0431 35.351C13.0153 35.2225 13.0015 35.0662 13.0015 34.8822V32.6578H12.6328V32.333H13.0015V31.5457L13.4439 31.4238V32.333H14.0827V32.6578H13.4439V34.9715C13.4439 35.0826 13.4499 35.1732 13.4622 35.2434C13.4746 35.3138 13.4923 35.3691 13.5151 35.4098C13.5379 35.4502 13.5648 35.478 13.5963 35.4928C13.6273 35.5077 13.6626 35.5152 13.7017 35.5152C13.7542 35.5152 13.7992 35.5023 13.8369 35.4767C13.8746 35.4511 13.9077 35.4117 13.9366 35.359C13.9652 35.3062 13.9897 35.2406 14.0102 35.162C14.0308 35.0835 14.05 34.9928 14.0681 34.8899C14.0993 34.8981 14.1294 34.9089 14.1589 34.9224C14.1884 34.9364 14.217 34.9552 14.245 34.9797Z" fill="#064F94"/>
<path d="M14.5156 34.0948C14.5156 33.8403 14.5397 33.5995 14.5879 33.3722C14.6364 33.1449 14.7072 32.946 14.8006 32.7755C14.894 32.605 15.0081 32.4705 15.1433 32.3717C15.2785 32.2731 15.4321 32.2236 15.6041 32.2236C15.7746 32.2236 15.9253 32.2719 16.0564 32.3679C16.1874 32.4639 16.2972 32.5945 16.3857 32.7594C16.4739 32.9245 16.5409 33.1167 16.5859 33.3358C16.6311 33.5549 16.6535 33.7878 16.6535 34.0339C16.6535 34.2883 16.6293 34.5291 16.5809 34.7564C16.5325 34.9837 16.4617 35.1826 16.3685 35.3531C16.2753 35.5236 16.1608 35.6581 16.0256 35.7569C15.8904 35.8555 15.7367 35.905 15.5647 35.905C15.3945 35.905 15.2438 35.857 15.1125 35.761C14.9816 35.665 14.8719 35.5343 14.7834 35.3693C14.6949 35.2042 14.628 35.0122 14.583 34.7928C14.538 34.5737 14.5156 34.341 14.5156 34.0948ZM15.0019 34.0784C15.0019 34.3735 15.0144 34.6183 15.0389 34.813C15.0632 35.0078 15.0994 35.1635 15.1469 35.2799C15.1945 35.3964 15.2541 35.4782 15.3262 35.5255C15.3984 35.5729 15.4827 35.5966 15.5794 35.5966C15.6743 35.5966 15.7589 35.5722 15.8325 35.5236C15.9063 35.4749 15.9677 35.3916 16.0168 35.2739C16.0658 35.1562 16.1031 34.9979 16.1287 34.7988C16.1541 34.6 16.1668 34.3505 16.1668 34.05C16.1668 33.7551 16.1545 33.5102 16.13 33.3152C16.1054 33.1204 16.0693 32.9647 16.0217 32.8485C15.9741 32.7323 15.9141 32.6503 15.8411 32.6029C15.7681 32.5555 15.6842 32.5319 15.5893 32.5319C15.4926 32.5319 15.4078 32.5562 15.3349 32.6048C15.2619 32.6535 15.201 32.7368 15.1517 32.8545C15.1024 32.9723 15.0654 33.1305 15.0398 33.3296C15.0146 33.5285 15.0019 33.7781 15.0019 34.0784Z" fill="#064F94"/>
<path d="M18.4491 33.4817C18.4409 33.3059 18.4232 33.1569 18.3961 33.0353C18.3692 32.9135 18.3326 32.8147 18.2868 32.7389C18.2409 32.6632 18.1856 32.6085 18.1208 32.5745C18.056 32.5407 17.982 32.5237 17.8985 32.5237C17.8345 32.5237 17.7758 32.5338 17.7215 32.5543C17.6675 32.5745 17.6208 32.6057 17.5816 32.6477C17.5422 32.6896 17.5117 32.7445 17.4895 32.8121C17.4673 32.8797 17.4563 32.9611 17.4563 33.0558C17.4563 33.1505 17.4667 33.2282 17.4871 33.2891C17.5076 33.35 17.5411 33.4043 17.5879 33.4514C17.6346 33.4988 17.6944 33.5442 17.7674 33.5874C17.8401 33.6307 17.9299 33.6821 18.0364 33.7418C18.1217 33.7904 18.2058 33.8419 18.2896 33.8959C18.3731 33.9501 18.448 34.0177 18.5143 34.0989C18.5808 34.18 18.6344 34.2782 18.6753 34.3931C18.7162 34.5083 18.7366 34.6482 18.7366 34.8133C18.7366 35.0001 18.7112 35.1624 18.6604 35.3004C18.6096 35.4383 18.5425 35.552 18.4587 35.6413C18.3752 35.7306 18.2803 35.7969 18.1738 35.8402C18.0674 35.8835 17.9583 35.9052 17.847 35.9052C17.788 35.9052 17.7254 35.8998 17.6589 35.8891C17.5926 35.8783 17.5272 35.8632 17.4624 35.8443C17.3976 35.8254 17.3362 35.803 17.2781 35.7774C17.22 35.7515 17.1688 35.7253 17.1246 35.6981L17.1074 34.521H17.277C17.285 34.7267 17.3026 34.8991 17.3298 35.0384C17.3567 35.1777 17.3946 35.2894 17.4428 35.3733C17.491 35.4573 17.55 35.5169 17.6195 35.552C17.689 35.5873 17.7706 35.6047 17.864 35.6047C17.9344 35.6047 17.9996 35.5946 18.0595 35.5744C18.1191 35.5541 18.1714 35.5216 18.2155 35.4769C18.2596 35.4321 18.2945 35.3733 18.3199 35.3004C18.3453 35.2274 18.358 35.1394 18.358 35.0365C18.358 34.9471 18.3481 34.8735 18.3285 34.8152C18.3087 34.7569 18.2777 34.705 18.2351 34.6589C18.1925 34.6129 18.1376 34.5696 18.0702 34.5289C18.0031 34.4885 17.9228 34.4411 17.8296 34.3869C17.7362 34.3328 17.6464 34.2767 17.5605 34.2185C17.4746 34.1602 17.3986 34.09 17.333 34.0074C17.2676 33.9249 17.215 33.8255 17.1759 33.709C17.1367 33.5926 17.1171 33.4505 17.1171 33.2829C17.1171 33.099 17.1399 32.94 17.1858 32.8061C17.2316 32.672 17.2927 32.5618 17.3689 32.4753C17.4451 32.3887 17.5327 32.325 17.632 32.2845C17.731 32.2441 17.8339 32.2236 17.9404 32.2236C17.9945 32.2236 18.0511 32.2284 18.1098 32.2378C18.1688 32.2473 18.2276 32.2602 18.2855 32.2764C18.3438 32.2925 18.3993 32.3108 18.4525 32.331C18.5057 32.3513 18.5545 32.3711 18.5989 32.3898L18.6159 33.4817H18.4491Z" fill="#064F94"/>
<path d="M23.2726 34.0259L23.2382 35.6334C23.1596 35.6794 23.0748 35.7206 22.9837 35.7572C22.8929 35.7935 22.8008 35.8247 22.7074 35.8506C22.614 35.8762 22.522 35.8958 22.431 35.9093C22.3402 35.9229 22.2554 35.9296 22.1766 35.9296C21.926 35.9296 21.7002 35.8592 21.4996 35.7186C21.2988 35.5778 21.1285 35.377 20.9884 35.1159C20.8485 34.8548 20.7413 34.5374 20.6666 34.1641C20.5919 33.7909 20.5547 33.3701 20.5547 32.9017C20.5547 32.4228 20.5941 31.9899 20.6726 31.6029C20.7512 31.2159 20.8636 30.885 21.0093 30.6104C21.155 30.3357 21.3315 30.1248 21.5388 29.9771C21.7461 29.8297 21.9773 29.7559 22.233 29.7559C22.3051 29.7559 22.3811 29.7619 22.4616 29.7742C22.5421 29.7864 22.6234 29.8041 22.7063 29.8269C22.7889 29.8499 22.871 29.8777 22.9519 29.9102C23.033 29.9427 23.1112 29.9791 23.1867 30.0198L23.2162 31.5013H23.0442C23.0296 31.2064 22.9971 30.9662 22.9472 30.7809C22.8972 30.5955 22.8346 30.4515 22.7592 30.3486C22.6837 30.2458 22.5987 30.1754 22.5035 30.1375C22.4086 30.0996 22.3079 30.0807 22.2013 30.0807C22.0933 30.0807 21.9908 30.0968 21.8942 30.1293C21.7975 30.1618 21.7078 30.2186 21.6251 30.2998C21.5422 30.3809 21.468 30.4892 21.4015 30.6246C21.3352 30.76 21.2792 30.9318 21.2331 31.1401C21.1873 31.3485 21.1518 31.5954 21.1264 31.8808C21.101 32.1664 21.0883 32.4985 21.0883 32.8772C21.0883 33.2534 21.1006 33.5814 21.1251 33.8615C21.1496 34.1415 21.1845 34.383 21.2295 34.586C21.2745 34.789 21.3294 34.956 21.3942 35.0873C21.4589 35.2186 21.531 35.3228 21.6105 35.3998C21.6899 35.4769 21.7764 35.5305 21.8696 35.5602C21.9628 35.5899 22.0614 35.6048 22.1645 35.6048C22.2889 35.6048 22.4041 35.5811 22.5098 35.5337C22.6155 35.4864 22.7089 35.4033 22.79 35.284C22.8712 35.165 22.9381 35.004 22.9917 34.801C23.0449 34.598 23.0813 34.3395 23.1011 34.0257H23.2726V34.0259Z" fill="#064F94"/>
<path d="M24.956 35.7918H23.752V35.467H24.1205V32.6582H23.752V32.3334H24.563V32.9626H24.5727C24.6024 32.8571 24.6388 32.7605 24.6823 32.6724C24.7255 32.5846 24.7735 32.508 24.8258 32.4432C24.8783 32.3782 24.9341 32.3283 24.9928 32.293C25.0518 32.2579 25.1117 32.2402 25.1724 32.2402C25.2705 32.2402 25.3517 32.2876 25.4156 32.3823C25.4795 32.477 25.5114 32.6083 25.5114 32.776C25.5114 32.9247 25.4868 33.0405 25.4375 33.123C25.3883 33.2056 25.3245 33.2467 25.2458 33.2467C25.164 33.2467 25.1011 33.2076 25.0579 33.129C25.0144 33.0504 24.9926 32.9518 24.9926 32.8328C24.9926 32.7706 25 32.7028 25.0148 32.6298C24.9511 32.6677 24.8917 32.728 24.8368 32.8104C24.7819 32.8931 24.7339 32.9966 24.693 33.121C24.6521 33.2454 24.62 33.3896 24.5972 33.5532C24.5744 33.7168 24.563 33.8989 24.563 34.0991V35.467H24.956V35.7918Z" fill="#064F94"/>
<path d="M27.6737 34.692C27.6212 35.0844 27.5196 35.3846 27.3689 35.5932C27.2183 35.8016 27.0226 35.9058 26.7815 35.9058C26.616 35.9058 26.4688 35.8578 26.3392 35.7618C26.2096 35.6658 26.1001 35.5351 26.0101 35.37C25.9199 35.2049 25.8512 35.0123 25.8037 34.7916C25.7561 34.5712 25.7324 34.3364 25.7324 34.0874C25.7324 33.8331 25.757 33.5923 25.806 33.365C25.8553 33.1377 25.9253 32.9401 26.0163 32.7724C26.1072 32.6047 26.2163 32.4715 26.3433 32.3727C26.4701 32.2741 26.6124 32.2246 26.7695 32.2246C26.9135 32.2246 27.0431 32.2666 27.1578 32.3505C27.2723 32.4345 27.3698 32.5513 27.4501 32.7016C27.5304 32.8518 27.5922 33.0311 27.6354 33.2395C27.6789 33.4479 27.7024 33.6764 27.7056 33.9255H26.2238C26.2221 33.9715 26.2212 34.0019 26.2212 34.0168C26.2212 34.0316 26.2212 34.0404 26.2212 34.0432C26.2212 34.3624 26.2355 34.6222 26.2641 34.8226C26.2929 35.0228 26.333 35.1791 26.3846 35.2914C26.4363 35.4038 26.4976 35.4802 26.5689 35.5207C26.6401 35.5614 26.7191 35.5816 26.8061 35.5816C26.8864 35.5816 26.9621 35.5639 27.0334 35.5289C27.1046 35.4938 27.169 35.4376 27.2262 35.3603C27.2835 35.283 27.3339 35.1832 27.3773 35.0598C27.4206 34.9367 27.4555 34.7886 27.4817 34.6154C27.5144 34.6207 27.5472 34.6302 27.5799 34.6438C27.613 34.6569 27.6442 34.673 27.6737 34.692ZM27.2092 33.6082C27.2045 33.3837 27.1899 33.2016 27.1664 33.0623C27.1427 32.9231 27.1111 32.8142 27.0719 32.7356C27.0327 32.657 26.9862 32.6037 26.9329 32.5752C26.8797 32.5468 26.8209 32.5326 26.7572 32.5326C26.6901 32.5326 26.6274 32.5488 26.5693 32.5813C26.5112 32.6138 26.4591 32.6706 26.4132 32.7517C26.3672 32.8329 26.3291 32.9425 26.299 33.0804C26.2686 33.2186 26.2477 33.3943 26.2363 33.6082H27.2092Z" fill="#064F94"/>
<path d="M30.2396 35.7921C30.1709 35.8138 30.107 35.8272 30.0478 35.8326C29.989 35.838 29.9423 35.8408 29.9079 35.8408C29.8211 35.8408 29.7494 35.8293 29.6928 35.8063C29.6362 35.7835 29.5917 35.7501 29.5589 35.7069C29.5262 35.6636 29.5023 35.6109 29.4877 35.5487C29.4731 35.4865 29.464 35.4174 29.4608 35.3416H29.4483C29.4025 35.4471 29.3534 35.5364 29.3009 35.6096C29.2483 35.6825 29.1935 35.7409 29.136 35.7841C29.0787 35.8274 29.0202 35.8586 28.9606 35.8776C28.9007 35.8965 28.8405 35.906 28.7798 35.906C28.6799 35.906 28.5906 35.8836 28.512 35.839C28.4334 35.7945 28.3671 35.7314 28.3129 35.6503C28.2589 35.5691 28.218 35.4725 28.1902 35.3601C28.1622 35.248 28.1484 35.124 28.1484 34.9886C28.1484 34.6126 28.2604 34.3263 28.484 34.1302C28.7076 33.9341 29.0299 33.8293 29.4509 33.8157C29.4524 33.6939 29.4537 33.5843 29.4546 33.4868C29.4554 33.3895 29.4558 33.2935 29.4558 33.1986C29.4558 32.9524 29.4251 32.7799 29.3637 32.6811C29.3024 32.5826 29.2053 32.5331 29.0725 32.5331C28.984 32.5331 28.905 32.5492 28.8351 32.5817C28.7656 32.6142 28.7085 32.6575 28.6644 32.7117C28.7038 32.7741 28.7326 32.8396 28.7516 32.9087C28.7705 32.9778 28.7798 33.046 28.7798 33.1136C28.7798 33.2272 28.7576 33.3219 28.7135 33.3977C28.6691 33.4735 28.6086 33.5114 28.5316 33.5114C28.4989 33.5114 28.4668 33.5032 28.4358 33.487C28.4046 33.4709 28.3775 33.4453 28.3546 33.41C28.3318 33.3747 28.3133 33.3308 28.2993 33.278C28.2855 33.2251 28.2784 33.1637 28.2784 33.0933C28.2784 32.9825 28.2967 32.8749 28.3338 32.7707C28.3706 32.6665 28.4255 32.5737 28.4984 32.4926C28.5714 32.4114 28.6622 32.3464 28.7714 32.2978C28.8803 32.2489 29.0077 32.2246 29.1532 32.2246C29.2712 32.2246 29.3756 32.2435 29.4666 32.2814C29.5574 32.3193 29.6343 32.3824 29.6976 32.4702C29.7604 32.5582 29.8082 32.6751 29.8401 32.8213C29.8719 32.9674 29.8881 33.1487 29.8881 33.3652C29.8881 33.4192 29.8876 33.5079 29.8868 33.631C29.8859 33.7542 29.8846 33.8902 29.8829 34.0389C29.8812 34.1877 29.8799 34.3388 29.8792 34.4916C29.8784 34.6444 29.8779 34.7792 29.8779 34.8954C29.8779 35.0144 29.8794 35.1139 29.8827 35.1937C29.8861 35.2736 29.8943 35.3373 29.9072 35.3846C29.9203 35.432 29.9399 35.4658 29.9662 35.486C29.9922 35.5063 30.0293 35.5166 30.0768 35.5166C30.1175 35.5166 30.1718 35.5084 30.2389 35.4923V35.7921H30.2396ZM29.4509 34.1199C29.2722 34.128 29.128 34.1504 29.0182 34.187C28.9085 34.2234 28.8234 34.275 28.7627 34.3411C28.702 34.4074 28.6609 34.4879 28.6398 34.5826C28.6185 34.6773 28.608 34.7856 28.608 34.9074C28.608 35.1184 28.6347 35.2762 28.6878 35.3803C28.741 35.4845 28.8144 35.5366 28.9076 35.5366C28.9584 35.5366 29.0155 35.519 29.0785 35.4839C29.1416 35.4488 29.2008 35.3911 29.2565 35.3112C29.3123 35.2314 29.3586 35.1266 29.3956 34.9968C29.4324 34.867 29.4509 34.706 29.4509 34.5138V34.1199Z" fill="#064F94"/>
<path d="M32.0477 34.9797C32.0034 35.2963 31.9304 35.5297 31.8288 35.6799C31.7272 35.8301 31.5873 35.905 31.4087 35.905C31.3153 35.905 31.2315 35.8861 31.1568 35.8482C31.0821 35.8103 31.0187 35.7501 30.9663 35.6676C30.914 35.5852 30.8738 35.4795 30.8458 35.351C30.818 35.2225 30.8043 35.0662 30.8043 34.8822V32.6578H30.4355V32.333H30.8043V31.5457L31.2466 31.4238V32.333H31.8854V32.6578H31.2466V34.9715C31.2466 35.0826 31.2526 35.1732 31.2649 35.2434C31.2774 35.3138 31.295 35.3691 31.3178 35.4098C31.3407 35.4502 31.3676 35.478 31.399 35.4928C31.43 35.5077 31.4653 35.5152 31.5045 35.5152C31.557 35.5152 31.602 35.5023 31.6396 35.4767C31.6773 35.4511 31.7105 35.4117 31.7393 35.359C31.7679 35.3062 31.7925 35.2406 31.8129 35.162C31.8336 35.0835 31.8527 34.9928 31.8708 34.8899C31.902 34.8981 31.9322 34.9089 31.9616 34.9224C31.9911 34.9364 32.0198 34.9552 32.0477 34.9797Z" fill="#064F94"/>
<path d="M33.0804 35.4673H33.4489V35.7921H32.2695V35.4673H32.638V32.6586H32.2695V32.3338H33.0806V35.4673H33.0804ZM32.8589 31.1891C32.8165 31.1891 32.7775 31.1777 32.7422 31.1546C32.7071 31.1318 32.6759 31.0985 32.6488 31.0552C32.6217 31.0119 32.6008 30.9611 32.5862 30.9028C32.5715 30.8447 32.564 30.779 32.564 30.7059C32.564 30.6355 32.5717 30.5707 32.5872 30.5111C32.6027 30.4514 32.6236 30.4 32.6499 30.3567C32.6759 30.3135 32.7073 30.2797 32.7433 30.2551C32.7792 30.2308 32.818 30.2188 32.8587 30.2188C32.8996 30.2188 32.9381 30.2304 32.9742 30.2532C33.0102 30.2762 33.0416 30.3094 33.0687 30.3526C33.0959 30.3961 33.1167 30.4467 33.1314 30.505C33.146 30.5634 33.1535 30.6288 33.1535 30.702C33.1535 30.7752 33.1458 30.8412 33.1303 30.9009C33.1148 30.9605 33.0939 31.0113 33.0677 31.053C33.0414 31.095 33.0102 31.1282 32.9742 31.1525C32.9383 31.177 32.9 31.1891 32.8589 31.1891Z" fill="#064F94"/>
<path d="M33.7803 34.0948C33.7803 33.8403 33.8044 33.5995 33.8526 33.3722C33.901 33.1449 33.9718 32.946 34.0653 32.7755C34.1587 32.605 34.2728 32.4705 34.4079 32.3717C34.5431 32.2731 34.6968 32.2236 34.8688 32.2236C35.0393 32.2236 35.1899 32.2719 35.321 32.3679C35.4521 32.4639 35.5619 32.5945 35.6503 32.7594C35.7386 32.9245 35.8055 33.1167 35.8505 33.3358C35.8957 33.5549 35.9181 33.7878 35.9181 34.0339C35.9181 34.2883 35.894 34.5291 35.8456 34.7564C35.7971 34.9837 35.7263 35.1826 35.6331 35.3531C35.5399 35.5236 35.4254 35.6581 35.2902 35.7569C35.1551 35.8555 35.0014 35.905 34.8294 35.905C34.6591 35.905 34.5085 35.857 34.3772 35.761C34.2463 35.665 34.1365 35.5343 34.048 35.3693C33.9596 35.2042 33.8926 35.0122 33.8476 34.7928C33.8027 34.5737 33.7803 34.341 33.7803 34.0948ZM34.2665 34.0784C34.2665 34.3735 34.279 34.6183 34.3035 34.813C34.3279 35.0078 34.364 35.1635 34.4116 35.2799C34.4592 35.3964 34.5188 35.4782 34.5909 35.5255C34.663 35.5729 34.7474 35.5966 34.844 35.5966C34.9389 35.5966 35.0235 35.5722 35.0972 35.5236C35.171 35.4749 35.2323 35.3916 35.2814 35.2739C35.3305 35.1562 35.3677 34.9979 35.3933 34.7988C35.4187 34.6 35.4314 34.3505 35.4314 34.05C35.4314 33.7551 35.4192 33.5102 35.3946 33.3152C35.3701 33.1204 35.3339 32.9647 35.2864 32.8485C35.2388 32.7323 35.1787 32.6503 35.1058 32.6029C35.0328 32.5555 34.9488 32.5319 34.8539 32.5319C34.7573 32.5319 34.6725 32.5562 34.5995 32.6048C34.5265 32.6535 34.4656 32.7368 34.4163 32.8545C34.367 32.9723 34.33 33.1305 34.3044 33.3296C34.2792 33.5285 34.2665 33.7781 34.2665 34.0784Z" fill="#064F94"/>
<path d="M37.0728 35.4668H37.4045V35.7916H36.2617V35.4668H36.6302V32.658H36.2617V32.3332H37.0728V32.9217H37.0825C37.1498 32.6972 37.2396 32.5246 37.3528 32.4042C37.4658 32.2839 37.6115 32.2236 37.7902 32.2236C38.0147 32.2236 38.1815 32.319 38.2915 32.5099C38.4013 32.7006 38.4562 32.9733 38.4562 33.3278V35.467H38.8124V35.7918H37.6821V35.467H38.0138V33.2142C38.0138 33.0005 37.9833 32.8427 37.9228 32.7413C37.8623 32.6397 37.7771 32.5889 37.6671 32.5889C37.5835 32.5889 37.5058 32.618 37.4337 32.6763C37.3616 32.7346 37.299 32.8244 37.2458 32.9462C37.1924 33.068 37.1505 33.2237 37.1193 33.4129C37.0881 33.6023 37.0726 33.827 37.0726 34.0866V35.4668H37.0728Z" fill="#064F94"/>
<path d="M40.5106 33.4817C40.5024 33.3059 40.4847 33.1569 40.4576 33.0353C40.4307 32.9135 40.3941 32.8147 40.3483 32.7389C40.3024 32.6632 40.2471 32.6085 40.1823 32.5745C40.1175 32.5407 40.0435 32.5237 39.96 32.5237C39.896 32.5237 39.8373 32.5338 39.783 32.5543C39.729 32.5745 39.6823 32.6057 39.6431 32.6477C39.6037 32.6896 39.5732 32.7445 39.551 32.8121C39.5288 32.8797 39.5179 32.9611 39.5179 33.0558C39.5179 33.1505 39.5282 33.2282 39.5486 33.2891C39.5691 33.35 39.6027 33.4043 39.6494 33.4514C39.6961 33.4988 39.7559 33.5442 39.8289 33.5874C39.9016 33.6307 39.9914 33.6821 40.098 33.7418C40.1832 33.7904 40.2673 33.8419 40.3511 33.8959C40.4346 33.9501 40.5095 34.0177 40.5758 34.0989C40.6423 34.18 40.6959 34.2782 40.7368 34.3931C40.7777 34.5083 40.7981 34.6482 40.7981 34.8133C40.7981 35.0001 40.7728 35.1624 40.722 35.3004C40.6712 35.4383 40.604 35.552 40.5203 35.6413C40.4367 35.7306 40.3418 35.7969 40.2353 35.8402C40.1289 35.8835 40.0198 35.9052 39.9085 35.9052C39.8496 35.9052 39.7869 35.8998 39.7204 35.8891C39.6541 35.8783 39.5887 35.8632 39.5239 35.8443C39.4591 35.8254 39.3978 35.803 39.3396 35.7774C39.2815 35.7515 39.2303 35.7253 39.1862 35.6981L39.1689 34.521H39.3386C39.3465 34.7267 39.3642 34.8991 39.3913 35.0384C39.4182 35.1777 39.4561 35.2894 39.5043 35.3733C39.5525 35.4573 39.6115 35.5169 39.681 35.552C39.7505 35.5873 39.8321 35.6047 39.9255 35.6047C39.9959 35.6047 40.0611 35.5946 40.121 35.5744C40.1806 35.5541 40.2329 35.5216 40.277 35.4769C40.3212 35.4321 40.356 35.3733 40.3814 35.3004C40.4068 35.2274 40.4195 35.1394 40.4195 35.0365C40.4195 34.9471 40.4096 34.8735 40.39 34.8152C40.3702 34.7569 40.3392 34.705 40.2966 34.6589C40.254 34.6129 40.1991 34.5696 40.1317 34.5289C40.0646 34.4885 39.9843 34.4411 39.8911 34.3869C39.7977 34.3328 39.7079 34.2767 39.622 34.2185C39.5362 34.1602 39.4602 34.09 39.3945 34.0074C39.3291 33.9249 39.2766 33.8255 39.2374 33.709C39.1982 33.5926 39.1786 33.4505 39.1786 33.2829C39.1786 33.099 39.2015 32.94 39.2473 32.8061C39.2931 32.672 39.3543 32.5618 39.4305 32.4753C39.5067 32.3887 39.5943 32.325 39.6935 32.2845C39.7925 32.2441 39.8954 32.2236 40.002 32.2236C40.056 32.2236 40.1126 32.2284 40.1714 32.2378C40.2303 32.2473 40.2891 32.2602 40.347 32.2764C40.4053 32.2925 40.4609 32.3108 40.514 32.331C40.5672 32.3513 40.616 32.3711 40.6604 32.3898L40.6774 33.4817H40.5106Z" fill="#064F94"/>
<path d="M43.4139 32.5684H43.7359C43.8457 32.5684 43.9374 32.5618 44.011 32.5482C44.0848 32.5346 44.144 32.4961 44.189 32.4324C44.2342 32.3689 44.268 32.2701 44.2913 32.1362C44.3141 32.0023 44.3306 31.8136 44.3403 31.5701H44.5149V33.9731H44.3403C44.3321 33.7269 44.3182 33.5327 44.2988 33.3907C44.279 33.2486 44.2471 33.141 44.203 33.068C44.1587 32.9948 44.0995 32.949 44.0248 32.9298C43.9501 32.9111 43.8541 32.9014 43.7361 32.9014H43.4141V35.4667H44.0652C44.1931 35.4667 44.3052 35.4585 44.4019 35.4424C44.4983 35.426 44.5829 35.3963 44.655 35.3531C44.7269 35.3098 44.7889 35.2489 44.8403 35.1703C44.892 35.092 44.9366 34.9904 44.9742 34.866C45.0119 34.7416 45.0438 34.5898 45.07 34.4114C45.0963 34.2329 45.1208 34.0216 45.1438 33.7781H45.3158L45.2665 35.7915H42.4434V35.4667H42.9348V30.2184H42.4434V29.8936H45.2052L45.2545 31.5213H45.0825C45.058 31.2507 45.0274 31.0309 44.9914 30.8617C44.9555 30.6926 44.9051 30.5602 44.8403 30.464C44.7756 30.368 44.6914 30.303 44.5872 30.2692C44.483 30.2354 44.3517 30.2184 44.1929 30.2184H43.4139V32.5684Z" fill="#064F94"/>
<path d="M47.9438 35.4665H48.3125V35.7913H47.5015V35.3001H47.4916C47.4492 35.4166 47.4027 35.5132 47.3527 35.5903C47.3028 35.6673 47.2499 35.7298 47.1943 35.7771C47.1388 35.8245 47.0805 35.8576 47.0198 35.8766C46.9591 35.8955 46.8977 35.905 46.8355 35.905C46.6799 35.905 46.5415 35.857 46.4203 35.761C46.2991 35.665 46.1967 35.5352 46.1129 35.3714C46.0294 35.2076 45.9659 35.0162 45.9224 34.7971C45.8792 34.5778 45.8574 34.344 45.8574 34.095C45.8574 33.8352 45.8811 33.5911 45.9287 33.3623C45.9762 33.1335 46.0436 32.9354 46.1312 32.7675C46.2188 32.5996 46.3239 32.467 46.4457 32.3698C46.5677 32.2722 46.7033 32.2236 46.8525 32.2236C46.9967 32.2236 47.1229 32.2731 47.2309 32.3717C47.3392 32.4705 47.4259 32.6091 47.4914 32.7878H47.5013V30.2184H47.1082V29.8936H47.9436V35.4665H47.9438ZM46.3443 34.0704C46.3443 34.3789 46.3574 34.6311 46.3837 34.8274C46.41 35.0237 46.4468 35.1779 46.4943 35.29C46.5419 35.4024 46.5987 35.4794 46.6652 35.5214C46.7315 35.5634 46.8041 35.5842 46.8826 35.5842C47.0071 35.5842 47.1093 35.5397 47.1887 35.4504C47.2681 35.361 47.3312 35.2433 47.3779 35.0971C47.4246 34.951 47.4569 34.7853 47.4748 34.5999C47.4929 34.4146 47.5019 34.2258 47.5019 34.0336C47.5019 33.7577 47.4868 33.5241 47.4565 33.3334C47.4261 33.1427 47.384 32.989 47.3299 32.8728C47.2759 32.7566 47.2115 32.6726 47.1371 32.6212C47.0624 32.5699 46.981 32.5441 46.8925 32.5441C46.814 32.5441 46.741 32.5643 46.6739 32.605C46.6065 32.6455 46.5484 32.7221 46.4993 32.8343C46.45 32.9466 46.4121 33.1016 46.385 33.299C46.3577 33.4968 46.3443 33.7536 46.3443 34.0704Z" fill="#064F94"/>
<path d="M50.2728 32.658H49.9166V32.3332H50.7152V35.4668H51.0839V35.7916H50.2728V35.272H50.2629C50.1908 35.4885 50.1015 35.6482 49.9952 35.7509C49.8886 35.8538 49.7511 35.905 49.5823 35.905C49.3481 35.905 49.1742 35.811 49.0601 35.6228C48.946 35.4347 48.8894 35.1609 48.8894 34.801V32.6578H48.5332V32.333H49.3318V34.9226C49.3318 35.142 49.3625 35.2995 49.4239 35.3955C49.4852 35.4918 49.5733 35.5398 49.6882 35.5398C49.7685 35.5398 49.8443 35.5148 49.9155 35.4646C49.9868 35.4147 50.049 35.3327 50.1024 35.219C50.1555 35.1054 50.1971 34.9567 50.2276 34.7726C50.258 34.5888 50.273 34.3628 50.273 34.0948V32.658H50.2728Z" fill="#064F94"/>
<path d="M53.3514 34.6679C53.2974 35.0764 53.1962 35.3851 53.0479 35.5934C52.8998 35.8018 52.7076 35.906 52.4717 35.906C52.3079 35.906 52.1609 35.858 52.0306 35.762C51.9004 35.666 51.7898 35.5353 51.6989 35.3702C51.6079 35.2051 51.5379 35.0131 51.4887 34.7938C51.4396 34.5747 51.415 34.342 51.415 34.0957C51.415 33.8387 51.4407 33.5964 51.4923 33.3691C51.5438 33.1418 51.6172 32.9435 51.7121 32.7746C51.807 32.6056 51.9215 32.4715 52.055 32.3727C52.1884 32.2741 52.3372 32.2246 52.501 32.2246C52.6172 32.2246 52.724 32.2498 52.8215 32.2997C52.919 32.3499 53.0029 32.4168 53.0733 32.5008C53.1437 32.5847 53.1986 32.682 53.238 32.7929C53.2774 32.9039 53.2969 33.0202 53.2969 33.142C53.2969 33.2285 53.2879 33.3011 53.2698 33.3592C53.252 33.4175 53.2294 33.464 53.2025 33.4991C53.1753 33.5344 53.1454 33.56 53.1127 33.5761C53.08 33.5925 53.0488 33.6005 53.0193 33.6005C52.939 33.6005 52.8755 33.5585 52.8288 33.4748C52.7821 33.391 52.7588 33.2907 52.7588 33.1743C52.7588 33.1039 52.7696 33.0281 52.7907 32.947C52.8118 32.8658 52.8447 32.7901 52.8888 32.7197C52.8331 32.6467 52.7689 32.5974 52.696 32.5716C52.623 32.5458 52.5563 32.5331 52.4956 32.5331C52.4187 32.5331 52.3445 32.5501 52.2732 32.5836C52.202 32.6176 52.1389 32.6893 52.084 32.7989C52.0291 32.9084 51.9852 33.0647 51.9527 33.2677C51.92 33.4707 51.9034 33.7412 51.9034 34.0794C51.9034 34.3932 51.9185 34.6476 51.9489 34.8424C51.9792 35.0372 52.021 35.1894 52.0741 35.2992C52.1273 35.4088 52.1901 35.4832 52.2623 35.5224C52.3341 35.5616 52.4129 35.5812 52.4982 35.5812C52.575 35.5812 52.648 35.5635 52.7169 35.5284C52.7857 35.4931 52.8484 35.4372 52.9048 35.3599C52.9614 35.2828 53.0113 35.1812 53.0548 35.0553C53.0981 34.9296 53.1329 34.7746 53.159 34.5906C53.1917 34.596 53.2246 34.6055 53.2573 34.619C53.2901 34.6326 53.3221 34.6489 53.3514 34.6679Z" fill="#064F94"/>
<path d="M55.8118 35.7921C55.7432 35.8138 55.6792 35.8272 55.62 35.8326C55.5613 35.838 55.5146 35.8408 55.4801 35.8408C55.3934 35.8408 55.3217 35.8293 55.2651 35.8063C55.2085 35.7835 55.1639 35.7501 55.1312 35.7069C55.0985 35.6636 55.0746 35.6109 55.06 35.5487C55.0453 35.4865 55.0363 35.4174 55.0331 35.3416H55.0206C54.9747 35.4471 54.9257 35.5364 54.8731 35.6096C54.8206 35.6825 54.7657 35.7409 54.7083 35.7841C54.651 35.8274 54.5924 35.8586 54.5328 35.8776C54.473 35.8965 54.4127 35.906 54.352 35.906C54.2521 35.906 54.1628 35.8836 54.0843 35.839C54.0057 35.7945 53.9394 35.7314 53.8852 35.6503C53.8311 35.5691 53.7902 35.4725 53.7625 35.3601C53.7345 35.248 53.7207 35.124 53.7207 34.9886C53.7207 34.6126 53.8326 34.3263 54.0563 34.1302C54.2799 33.9341 54.6021 33.8293 55.0232 33.8157C55.0247 33.6939 55.026 33.5843 55.0268 33.4868C55.0277 33.3895 55.0281 33.2935 55.0281 33.1986C55.0281 32.9524 54.9973 32.7799 54.936 32.6811C54.8746 32.5826 54.7776 32.5331 54.6448 32.5331C54.5563 32.5331 54.4773 32.5492 54.4073 32.5817C54.3378 32.6142 54.2808 32.6575 54.2366 32.7117C54.276 32.7741 54.3049 32.8396 54.3238 32.9087C54.3428 32.9778 54.352 33.046 54.352 33.1136C54.352 33.2272 54.3299 33.3219 54.2857 33.3977C54.2414 33.4735 54.1809 33.5114 54.1038 33.5114C54.0711 33.5114 54.0391 33.5032 54.0081 33.487C53.9768 33.4709 53.9497 33.4453 53.9269 33.41C53.9041 33.3747 53.8856 33.3308 53.8716 33.278C53.8578 33.2251 53.8507 33.1637 53.8507 33.0933C53.8507 32.9825 53.869 32.8749 53.906 32.7707C53.9428 32.6665 53.9977 32.5737 54.0707 32.4926C54.1437 32.4114 54.2345 32.3464 54.3436 32.2978C54.4525 32.2489 54.58 32.2246 54.7255 32.2246C54.8434 32.2246 54.9478 32.2435 55.0389 32.2814C55.1297 32.3193 55.2065 32.3824 55.2698 32.4702C55.3327 32.5582 55.3805 32.6751 55.4123 32.8213C55.4442 32.9674 55.4603 33.1487 55.4603 33.3652C55.4603 33.4192 55.4599 33.5079 55.459 33.631C55.4582 33.7542 55.4569 33.8902 55.4552 34.0389C55.4534 34.1877 55.4521 34.3388 55.4515 34.4916C55.4506 34.6444 55.4502 34.7792 55.4502 34.8954C55.4502 35.0144 55.4517 35.1139 55.4549 35.1937C55.4584 35.2736 55.4666 35.3373 55.4795 35.3846C55.4926 35.432 55.5122 35.4658 55.5385 35.486C55.5645 35.5063 55.6015 35.5166 55.6491 35.5166C55.6898 35.5166 55.744 35.5084 55.8112 35.4923V35.7921H55.8118ZM55.0232 34.1199C54.8445 34.128 54.7003 34.1504 54.5905 34.187C54.4807 34.2234 54.3957 34.275 54.335 34.3411C54.2743 34.4074 54.2332 34.4879 54.2121 34.5826C54.1908 34.6773 54.1803 34.7856 54.1803 34.9074C54.1803 35.1184 54.2069 35.2762 54.2601 35.3803C54.3133 35.4845 54.3867 35.5366 54.4799 35.5366C54.5307 35.5366 54.5877 35.519 54.6508 35.4839C54.7138 35.4488 54.773 35.3911 54.8288 35.3112C54.8845 35.2314 54.9308 35.1266 54.9678 34.9968C55.0047 34.867 55.0232 34.706 55.0232 34.5138V34.1199Z" fill="#064F94"/>
<path d="M57.62 34.9797C57.5757 35.2963 57.5027 35.5297 57.4011 35.6799C57.2995 35.8301 57.1596 35.905 56.9809 35.905C56.8875 35.905 56.8038 35.8861 56.7291 35.8482C56.6544 35.8103 56.5909 35.7501 56.5386 35.6676C56.4863 35.5852 56.4461 35.4795 56.4181 35.351C56.3903 35.2225 56.3765 35.0662 56.3765 34.8822V32.6578H56.0078V32.333H56.3765V31.5457L56.8189 31.4238V32.333H57.4577V32.6578H56.8189V34.9715C56.8189 35.0826 56.8249 35.1732 56.8372 35.2434C56.8496 35.3138 56.8673 35.3691 56.8901 35.4098C56.9129 35.4502 56.9398 35.478 56.9713 35.4928C57.0023 35.5077 57.0376 35.5152 57.0767 35.5152C57.1292 35.5152 57.1742 35.5023 57.2119 35.4767C57.2496 35.4511 57.2827 35.4117 57.3116 35.359C57.3402 35.3062 57.3647 35.2406 57.3852 35.162C57.4058 35.0835 57.425 34.9928 57.4431 34.8899C57.4743 34.8981 57.5044 34.9089 57.5339 34.9224C57.5636 34.9364 57.5922 34.9552 57.62 34.9797Z" fill="#064F94"/>
<path d="M58.6517 35.4673H59.0202V35.7921H57.8408V35.4673H58.2093V32.6586H57.8408V32.3338H58.6519V35.4673H58.6517ZM58.4304 31.1891C58.388 31.1891 58.349 31.1777 58.3137 31.1546C58.2786 31.1318 58.2474 31.0985 58.2203 31.0552C58.1932 31.0119 58.1723 30.9611 58.1577 30.9028C58.143 30.8447 58.1355 30.779 58.1355 30.7059C58.1355 30.6355 58.1432 30.5707 58.1587 30.5111C58.1742 30.4514 58.1951 30.4 58.2214 30.3567C58.2474 30.3135 58.2788 30.2797 58.3148 30.2551C58.3507 30.2308 58.3895 30.2188 58.4302 30.2188C58.4711 30.2188 58.5096 30.2304 58.5458 30.2532C58.5817 30.2762 58.6131 30.3094 58.6403 30.3526C58.6674 30.3961 58.6882 30.4467 58.7029 30.505C58.7175 30.5634 58.7251 30.6288 58.7251 30.702C58.7251 30.7752 58.7173 30.8412 58.7018 30.9009C58.6863 30.9605 58.6654 31.0113 58.6392 31.053C58.6129 31.095 58.5817 31.1282 58.5458 31.1525C58.5098 31.177 58.4713 31.1891 58.4304 31.1891Z" fill="#064F94"/>
<path d="M59.3525 34.0948C59.3525 33.8403 59.3766 33.5995 59.4249 33.3722C59.4733 33.1449 59.5441 32.946 59.6375 32.7755C59.7309 32.605 59.845 32.4705 59.9802 32.3717C60.1154 32.2731 60.2691 32.2236 60.441 32.2236C60.6115 32.2236 60.7622 32.2719 60.8933 32.3679C61.0244 32.4639 61.1341 32.5945 61.2226 32.7594C61.3109 32.9245 61.3778 33.1167 61.4228 33.3358C61.468 33.5549 61.4904 33.7878 61.4904 34.0339C61.4904 34.2883 61.4663 34.5291 61.4178 34.7564C61.3694 34.9837 61.2986 35.1826 61.2054 35.3531C61.1122 35.5236 60.9977 35.6581 60.8625 35.7569C60.7273 35.8555 60.5736 35.905 60.4017 35.905C60.2314 35.905 60.0807 35.857 59.9494 35.761C59.8186 35.665 59.7088 35.5343 59.6203 35.3693C59.5318 35.2042 59.4649 35.0122 59.4199 34.7928C59.3751 34.5737 59.3525 34.341 59.3525 34.0948ZM59.839 34.0784C59.839 34.3735 59.8515 34.6183 59.876 34.813C59.9003 35.0078 59.9365 35.1635 59.9841 35.2799C60.0316 35.3964 60.0913 35.4782 60.1634 35.5255C60.2355 35.5729 60.3199 35.5966 60.4165 35.5966C60.5114 35.5966 60.596 35.5722 60.6696 35.5236C60.7435 35.4749 60.8048 35.3916 60.8539 35.2739C60.903 35.1562 60.9402 34.9979 60.9658 34.7988C60.9912 34.6 61.0039 34.3505 61.0039 34.05C61.0039 33.7551 60.9916 33.5102 60.9671 33.3152C60.9426 33.1204 60.9064 32.9647 60.8588 32.8485C60.8113 32.7323 60.7512 32.6503 60.6782 32.6029C60.6053 32.5555 60.5213 32.5319 60.4264 32.5319C60.3298 32.5319 60.245 32.5562 60.172 32.6048C60.099 32.6535 60.0381 32.7368 59.9888 32.8545C59.9395 32.9723 59.9025 33.1305 59.8769 33.3296C59.8517 33.5285 59.839 33.7781 59.839 34.0784Z" fill="#064F94"/>
<path d="M62.645 35.4668H62.9767V35.7916H61.834V35.4668H62.2025V32.658H61.834V32.3332H62.645V32.9217H62.6547C62.7221 32.6972 62.8118 32.5246 62.9251 32.4042C63.0381 32.2839 63.1838 32.2236 63.3624 32.2236C63.5869 32.2236 63.7538 32.319 63.8638 32.5099C63.9735 32.7006 64.0284 32.9733 64.0284 33.3278V35.467H64.3847V35.7918H63.2544V35.467H63.5861V33.2142C63.5861 33.0005 63.5555 32.8427 63.495 32.7413C63.4346 32.6397 63.3493 32.5889 63.2393 32.5889C63.1558 32.5889 63.0781 32.618 63.006 32.6763C62.9339 32.7346 62.8713 32.8244 62.8181 32.9462C62.7647 33.068 62.7227 33.2237 62.6915 33.4129C62.6603 33.6023 62.6448 33.827 62.6448 34.0866L62.645 35.4668Z" fill="#064F94"/>
<path d="M66.7825 35.7921C66.7139 35.8138 66.6499 35.8272 66.5907 35.8326C66.532 35.838 66.4853 35.8408 66.4508 35.8408C66.3641 35.8408 66.2924 35.8293 66.2358 35.8063C66.1792 35.7835 66.1346 35.7501 66.1019 35.7069C66.0692 35.6636 66.0453 35.6109 66.0307 35.5487C66.016 35.4865 66.007 35.4174 66.0038 35.3416H65.9913C65.9454 35.4471 65.8964 35.5364 65.8438 35.6096C65.7913 35.6825 65.7364 35.7409 65.679 35.7841C65.6217 35.8274 65.5632 35.8586 65.5035 35.8776C65.4437 35.8965 65.3834 35.906 65.3227 35.906C65.2229 35.906 65.1335 35.8836 65.055 35.839C64.9764 35.7945 64.9101 35.7314 64.8559 35.6503C64.8018 35.5691 64.7609 35.4725 64.7332 35.3601C64.7052 35.248 64.6914 35.124 64.6914 34.9886C64.6914 34.6126 64.8033 34.3263 65.027 34.1302C65.2506 33.9341 65.5728 33.8293 65.9939 33.8157C65.9954 33.6939 65.9967 33.5843 65.9975 33.4868C65.9984 33.3895 65.9988 33.2935 65.9988 33.1986C65.9988 32.9524 65.968 32.7799 65.9067 32.6811C65.8453 32.5826 65.7483 32.5331 65.6155 32.5331C65.527 32.5331 65.448 32.5492 65.378 32.5817C65.3085 32.6142 65.2515 32.6575 65.2074 32.7117C65.2467 32.7741 65.2756 32.8396 65.2945 32.9087C65.3135 32.9778 65.3227 33.046 65.3227 33.1136C65.3227 33.2272 65.3006 33.3219 65.2564 33.3977C65.2121 33.4735 65.1516 33.5114 65.0745 33.5114C65.0418 33.5114 65.0098 33.5032 64.9788 33.487C64.9476 33.4709 64.9204 33.4453 64.8976 33.41C64.8748 33.3747 64.8563 33.3308 64.8423 33.278C64.8285 33.2251 64.8214 33.1637 64.8214 33.0933C64.8214 32.9825 64.8397 32.8749 64.8767 32.7707C64.9135 32.6665 64.9684 32.5737 65.0414 32.4926C65.1144 32.4114 65.2052 32.3464 65.3143 32.2978C65.4232 32.2489 65.5507 32.2246 65.6962 32.2246C65.8141 32.2246 65.9185 32.2435 66.0096 32.2814C66.1004 32.3193 66.1773 32.3824 66.2405 32.4702C66.3034 32.5582 66.3512 32.6751 66.383 32.8213C66.4149 32.9674 66.431 33.1487 66.431 33.3652C66.431 33.4192 66.4306 33.5079 66.4297 33.631C66.4289 33.7542 66.4276 33.8902 66.4259 34.0389C66.4241 34.1877 66.4229 34.3388 66.4222 34.4916C66.4213 34.6444 66.4209 34.7792 66.4209 34.8954C66.4209 35.0144 66.4224 35.1139 66.4256 35.1937C66.4291 35.2736 66.4373 35.3373 66.4502 35.3846C66.4633 35.432 66.4829 35.4658 66.5092 35.486C66.5352 35.5063 66.5722 35.5166 66.6198 35.5166C66.6605 35.5166 66.7147 35.5084 66.7819 35.4923V35.7921H66.7825ZM65.9939 34.1199C65.8152 34.128 65.671 34.1504 65.5612 34.187C65.4514 34.2234 65.3664 34.275 65.3057 34.3411C65.245 34.4074 65.2039 34.4879 65.1828 34.5826C65.1615 34.6773 65.151 34.7856 65.151 34.9074C65.151 35.1184 65.1777 35.2762 65.2308 35.3803C65.284 35.4845 65.3574 35.5366 65.4506 35.5366C65.5014 35.5366 65.5584 35.519 65.6215 35.4839C65.6846 35.4488 65.7437 35.3911 65.7995 35.3112C65.8552 35.2314 65.9015 35.1266 65.9385 34.9968C65.9754 34.867 65.9939 34.706 65.9939 34.5138V34.1199Z" fill="#064F94"/>
<path d="M67.8265 35.4667H68.1952V35.7915H67.0156V35.4667H67.3843V30.2184H67.0156V29.8936H67.8267V35.4667H67.8265Z" fill="#064F94"/>
<path d="M70.7506 30.2186V32.6905H71.0726C71.1824 32.6905 71.2741 32.6838 71.3477 32.6702C71.4213 32.6567 71.4807 32.6175 71.5257 32.5525C71.5709 32.4875 71.6047 32.3868 71.628 32.2501C71.6508 32.1134 71.6673 31.9205 71.677 31.6715H71.8516V34.1152H71.677C71.6688 33.8636 71.6549 33.6653 71.6355 33.5205C71.6157 33.3758 71.5838 33.266 71.5397 33.1916C71.4954 33.1173 71.4362 33.0706 71.3615 33.0517C71.2868 33.0327 71.1908 33.0232 71.0728 33.0232H70.7508V35.4667H71.2668V35.7915H69.7803V35.4667H70.2717V30.2184H69.7803V29.8936H72.5176L72.5716 31.6024H72.3996C72.3783 31.3101 72.3497 31.074 72.3137 30.894C72.2776 30.7141 72.2266 30.5742 72.16 30.4739C72.0937 30.3738 72.0079 30.3062 71.9022 30.2709C71.7965 30.2358 71.6643 30.2181 71.5053 30.2181H70.7506V30.2186Z" fill="#064F94"/>
<path d="M72.6582 34.0948C72.6582 33.8403 72.6823 33.5995 72.7305 33.3722C72.779 33.1449 72.8498 32.946 72.9432 32.7755C73.0366 32.605 73.1507 32.4705 73.2859 32.3717C73.421 32.2731 73.5747 32.2236 73.7467 32.2236C73.9172 32.2236 74.0679 32.2719 74.1989 32.3679C74.33 32.4639 74.4398 32.5945 74.5283 32.7594C74.6165 32.9245 74.6835 33.1167 74.7284 33.3358C74.7736 33.5549 74.796 33.7878 74.796 34.0339C74.796 34.2883 74.7719 34.5291 74.7235 34.7564C74.6751 34.9837 74.6042 35.1826 74.511 35.3531C74.4178 35.5236 74.3033 35.6581 74.1682 35.7569C74.033 35.8555 73.8793 35.905 73.7073 35.905C73.5371 35.905 73.3864 35.857 73.2551 35.761C73.1242 35.665 73.0144 35.5343 72.926 35.3693C72.8375 35.2042 72.7706 35.0122 72.7256 34.7928C72.6806 34.5737 72.6582 34.341 72.6582 34.0948ZM73.1444 34.0784C73.1444 34.3735 73.1569 34.6183 73.1815 34.813C73.2058 35.0078 73.2419 35.1635 73.2895 35.2799C73.3371 35.3964 73.3967 35.4782 73.4688 35.5255C73.5409 35.5729 73.6253 35.5966 73.7219 35.5966C73.8169 35.5966 73.9015 35.5722 73.9751 35.5236C74.0489 35.4749 74.1103 35.3916 74.1593 35.2739C74.2084 35.1562 74.2456 34.9979 74.2713 34.7988C74.2967 34.6 74.3094 34.3505 74.3094 34.05C74.3094 33.7551 74.2971 33.5102 74.2726 33.3152C74.248 33.1204 74.2118 32.9647 74.1643 32.8485C74.1167 32.7323 74.0567 32.6503 73.9837 32.6029C73.9107 32.5555 73.8268 32.5319 73.7319 32.5319C73.6352 32.5319 73.5504 32.5562 73.4774 32.6048C73.4045 32.6535 73.3435 32.7368 73.2943 32.8545C73.245 32.9723 73.2079 33.1305 73.1823 33.3296C73.1571 33.5285 73.1444 33.7781 73.1444 34.0784Z" fill="#064F94"/>
<path d="M76.8422 32.658H76.4859V32.3332H77.2845V35.4668H77.6532V35.7916H76.8422V35.272H76.8323C76.7601 35.4885 76.6708 35.6482 76.5645 35.7509C76.4579 35.8538 76.3204 35.905 76.1516 35.905C75.9175 35.905 75.7435 35.811 75.6295 35.6228C75.5154 35.4347 75.4588 35.1609 75.4588 34.801V32.6578H75.1025V32.333H75.9011V34.9226C75.9011 35.142 75.9319 35.2995 75.9932 35.3955C76.0546 35.4918 76.1426 35.5398 76.2576 35.5398C76.3378 35.5398 76.4136 35.5148 76.4849 35.4646C76.5561 35.4147 76.6183 35.3327 76.6717 35.219C76.7248 35.1054 76.7664 34.9567 76.797 34.7726C76.8273 34.5888 76.8424 34.3628 76.8424 34.0948L76.8422 32.658Z" fill="#064F94"/>
<path d="M78.7222 35.4668H79.0539V35.7916H77.9111V35.4668H78.2796V32.658H77.9111V32.3332H78.7222V32.9217H78.7319C78.7992 32.6972 78.889 32.5246 79.0022 32.4042C79.1152 32.2839 79.2609 32.2236 79.4396 32.2236C79.6641 32.2236 79.8309 32.319 79.9409 32.5099C80.0507 32.7006 80.1056 32.9733 80.1056 33.3278V35.467H80.4618V35.7918H79.3315V35.467H79.6632V33.2142C79.6632 33.0005 79.6327 32.8427 79.5722 32.7413C79.5117 32.6397 79.4265 32.5889 79.3165 32.5889C79.233 32.5889 79.1553 32.618 79.0832 32.6763C79.011 32.7346 78.9484 32.8244 78.8952 32.9462C78.8419 33.068 78.7999 33.2237 78.7687 33.4129C78.7375 33.6023 78.722 33.827 78.722 34.0866V35.4668H78.7222Z" fill="#064F94"/>
<path d="M82.8676 35.4665H83.2363V35.7913H82.4253V35.3001H82.4154C82.373 35.4166 82.3265 35.5132 82.2766 35.5903C82.2266 35.6673 82.1737 35.7298 82.1181 35.7771C82.0626 35.8245 82.0043 35.8576 81.9436 35.8766C81.8829 35.8955 81.8215 35.905 81.7593 35.905C81.6037 35.905 81.4653 35.857 81.3441 35.761C81.2229 35.665 81.1205 35.5352 81.0367 35.3714C80.9532 35.2076 80.8897 35.0162 80.8462 34.7971C80.803 34.5778 80.7812 34.344 80.7812 34.095C80.7812 33.8352 80.8049 33.5911 80.8525 33.3623C80.9001 33.1335 80.9674 32.9354 81.055 32.7675C81.1426 32.5996 81.2477 32.467 81.3695 32.3698C81.4916 32.2722 81.6272 32.2236 81.7763 32.2236C81.9205 32.2236 82.0467 32.2731 82.1547 32.3717C82.263 32.4705 82.3497 32.6091 82.4152 32.7878H82.4251V30.2184H82.032V29.8936H82.8674V35.4665H82.8676ZM81.2681 34.0704C81.2681 34.3789 81.2813 34.6311 81.3075 34.8274C81.3338 35.0237 81.3706 35.1779 81.4182 35.29C81.4657 35.4024 81.5226 35.4794 81.5891 35.5214C81.6554 35.5634 81.7279 35.5842 81.8065 35.5842C81.9309 35.5842 82.0331 35.5397 82.1125 35.4504C82.192 35.361 82.255 35.2433 82.3018 35.0971C82.3485 34.951 82.3807 34.7853 82.3986 34.5999C82.4167 34.4146 82.4257 34.2258 82.4257 34.0336C82.4257 33.7577 82.4107 33.5241 82.3803 33.3334C82.35 33.1427 82.3078 32.989 82.2537 32.8728C82.1997 32.7566 82.1354 32.6726 82.0609 32.6212C81.9862 32.5699 81.9048 32.5441 81.8164 32.5441C81.7378 32.5441 81.6648 32.5643 81.5977 32.605C81.5303 32.6455 81.4722 32.7221 81.4231 32.8343C81.3738 32.9466 81.3359 33.1016 81.3088 33.299C81.2815 33.4968 81.2681 33.7536 81.2681 34.0704Z" fill="#064F94"/>
<path d="M85.6468 35.7921C85.5781 35.8138 85.5142 35.8272 85.455 35.8326C85.3962 35.838 85.3495 35.8408 85.3151 35.8408C85.2283 35.8408 85.1567 35.8293 85.1001 35.8063C85.0435 35.7835 84.9989 35.7501 84.9662 35.7069C84.9335 35.6636 84.9096 35.6109 84.8949 35.5487C84.8803 35.4865 84.8713 35.4174 84.868 35.3416H84.8555C84.8097 35.4471 84.7606 35.5364 84.7081 35.6096C84.6556 35.6825 84.6007 35.7409 84.5432 35.7841C84.486 35.8274 84.4274 35.8586 84.3678 35.8776C84.308 35.8965 84.2477 35.906 84.187 35.906C84.0871 35.906 83.9978 35.8836 83.9192 35.839C83.8406 35.7945 83.7744 35.7314 83.7201 35.6503C83.6661 35.5691 83.6252 35.4725 83.5974 35.3601C83.5694 35.248 83.5557 35.124 83.5557 34.9886C83.5557 34.6126 83.6676 34.3263 83.8912 34.1302C84.1149 33.9341 84.4371 33.8293 84.8581 33.8157C84.8596 33.6939 84.8609 33.5843 84.8618 33.4868C84.8626 33.3895 84.8631 33.2935 84.8631 33.1986C84.8631 32.9524 84.8323 32.7799 84.7709 32.6811C84.7096 32.5826 84.6125 32.5331 84.4797 32.5331C84.3913 32.5331 84.3123 32.5492 84.2423 32.5817C84.1728 32.6142 84.1157 32.6575 84.0716 32.7117C84.111 32.7741 84.1398 32.8396 84.1588 32.9087C84.1777 32.9778 84.187 33.046 84.187 33.1136C84.187 33.2272 84.1648 33.3219 84.1207 33.3977C84.0763 33.4735 84.0159 33.5114 83.9388 33.5114C83.9061 33.5114 83.874 33.5032 83.843 33.487C83.8118 33.4709 83.7847 33.4453 83.7619 33.41C83.7391 33.3747 83.7205 33.3308 83.7066 33.278C83.6928 33.2251 83.6857 33.1637 83.6857 33.0933C83.6857 32.9825 83.704 32.8749 83.741 32.7707C83.7778 32.6665 83.8327 32.5737 83.9057 32.4926C83.9786 32.4114 84.0695 32.3464 84.1786 32.2978C84.2875 32.2489 84.4149 32.2246 84.5604 32.2246C84.6784 32.2246 84.7828 32.2435 84.8738 32.2814C84.9647 32.3193 85.0415 32.3824 85.1048 32.4702C85.1677 32.5582 85.2154 32.6751 85.2473 32.8213C85.2791 32.9674 85.2953 33.1487 85.2953 33.3652C85.2953 33.4192 85.2949 33.5079 85.294 33.631C85.2931 33.7542 85.2918 33.8902 85.2901 34.0389C85.2884 34.1877 85.2871 34.3388 85.2865 34.4916C85.2856 34.6444 85.2852 34.7792 85.2852 34.8954C85.2852 35.0144 85.2867 35.1139 85.2899 35.1937C85.2934 35.2736 85.3015 35.3373 85.3144 35.3846C85.3276 35.432 85.3472 35.4658 85.3734 35.486C85.3995 35.5063 85.4365 35.5166 85.4841 35.5166C85.5247 35.5166 85.579 35.5084 85.6461 35.4923V35.7921H85.6468ZM84.8581 34.1199C84.6795 34.128 84.5353 34.1504 84.4255 34.187C84.3157 34.2234 84.2307 34.275 84.17 34.3411C84.1093 34.4074 84.0682 34.4879 84.0471 34.5826C84.0258 34.6773 84.0152 34.7856 84.0152 34.9074C84.0152 35.1184 84.0419 35.2762 84.0951 35.3803C84.1482 35.4845 84.2216 35.5366 84.3148 35.5366C84.3656 35.5366 84.4227 35.519 84.4857 35.4839C84.5488 35.4488 84.608 35.3911 84.6638 35.3112C84.7195 35.2314 84.7658 35.1266 84.8028 34.9968C84.8396 34.867 84.8581 34.706 84.8581 34.5138V34.1199Z" fill="#064F94"/>
<path d="M87.456 34.9797C87.4116 35.2963 87.3386 35.5297 87.237 35.6799C87.1354 35.8301 86.9955 35.905 86.8169 35.905C86.7235 35.905 86.6397 35.8861 86.565 35.8482C86.4904 35.8103 86.4269 35.7501 86.3745 35.6676C86.3222 35.5852 86.282 35.4795 86.254 35.351C86.2262 35.2225 86.2125 35.0662 86.2125 34.8822V32.6578H85.8438V32.333H86.2125V31.5457L86.6548 31.4238V32.333H87.2937V32.6578H86.6548V34.9715C86.6548 35.0826 86.6608 35.1732 86.6731 35.2434C86.6856 35.3138 86.7032 35.3691 86.726 35.4098C86.7489 35.4502 86.7758 35.478 86.8072 35.4928C86.8382 35.5077 86.8735 35.5152 86.9127 35.5152C86.9652 35.5152 87.0102 35.5023 87.0478 35.4767C87.0855 35.4511 87.1187 35.4117 87.1475 35.359C87.1761 35.3062 87.2007 35.2406 87.2211 35.162C87.2418 35.0835 87.2609 34.9928 87.279 34.8899C87.3102 34.8981 87.3404 34.9089 87.3699 34.9224C87.3993 34.9364 87.428 34.9552 87.456 34.9797Z" fill="#064F94"/>
<path d="M88.4876 35.4673H88.8561V35.7921H87.6768V35.4673H88.0453V32.6586H87.6768V32.3338H88.4878V35.4673H88.4876ZM88.2661 31.1891C88.2237 31.1891 88.1847 31.1777 88.1494 31.1546C88.1144 31.1318 88.0831 31.0985 88.056 31.0552C88.0289 31.0119 88.008 30.9611 87.9934 30.9028C87.9788 30.8447 87.9712 30.779 87.9712 30.7059C87.9712 30.6355 87.979 30.5707 87.9945 30.5111C88.01 30.4514 88.0308 30.4 88.0571 30.3567C88.0831 30.3135 88.1146 30.2797 88.1505 30.2551C88.1865 30.2308 88.2252 30.2188 88.2659 30.2188C88.3068 30.2188 88.3453 30.2304 88.3815 30.2532C88.4174 30.2762 88.4489 30.3094 88.476 30.3526C88.5031 30.3961 88.524 30.4467 88.5386 30.505C88.5532 30.5634 88.5608 30.6288 88.5608 30.702C88.5608 30.7752 88.553 30.8412 88.5375 30.9009C88.522 30.9605 88.5012 31.0113 88.4749 31.053C88.4486 31.095 88.4174 31.1282 88.3815 31.1525C88.3457 31.177 88.3072 31.1891 88.2661 31.1891Z" fill="#064F94"/>
<path d="M89.1875 34.0948C89.1875 33.8403 89.2116 33.5995 89.2598 33.3722C89.3083 33.1449 89.3791 32.946 89.4725 32.7755C89.5659 32.605 89.68 32.4705 89.8152 32.3717C89.9503 32.2731 90.104 32.2236 90.276 32.2236C90.4465 32.2236 90.5971 32.2719 90.7282 32.3679C90.8593 32.4639 90.9691 32.5945 91.0576 32.7594C91.1458 32.9245 91.2128 33.1167 91.2577 33.3358C91.3029 33.5549 91.3253 33.7878 91.3253 34.0339C91.3253 34.2883 91.3012 34.5291 91.2528 34.7564C91.2044 34.9837 91.1335 35.1826 91.0403 35.3531C90.9471 35.5236 90.8326 35.6581 90.6975 35.7569C90.5623 35.8555 90.4086 35.905 90.2366 35.905C90.0664 35.905 89.9157 35.857 89.7844 35.761C89.6535 35.665 89.5437 35.5343 89.4553 35.3693C89.3668 35.2042 89.2999 35.0122 89.2549 34.7928C89.2099 34.5737 89.1875 34.341 89.1875 34.0948ZM89.6737 34.0784C89.6737 34.3735 89.6862 34.6183 89.7108 34.813C89.7351 35.0078 89.7712 35.1635 89.8188 35.2799C89.8664 35.3964 89.926 35.4782 89.9981 35.5255C90.0702 35.5729 90.1546 35.5966 90.2512 35.5966C90.3462 35.5966 90.4308 35.5722 90.5044 35.5236C90.5782 35.4749 90.6396 35.3916 90.6886 35.2739C90.7377 35.1562 90.7749 34.9979 90.8006 34.7988C90.826 34.6 90.8387 34.3505 90.8387 34.05C90.8387 33.7551 90.8264 33.5102 90.8018 33.3152C90.7773 33.1204 90.7411 32.9647 90.6936 32.8485C90.646 32.7323 90.586 32.6503 90.513 32.6029C90.44 32.5555 90.3561 32.5319 90.2611 32.5319C90.1645 32.5319 90.0797 32.5562 90.0067 32.6048C89.9338 32.6535 89.8728 32.7368 89.8236 32.8545C89.7743 32.9723 89.7372 33.1305 89.7116 33.3296C89.6864 33.5285 89.6737 33.7781 89.6737 34.0784Z" fill="#064F94"/>
<path d="M92.48 35.4668H92.8117V35.7916H91.6689V35.4668H92.0374V32.658H91.6689V32.3332H92.48V32.9217H92.4897C92.5571 32.6972 92.6468 32.5246 92.76 32.4042C92.873 32.2839 93.0188 32.2236 93.1974 32.2236C93.4219 32.2236 93.5887 32.319 93.6987 32.5099C93.8085 32.7006 93.8634 32.9733 93.8634 33.3278V35.467H94.2196V35.7918H93.0894V35.467H93.4211V33.2142C93.4211 33.0005 93.3905 32.8427 93.33 32.7413C93.2695 32.6397 93.1843 32.5889 93.0743 32.5889C92.9908 32.5889 92.9131 32.618 92.841 32.6763C92.7689 32.7346 92.7062 32.8244 92.6531 32.9462C92.5997 33.068 92.5577 33.2237 92.5265 33.4129C92.4953 33.6023 92.4798 33.827 92.4798 34.0866V35.4668H92.48Z" fill="#064F94"/>
</svg>
