<svg width="163" height="56" viewBox="0 0 163 56" fill="none" xmlns="http://www.w3.org/2000/svg">
<g clip-path="url(#clip0_330_1371)">
<path d="M13.0525 55.5107V45.1096H16.6888C17.4134 45.1096 18.011 45.2349 18.4816 45.4854C18.9522 45.7326 19.3026 46.0661 19.5329 46.4859C19.7631 46.9024 19.8782 47.3645 19.8782 47.8724C19.8782 48.3193 19.7987 48.6884 19.6395 48.9796C19.4838 49.2707 19.2772 49.501 19.0199 49.6703C18.766 49.8396 18.4901 49.9648 18.1921 50.0461V50.1477C18.5104 50.168 18.8303 50.2797 19.152 50.4828C19.4736 50.686 19.7428 50.9772 19.9595 51.3564C20.1762 51.7356 20.2845 52.1994 20.2845 52.7479C20.2845 53.2694 20.166 53.7383 19.929 54.1547C19.692 54.5712 19.3179 54.9013 18.8066 55.1451C18.2954 55.3889 17.6301 55.5107 16.8107 55.5107H13.0525ZM14.312 54.3934H16.8107C17.6335 54.3934 18.2175 54.2343 18.5628 53.916C18.9116 53.5944 19.086 53.205 19.086 52.7479C19.086 52.3958 18.9962 52.0708 18.8168 51.7728C18.6373 51.4715 18.3817 51.2311 18.0499 51.0517C17.7181 50.8688 17.3253 50.7774 16.8716 50.7774H14.312V54.3934ZM14.312 49.6804H16.6482C17.0274 49.6804 17.3694 49.6059 17.6741 49.457C17.9822 49.308 18.226 49.0981 18.4054 48.8272C18.5882 48.5563 18.6797 48.2381 18.6797 47.8724C18.6797 47.4153 18.5205 47.0277 18.2023 46.7094C17.884 46.3877 17.3795 46.2269 16.6888 46.2269H14.312V49.6804ZM29.1798 45.1096H30.4393V51.9963C30.4393 52.7073 30.2717 53.3421 29.9366 53.9008C29.6047 54.4561 29.1358 54.8945 28.5298 55.2162C27.9237 55.5344 27.2127 55.6936 26.3967 55.6936C25.5807 55.6936 24.8697 55.5344 24.2637 55.2162C23.6576 54.8945 23.187 54.4561 22.8518 53.9008C22.52 53.3421 22.3541 52.7073 22.3541 51.9963V45.1096H23.6136V51.8947C23.6136 52.4026 23.7253 52.8546 23.9488 53.2507C24.1723 53.6435 24.4905 53.9533 24.9036 54.1801C25.32 54.4036 25.8177 54.5153 26.3967 54.5153C26.9757 54.5153 27.4734 54.4036 27.8898 54.1801C28.3063 53.9533 28.6246 53.6435 28.8446 53.2507C29.0681 52.8546 29.1798 52.4026 29.1798 51.8947V45.1096ZM38.6427 47.7099C38.5817 47.1953 38.3346 46.7957 37.9012 46.5113C37.4678 46.2269 36.9362 46.0847 36.3065 46.0847C35.846 46.0847 35.4431 46.1592 35.0978 46.3082C34.7558 46.4571 34.4883 46.662 34.2953 46.9227C34.1057 47.1834 34.0109 47.4797 34.0109 47.8115C34.0109 48.0891 34.0769 48.3278 34.209 48.5276C34.3444 48.7239 34.5171 48.8881 34.727 49.0202C34.9369 49.1488 35.157 49.2555 35.3872 49.3401C35.6175 49.4214 35.8291 49.4874 36.0221 49.5382L37.0784 49.8226C37.3493 49.8937 37.6506 49.9919 37.9824 50.1172C38.3176 50.2425 38.6376 50.4134 38.9423 50.6301C39.2504 50.8434 39.5044 51.1177 39.7041 51.4529C39.9039 51.7881 40.0038 52.1994 40.0038 52.687C40.0038 53.249 39.8565 53.7569 39.5619 54.2106C39.2707 54.6643 38.8441 55.0249 38.2821 55.2924C37.7234 55.5598 37.0446 55.6936 36.2455 55.6936C35.5007 55.6936 34.8557 55.5734 34.3106 55.333C33.7688 55.0926 33.3422 54.7574 33.0307 54.3274C32.7226 53.8974 32.5483 53.398 32.5076 52.8292H33.8078C33.8416 53.222 33.9737 53.547 34.2039 53.8043C34.4375 54.0582 34.7321 54.2478 35.0876 54.3731C35.4465 54.495 35.8325 54.556 36.2455 54.556C36.7263 54.556 37.158 54.4781 37.5406 54.3223C37.9232 54.1632 38.2262 53.9431 38.4497 53.6621C38.6731 53.3777 38.7849 53.0459 38.7849 52.6667C38.7849 52.3213 38.6884 52.0403 38.4954 51.8236C38.3024 51.6069 38.0485 51.4309 37.7336 51.2954C37.4187 51.16 37.0784 51.0415 36.7128 50.9399L35.433 50.5743C34.6204 50.3406 33.9771 50.0071 33.5031 49.5738C33.029 49.1404 32.792 48.5733 32.792 47.8724C32.792 47.2901 32.9495 46.7822 33.2644 46.3488C33.5826 45.912 34.0092 45.5735 34.5442 45.3331C35.0825 45.0893 35.6835 44.9674 36.3471 44.9674C37.0175 44.9674 37.6134 45.0876 38.1348 45.328C38.6562 45.565 39.0693 45.89 39.374 46.3031C39.6821 46.7162 39.8446 47.1851 39.8616 47.7099H38.6427ZM43.3341 45.1096V55.5107H42.0746V45.1096H43.3341ZM54.1073 45.1096V55.5107H52.8884L47.2206 47.3442H47.119V55.5107H45.8595V45.1096H47.0784L52.7665 53.2964H52.8681V45.1096H54.1073ZM56.6276 55.5107V45.1096H62.9048V46.2269H57.8871V49.7414H62.5798V50.8587H57.8871V54.3934H62.9861V55.5107H56.6276ZM70.8631 47.7099C70.8021 47.1953 70.555 46.7957 70.1216 46.5113C69.6882 46.2269 69.1567 46.0847 68.5269 46.0847C68.0664 46.0847 67.6635 46.1592 67.3182 46.3082C66.9762 46.4571 66.7087 46.662 66.5157 46.9227C66.3261 47.1834 66.2313 47.4797 66.2313 47.8115C66.2313 48.0891 66.2974 48.3278 66.4294 48.5276C66.5648 48.7239 66.7375 48.8881 66.9474 49.0202C67.1573 49.1488 67.3774 49.2555 67.6077 49.3401C67.8379 49.4214 68.0495 49.4874 68.2425 49.5382L69.2989 49.8226C69.5697 49.8937 69.8711 49.9919 70.2029 50.1172C70.5381 50.2425 70.858 50.4134 71.1627 50.6301C71.4708 50.8434 71.7248 51.1177 71.9245 51.4529C72.1243 51.7881 72.2242 52.1994 72.2242 52.687C72.2242 53.249 72.0769 53.7569 71.7823 54.2106C71.4912 54.6643 71.0645 55.0249 70.5025 55.2924C69.9438 55.5598 69.265 55.6936 68.466 55.6936C67.7211 55.6936 67.0761 55.5734 66.531 55.333C65.9892 55.0926 65.5626 54.7574 65.2511 54.3274C64.943 53.8974 64.7687 53.398 64.728 52.8292H66.0282C66.062 53.222 66.1941 53.547 66.4243 53.8043C66.6579 54.0582 66.9525 54.2478 67.308 54.3731C67.6669 54.495 68.0529 54.556 68.466 54.556C68.9467 54.556 69.3784 54.4781 69.761 54.3223C70.1436 54.1632 70.4466 53.9431 70.6701 53.6621C70.8936 53.3777 71.0053 53.0459 71.0053 52.6667C71.0053 52.3213 70.9088 52.0403 70.7158 51.8236C70.5228 51.6069 70.2689 51.4309 69.954 51.2954C69.6391 51.16 69.2989 51.0415 68.9332 50.9399L67.6534 50.5743C66.8408 50.3406 66.1975 50.0071 65.7235 49.5738C65.2495 49.1404 65.0124 48.5733 65.0124 47.8724C65.0124 47.2901 65.1699 46.7822 65.4848 46.3488C65.803 45.912 66.2296 45.5735 66.7646 45.3331C67.3029 45.0893 67.9039 44.9674 68.5675 44.9674C69.2379 44.9674 69.8338 45.0876 70.3552 45.328C70.8766 45.565 71.2897 45.89 71.5944 46.3031C71.9025 46.7162 72.065 47.1851 72.082 47.7099H70.8631ZM79.9831 47.7099C79.9222 47.1953 79.675 46.7957 79.2416 46.5113C78.8083 46.2269 78.2767 46.0847 77.6469 46.0847C77.1865 46.0847 76.7836 46.1592 76.4382 46.3082C76.0962 46.4571 75.8288 46.662 75.6358 46.9227C75.4462 47.1834 75.3514 47.4797 75.3514 47.8115C75.3514 48.0891 75.4174 48.3278 75.5494 48.5276C75.6849 48.7239 75.8575 48.8881 76.0675 49.0202C76.2774 49.1488 76.4975 49.2555 76.7277 49.3401C76.9579 49.4214 77.1695 49.4874 77.3625 49.5382L78.4189 49.8226C78.6898 49.8937 78.9911 49.9919 79.3229 50.1172C79.6581 50.2425 79.9781 50.4134 80.2828 50.6301C80.5909 50.8434 80.8448 51.1177 81.0446 51.4529C81.2443 51.7881 81.3442 52.1994 81.3442 52.687C81.3442 53.249 81.1969 53.7569 80.9024 54.2106C80.6112 54.6643 80.1846 55.0249 79.6225 55.2924C79.0639 55.5598 78.385 55.6936 77.586 55.6936C76.8411 55.6936 76.1961 55.5734 75.651 55.333C75.1093 55.0926 74.6827 54.7574 74.3712 54.3274C74.0631 53.8974 73.8887 53.398 73.8481 52.8292H75.1482C75.1821 53.222 75.3141 53.547 75.5444 53.8043C75.778 54.0582 76.0725 54.2478 76.4281 54.3731C76.7869 54.495 77.1729 54.556 77.586 54.556C78.0668 54.556 78.4985 54.4781 78.8811 54.3223C79.2636 54.1632 79.5667 53.9431 79.7901 53.6621C80.0136 53.3777 80.1253 53.0459 80.1253 52.6667C80.1253 52.3213 80.0288 52.0403 79.8358 51.8236C79.6429 51.6069 79.3889 51.4309 79.074 51.2954C78.7592 51.16 78.4189 51.0415 78.0532 50.9399L76.7734 50.5743C75.9608 50.3406 75.3175 50.0071 74.8435 49.5738C74.3695 49.1404 74.1325 48.5733 74.1325 47.8724C74.1325 47.2901 74.2899 46.7822 74.6048 46.3488C74.9231 45.912 75.3497 45.5735 75.8846 45.3331C76.423 45.0893 77.024 44.9674 77.6876 44.9674C78.358 44.9674 78.9539 45.0876 79.4753 45.328C79.9967 45.565 80.4097 45.89 80.7145 46.3031C81.0226 46.7162 81.1851 47.1851 81.202 47.7099H79.9831ZM87.4374 55.5107V45.1096H90.9518C91.7678 45.1096 92.4348 45.2569 92.9528 45.5515C93.4742 45.8426 93.8602 46.2371 94.1107 46.7348C94.3613 47.2325 94.4866 47.7878 94.4866 48.4006C94.4866 49.0134 94.3613 49.5704 94.1107 50.0715C93.8636 50.5726 93.481 50.9721 92.963 51.27C92.4449 51.5646 91.7813 51.7119 90.9721 51.7119H88.4531V50.5946H90.9315C91.4901 50.5946 91.9388 50.4981 92.2773 50.3051C92.6159 50.1121 92.8614 49.8514 93.0138 49.523C93.1695 49.1912 93.2474 48.817 93.2474 48.4006C93.2474 47.9841 93.1695 47.6117 93.0138 47.2833C92.8614 46.9549 92.6142 46.6975 92.2723 46.5113C91.9303 46.3217 91.4766 46.2269 90.9112 46.2269H88.6969V55.5107H87.4374ZM95.8807 55.5107H94.5602L98.3794 45.1096H99.6795L103.499 55.5107H102.178L99.0701 46.7551H98.9888L95.8807 55.5107ZM96.3682 51.4478H101.691V52.5651H96.3682V51.4478ZM105.119 55.5107V45.1096H108.633C109.446 45.1096 110.113 45.2484 110.634 45.5261C111.156 45.8003 111.542 46.1778 111.792 46.6586C112.043 47.1394 112.168 47.6862 112.168 48.299C112.168 48.9118 112.043 49.4553 111.792 49.9293C111.542 50.4033 111.157 50.7757 110.639 51.0466C110.121 51.3141 109.459 51.4478 108.654 51.4478H105.809V50.3102H108.613C109.168 50.3102 109.615 50.2289 109.954 50.0664C110.296 49.9039 110.543 49.6736 110.695 49.3757C110.851 49.0744 110.929 48.7155 110.929 48.299C110.929 47.8826 110.851 47.5186 110.695 47.2071C110.539 46.8956 110.291 46.6552 109.949 46.4859C109.607 46.3133 109.155 46.2269 108.593 46.2269H106.378V55.5107H105.119ZM110.015 50.8384L112.574 55.5107H111.112L108.593 50.8384H110.015ZM113.698 46.2269V45.1096H121.499V46.2269H118.228V55.5107H116.969V46.2269H113.698ZM131.69 45.1096V55.5107H130.472L124.804 47.3442H124.702V55.5107H123.443V45.1096H124.662L130.35 53.2964H130.451V45.1096H131.69ZM134.211 55.5107V45.1096H140.488V46.2269H135.47V49.7414H140.163V50.8587H135.47V54.3934H140.569V55.5107H134.211ZM142.758 55.5107V45.1096H146.273C147.085 45.1096 147.752 45.2484 148.274 45.5261C148.795 45.8003 149.181 46.1778 149.432 46.6586C149.682 47.1394 149.807 47.6862 149.807 48.299C149.807 48.9118 149.682 49.4553 149.432 49.9293C149.181 50.4033 148.797 50.7757 148.279 51.0466C147.761 51.3141 147.099 51.4478 146.293 51.4478H143.449V50.3102H146.252C146.808 50.3102 147.254 50.2289 147.593 50.0664C147.935 49.9039 148.182 49.6736 148.335 49.3757C148.49 49.0744 148.568 48.7155 148.568 48.299C148.568 47.8826 148.49 47.5186 148.335 47.2071C148.179 46.8956 147.93 46.6552 147.588 46.4859C147.246 46.3133 146.794 46.2269 146.232 46.2269H144.018V55.5107H142.758ZM147.654 50.8384L150.214 55.5107H148.751L146.232 50.8384H147.654Z" fill="white"/>
<path d="M84.5801 39.2792H95.3282V24.5418H109.123V39.2792H119.872V0.49707H109.123V15.0127H95.3282V0.49707H84.5801V39.2792ZM126.741 39.2792H137.489V27.5337H142.199L150.011 39.2792H162.421L153.169 25.7608C157.989 23.7111 161.147 19.7776 161.147 13.8494C161.147 9.91586 159.984 6.9239 157.712 4.65236C155.108 2.04882 151.008 0.49707 145.079 0.49707H126.741V39.2792ZM137.489 19.1129V9.80498H144.526C148.127 9.80498 150.343 11.3561 150.343 14.4032C150.343 17.34 148.237 19.1129 144.581 19.1129H137.489Z" fill="white"/>
<mask id="mask0_330_1371" style="mask-type:luminance" maskUnits="userSpaceOnUse" x="84" y="0" width="36" height="40">
<path d="M84.5859 39.2792H95.3341V24.5418H109.129V39.2792H119.877V0.49707H109.129V15.0127H95.3341V0.49707H84.5859V39.2792Z" fill="white"/>
</mask>
<g mask="url(#mask0_330_1371)">
<path fill-rule="evenodd" clip-rule="evenodd" d="M103.3 -0.443359V40.2161H73.9824L77.3282 -0.443359H103.3Z" fill="white"/>
</g>
<path d="M20.0905 39.7807C28.5607 39.7807 33.4242 36.1196 37.0308 31.1464L29.0529 25.4631C26.7577 28.2506 24.4079 30.1081 20.4187 30.1081C15.0635 30.1081 11.2928 25.6272 11.2928 19.8894C11.2928 14.206 15.0635 9.67066 20.4187 9.67066C24.0798 9.67066 26.6481 11.3647 28.8343 14.0964L36.5937 8.08558C33.2056 3.38612 28.3421 -0.00195312 20.5276 -0.00195312C8.94306 -0.00195312 0.363281 8.74128 0.363281 19.8894C0.363281 31.4195 9.16162 39.7807 20.0905 39.7807ZM53.4796 39.2891H63.3163L78.8356 0.763344H67.1959L58.5072 24.9715L49.8185 0.763344H37.9602L53.4796 39.2891Z" fill="white"/>
<path fill-rule="evenodd" clip-rule="evenodd" d="M103.037 15.0664V24.5801H73.7188L77.0652 15.0664H103.037Z" fill="white"/>
</g>
<defs>
<clipPath id="clip0_330_1371">
<rect width="162.143" height="56" fill="white" transform="translate(0.320312)"/>
</clipPath>
</defs>
</svg>
