<svg width="232" height="64" viewBox="0 0 232 64" fill="none" xmlns="http://www.w3.org/2000/svg">
<g clip-path="url(#clip0_330_1343)">
<path d="M15.9893 27.5791C15.7631 26.8867 15.4649 26.2664 15.0947 25.718C14.7314 25.1627 14.2961 24.6897 13.7889 24.299C13.2884 23.9083 12.7195 23.6101 12.082 23.4044C11.4445 23.1988 10.7453 23.096 9.98438 23.096C8.73679 23.096 7.6023 23.4181 6.58092 24.0625C5.55954 24.7069 4.74723 25.6563 4.144 26.9107C3.54077 28.1652 3.23915 29.7041 3.23915 31.5275C3.23915 33.3509 3.54419 34.8898 4.15428 36.1443C4.76437 37.3987 5.59038 38.3481 6.63233 38.9925C7.67428 39.6369 8.84647 39.959 10.1489 39.959C11.3554 39.959 12.4179 39.702 13.3364 39.1879C14.2618 38.6669 14.9816 37.9334 15.4957 36.9874C16.0167 36.0346 16.2772 34.9138 16.2772 33.6251L17.0587 33.7896H10.7247V31.5275H18.745V33.7896C18.745 35.5239 18.3748 37.032 17.6345 38.3139C16.901 39.5957 15.8865 40.5897 14.5909 41.2957C13.3022 41.9949 11.8215 42.3445 10.1489 42.3445C8.28436 42.3445 6.64604 41.9058 5.23393 41.0284C3.82867 40.151 2.73189 38.9034 1.94357 37.2856C1.16211 35.6679 0.771383 33.7485 0.771383 31.5275C0.771383 29.8618 0.994167 28.364 1.43974 27.0341C1.89216 25.6974 2.52967 24.5595 3.35226 23.6204C4.17485 22.6812 5.14824 21.9615 6.27245 21.4611C7.39665 20.9607 8.63396 20.7104 9.98438 20.7104C11.0949 20.7104 12.13 20.8784 13.0897 21.2143C14.0562 21.5433 14.9165 22.0129 15.6705 22.623C16.4314 23.2262 17.0655 23.9494 17.5728 24.7925C18.08 25.6288 18.4296 26.5577 18.6216 27.5791H15.9893Z" fill="white"/>
<path d="M23.8576 42.0566V20.9984H36.5666V23.2605H26.4077V30.3759H35.9086V32.638H26.4077V39.7945H36.7312V42.0566H23.8576Z" fill="white"/>
<path d="M42.0175 23.2605V20.9984H57.8113V23.2605H51.1894V42.0566H48.6394V23.2605H42.0175Z" fill="white"/>
<path d="M62.2824 42.0566V20.9984H74.9915V23.2605H64.8325V30.3759H74.3334V32.638H64.8325V39.7945H75.156V42.0566H62.2824Z" fill="white"/>
<path d="M106.591 42.0566V20.9984H119.3V23.2605H109.141V30.3759H118.642V32.638H109.141V39.7945H119.465V42.0566H106.591Z" fill="white"/>
<path d="M125.999 42.0566V20.9984H133.115C134.76 20.9984 136.11 21.2794 137.166 21.8415C138.222 22.3968 139.003 23.1611 139.51 24.1345C140.018 25.1079 140.271 26.2149 140.271 27.4557C140.271 28.6964 140.018 29.7966 139.51 30.7563C139.003 31.716 138.225 32.47 137.176 33.0184C136.127 33.56 134.787 33.8307 133.156 33.8307H127.398V31.5275H133.074C134.198 31.5275 135.103 31.363 135.788 31.0339C136.48 30.7049 136.981 30.2388 137.289 29.6355C137.605 29.0255 137.762 28.2988 137.762 27.4557C137.762 26.6125 137.605 25.8756 137.289 25.245C136.974 24.6143 136.47 24.1276 135.778 23.7849C135.085 23.4353 134.17 23.2605 133.032 23.2605H128.549V42.0566H125.999ZM135.911 32.5969L141.094 42.0566H138.132L133.032 32.5969H135.911Z" fill="white"/>
<path d="M161.33 27.5791C161.104 26.8867 160.806 26.2664 160.436 25.718C160.072 25.1627 159.637 24.6897 159.13 24.299C158.629 23.9083 158.06 23.6101 157.423 23.4044C156.785 23.1988 156.086 23.096 155.325 23.096C154.078 23.096 152.943 23.4181 151.922 24.0625C150.9 24.7069 150.088 25.6563 149.485 26.9107C148.882 28.1652 148.58 29.7041 148.58 31.5275C148.58 33.3509 148.885 34.8898 149.495 36.1443C150.105 37.3987 150.931 38.3481 151.973 38.9925C153.015 39.6369 154.187 39.959 155.49 39.959C156.696 39.959 157.759 39.702 158.677 39.1879C159.603 38.6669 160.322 37.9334 160.837 36.9874C161.358 36.0346 161.618 34.9138 161.618 33.6251L162.399 33.7896H156.066V31.5275H164.086V33.7896C164.086 35.5239 163.716 37.032 162.975 38.3139C162.242 39.5957 161.227 40.5897 159.932 41.2957C158.643 41.9949 157.162 42.3445 155.49 42.3445C153.625 42.3445 151.987 41.9058 150.575 41.0284C149.169 40.151 148.073 38.9034 147.284 37.2856C146.503 35.6679 146.112 33.7485 146.112 31.5275C146.112 29.8618 146.335 28.364 146.781 27.0341C147.233 25.6974 147.87 24.5595 148.693 23.6204C149.516 22.6812 150.489 21.9615 151.613 21.4611C152.737 20.9607 153.975 20.7104 155.325 20.7104C156.436 20.7104 157.471 20.8784 158.43 21.2143C159.397 21.5433 160.257 22.0129 161.011 22.623C161.772 23.2262 162.406 23.9494 162.914 24.7925C163.421 25.6288 163.77 26.5577 163.962 27.5791H161.33Z" fill="white"/>
<path d="M166.959 20.9984H169.879L175.72 30.8283H175.966L181.807 20.9984H184.727L177.118 33.3783V42.0566H174.568V33.3783L166.959 20.9984Z" fill="white"/>
<path d="M231.304 32.8805C231.304 44.5077 221.879 53.9334 210.252 53.9334C198.624 53.9334 189.199 44.5077 189.199 32.8805C189.199 21.2533 198.624 11.8276 210.252 11.8276C221.879 11.8276 231.304 21.2533 231.304 32.8805Z" stroke="white" stroke-width="0.88958"/>
<path d="M196.807 39.8527C196.427 39.8527 196.101 39.7167 195.829 39.4447C195.557 39.1727 195.421 38.8468 195.421 38.467C195.421 38.0873 195.557 37.7614 195.829 37.4894C196.101 37.2174 196.427 37.0814 196.807 37.0814C197.187 37.0814 197.513 37.2174 197.785 37.4894C198.057 37.7614 198.193 38.0873 198.193 38.467C198.193 38.7185 198.129 38.9494 198 39.1598C197.877 39.3703 197.71 39.5396 197.5 39.6679C197.295 39.7911 197.064 39.8527 196.807 39.8527ZM203.269 32.6166V39.7295H201.453V27.9055H203.208V29.753H203.362C203.639 29.1526 204.06 28.6702 204.624 28.3058C205.189 27.9363 205.918 27.7515 206.811 27.7515C207.611 27.7515 208.312 27.9158 208.912 28.2442C209.512 28.5675 209.98 29.0602 210.313 29.7222C210.647 30.3791 210.813 31.2105 210.813 32.2163V39.7295H208.997V32.3395C208.997 31.4106 208.756 30.687 208.273 30.1687C207.791 29.6452 207.129 29.3835 206.287 29.3835C205.707 29.3835 205.189 29.5092 204.732 29.7607C204.28 30.0122 203.924 30.3791 203.662 30.8615C203.4 31.3439 203.269 31.9289 203.269 32.6166ZM218.906 44.4098C218.028 44.4098 217.274 44.2969 216.643 44.0711C216.011 43.8504 215.485 43.5579 215.065 43.1936C214.649 42.8343 214.318 42.4494 214.072 42.0389L215.519 41.0227C215.683 41.2383 215.891 41.4846 216.142 41.7617C216.394 42.044 216.738 42.2878 217.174 42.493C217.615 42.7035 218.193 42.8087 218.906 42.8087C219.86 42.8087 220.648 42.5777 221.269 42.1158C221.89 41.654 222.201 40.9304 222.201 39.945V37.5433H222.047C221.913 37.7588 221.723 38.0257 221.477 38.3439C221.236 38.6569 220.887 38.9366 220.43 39.1829C219.978 39.4241 219.368 39.5447 218.598 39.5447C217.643 39.5447 216.786 39.3189 216.027 38.8673C215.272 38.4157 214.675 37.7588 214.233 36.8967C213.797 36.0345 213.579 34.9876 213.579 33.7559C213.579 32.5448 213.792 31.4902 214.218 30.5921C214.644 29.6889 215.237 28.9909 215.996 28.4982C216.756 28.0004 217.633 27.7515 218.629 27.7515C219.399 27.7515 220.009 27.8798 220.461 28.1364C220.918 28.3879 221.267 28.6753 221.508 28.9986C221.754 29.3168 221.944 29.5785 222.077 29.7838H222.262V27.9055H224.017V40.0682C224.017 41.0843 223.786 41.9106 223.324 42.5469C222.868 43.1884 222.252 43.658 221.477 43.9556C220.707 44.2584 219.85 44.4098 218.906 44.4098ZM218.844 37.9128C219.573 37.9128 220.189 37.746 220.692 37.4124C221.195 37.0788 221.577 36.599 221.839 35.9729C222.101 35.3468 222.231 34.5976 222.231 33.7251C222.231 32.8732 222.103 32.1214 221.846 31.4696C221.59 30.8179 221.21 30.3073 220.707 29.9378C220.204 29.5683 219.583 29.3835 218.844 29.3835C218.074 29.3835 217.433 29.5785 216.92 29.9685C216.412 30.3586 216.029 30.882 215.773 31.5389C215.521 32.1958 215.396 32.9245 215.396 33.7251C215.396 34.5462 215.524 35.2724 215.781 35.9036C216.042 36.5297 216.427 37.0224 216.935 37.3816C217.448 37.7357 218.085 37.9128 218.844 37.9128Z" fill="white"/>
<path fill-rule="evenodd" clip-rule="evenodd" d="M83.6409 22.3784L92.9213 29.0989L107.542 0.00390625L100.546 40.6587L91.1351 33.7412L76.0078 63.9957C77.1327 60.266 81.2238 29.9492 83.6409 22.3784Z" fill="white"/>
</g>
<defs>
<clipPath id="clip0_330_1343">
<rect width="231.604" height="64" fill="white" transform="translate(0.143555)"/>
</clipPath>
</defs>
</svg>
