<svg width="93" height="56" viewBox="0 0 93 56" fill="none" xmlns="http://www.w3.org/2000/svg">
<g clip-path="url(#clip0_330_1390)">
<path d="M11.0887 55.3873C10.6843 55.3873 10.3102 55.3216 9.96648 55.1901C9.6278 55.0537 9.33209 54.8641 9.07934 54.6215C8.83165 54.3788 8.63703 54.0932 8.49549 53.7647C8.35901 53.4361 8.29077 53.0772 8.29077 52.688C8.29077 52.2987 8.35901 51.9398 8.49549 51.6113C8.63703 51.2827 8.83418 50.9971 9.08692 50.7544C9.33967 50.5118 9.63538 50.3248 9.97406 50.1933C10.3178 50.0569 10.6919 49.9886 11.0963 49.9886C11.5007 49.9886 11.8697 50.0518 12.2033 50.1782C12.542 50.3046 12.8301 50.4966 13.0677 50.7544L12.7189 51.1108C12.4965 50.8884 12.2513 50.7292 11.9834 50.6331C11.7155 50.5371 11.4274 50.4891 11.119 50.4891C10.7904 50.4891 10.4871 50.5447 10.2091 50.6559C9.93615 50.762 9.69604 50.9162 9.48879 51.1184C9.28659 51.3155 9.12736 51.5481 9.0111 51.816C8.89989 52.0788 8.84429 52.3695 8.84429 52.688C8.84429 53.0014 8.89989 53.292 9.0111 53.5599C9.12736 53.8278 9.28659 54.0629 9.48879 54.2651C9.69604 54.4622 9.93615 54.6164 10.2091 54.7276C10.4871 54.8338 10.7879 54.8869 11.1114 54.8869C11.4147 54.8869 11.7003 54.8414 11.9682 54.7504C12.2412 54.6594 12.4914 54.5052 12.7189 54.2878L13.0374 54.7125C12.7846 54.9349 12.4889 55.1042 12.1502 55.2205C11.8115 55.3317 11.4577 55.3873 11.0887 55.3873ZM12.499 54.6442V52.688H13.0374V54.7125L12.499 54.6442ZM15.1258 52.4074H17.9313V52.8851H15.1258V52.4074ZM15.1865 54.8565H18.3787V55.3418H14.6254V50.0341H18.265V50.5194H15.1865V54.8565ZM20.7288 55.3418V50.5194H18.8635V50.0341H23.1552V50.5194H21.2899V55.3418H20.7288ZM26.5365 52.4074H29.342V52.8851H26.5365V52.4074ZM26.5971 54.8565H29.7893V55.3418H26.036V50.0341H29.6756V50.5194H26.5971V54.8565ZM31.1082 55.3418V50.0341H31.5708L35.2331 54.6442H34.9904V50.0341H35.5439V55.3418H35.0814L31.4267 50.7317H31.6693V55.3418H31.1082ZM37.7768 52.4074H40.5823V52.8851H37.7768V52.4074ZM37.8374 54.8565H41.0296V55.3418H37.2764V50.0341H40.9159V50.5194H37.8374V54.8565ZM42.3486 55.3418V50.0341H44.3352C44.785 50.0341 45.1717 50.1074 45.4953 50.254C45.8188 50.3955 46.0665 50.6028 46.2383 50.8758C46.4153 51.1437 46.5037 51.4697 46.5037 51.8539C46.5037 52.228 46.4153 52.5515 46.2383 52.8244C46.0665 53.0923 45.8188 53.2996 45.4953 53.4462C45.1717 53.5877 44.785 53.6585 44.3352 53.6585H42.6594L42.9097 53.4007V55.3418H42.3486ZM45.973 55.3418L44.6081 53.4159H45.2147L46.5871 55.3418H45.973ZM42.9097 53.4462L42.6594 53.1808H44.32C44.8508 53.1808 45.2526 53.0645 45.5256 52.832C45.8036 52.5995 45.9426 52.2735 45.9426 51.8539C45.9426 51.4293 45.8036 51.1007 45.5256 50.8682C45.2526 50.6357 44.8508 50.5194 44.32 50.5194H42.6594L42.9097 50.254V53.4462ZM50.1558 55.3873C49.7514 55.3873 49.3774 55.3216 49.0336 55.1901C48.695 55.0537 48.3992 54.8641 48.1465 54.6215C47.8988 54.3788 47.7042 54.0932 47.5627 53.7647C47.4262 53.4361 47.3579 53.0772 47.3579 52.688C47.3579 52.2987 47.4262 51.9398 47.5627 51.6113C47.7042 51.2827 47.9013 50.9971 48.1541 50.7544C48.4068 50.5118 48.7025 50.3248 49.0412 50.1933C49.385 50.0569 49.759 49.9886 50.1634 49.9886C50.5678 49.9886 50.9368 50.0518 51.2705 50.1782C51.6091 50.3046 51.8973 50.4966 52.1348 50.7544L51.7861 51.1108C51.5636 50.8884 51.3185 50.7292 51.0506 50.6331C50.7827 50.5371 50.4945 50.4891 50.1862 50.4891C49.8576 50.4891 49.5543 50.5447 49.2763 50.6559C49.0033 50.762 48.7632 50.9162 48.556 51.1184C48.3538 51.3155 48.1945 51.5481 48.0783 51.816C47.9671 52.0788 47.9114 52.3695 47.9114 52.688C47.9114 53.0014 47.9671 53.292 48.0783 53.5599C48.1945 53.8278 48.3538 54.0629 48.556 54.2651C48.7632 54.4622 49.0033 54.6164 49.2763 54.7276C49.5543 54.8338 49.8551 54.8869 50.1786 54.8869C50.4819 54.8869 50.7675 54.8414 51.0354 54.7504C51.3084 54.6594 51.5586 54.5052 51.7861 54.2878L52.1045 54.7125C51.8518 54.9349 51.5561 55.1042 51.2174 55.2205C50.8787 55.3317 50.5248 55.3873 50.1558 55.3873ZM51.5662 54.6442V52.688H52.1045V54.7125L51.5662 54.6442ZM54.9588 55.3418V53.3704L55.0877 53.7192L52.8357 50.0341H53.4348L55.4138 53.2718H55.0953L57.0743 50.0341H57.6354L55.3834 53.7192L55.5123 53.3704V55.3418H54.9588ZM61.5213 55.3418V50.5194H59.656V50.0341H63.9476V50.5194H62.0824V55.3418H61.5213ZM64.844 55.3418V50.0341H66.8306C67.2805 50.0341 67.6672 50.1074 67.9907 50.254C68.3142 50.3955 68.5619 50.6028 68.7338 50.8758C68.9107 51.1437 68.9992 51.4697 68.9992 51.8539C68.9992 52.228 68.9107 52.5515 68.7338 52.8244C68.5619 53.0923 68.3142 53.2996 67.9907 53.4462C67.6672 53.5877 67.2805 53.6585 66.8306 53.6585H65.1549L65.4051 53.4007V55.3418H64.844ZM68.4684 55.3418L67.1036 53.4159H67.7102L69.0826 55.3418H68.4684ZM65.4051 53.4462L65.1549 53.1808H66.8154C67.3462 53.1808 67.7481 53.0645 68.0211 52.832C68.2991 52.5995 68.4381 52.2735 68.4381 51.8539C68.4381 51.4293 68.2991 51.1007 68.0211 50.8682C67.7481 50.6357 67.3462 50.5194 66.8154 50.5194H65.1549L65.4051 50.254V53.4462ZM69.4743 55.3418L71.9006 50.0341H72.4542L74.8805 55.3418H74.2891L72.0599 50.3602H72.2873L70.0581 55.3418H69.4743ZM70.4297 53.9239L70.5965 53.4689H73.6825L73.8493 53.9239H70.4297ZM75.7585 55.3418V50.0341H77.9195C78.4857 50.0341 78.9811 50.1478 79.4057 50.3753C79.8354 50.5977 80.169 50.9086 80.4066 51.308C80.6441 51.7073 80.7629 52.1673 80.7629 52.688C80.7629 53.2086 80.6441 53.6686 80.4066 54.068C80.169 54.4673 79.8354 54.7807 79.4057 55.0082C78.9811 55.2306 78.4857 55.3418 77.9195 55.3418H75.7585ZM76.3196 54.8565H77.8892C78.3593 54.8565 78.7662 54.7655 79.11 54.5836C79.4588 54.3965 79.7292 54.1412 79.9213 53.8177C80.1134 53.4892 80.2094 53.1126 80.2094 52.688C80.2094 52.2583 80.1134 51.8817 79.9213 51.5582C79.7292 51.2347 79.4588 50.9819 79.11 50.7999C78.7662 50.6129 78.3593 50.5194 77.8892 50.5194H76.3196V54.8565ZM82.0229 55.3418V50.0341H82.584V55.3418H82.0229ZM84.311 55.3418V50.0341H84.7735L88.4358 54.6442H88.1931V50.0341H88.7467V55.3418H88.2841L84.6294 50.7317H84.8721V55.3418H84.311ZM92.8069 55.3873C92.4025 55.3873 92.0284 55.3216 91.6847 55.1901C91.346 55.0537 91.0503 54.8641 90.7975 54.6215C90.5498 54.3788 90.3552 54.0932 90.2137 53.7647C90.0772 53.4361 90.009 53.0772 90.009 52.688C90.009 52.2987 90.0772 51.9398 90.2137 51.6113C90.3552 51.2827 90.5524 50.9971 90.8051 50.7544C91.0579 50.5118 91.3536 50.3248 91.6923 50.1933C92.036 50.0569 92.4101 49.9886 92.8145 49.9886C93.2188 49.9886 93.5879 50.0518 93.9215 50.1782C94.2602 50.3046 94.5483 50.4966 94.7859 50.7544L94.4371 51.1108C94.2147 50.8884 93.9695 50.7292 93.7016 50.6331C93.4337 50.5371 93.1456 50.4891 92.8372 50.4891C92.5086 50.4891 92.2053 50.5447 91.9273 50.6559C91.6543 50.762 91.4142 50.9162 91.207 51.1184C91.0048 51.3155 90.8456 51.5481 90.7293 51.816C90.6181 52.0788 90.5625 52.3695 90.5625 52.688C90.5625 53.0014 90.6181 53.292 90.7293 53.5599C90.8456 53.8278 91.0048 54.0629 91.207 54.2651C91.4142 54.4622 91.6543 54.6164 91.9273 54.7276C92.2053 54.8338 92.5061 54.8869 92.8296 54.8869C93.1329 54.8869 93.4185 54.8414 93.6864 54.7504C93.9594 54.6594 94.2096 54.5052 94.4371 54.2878L94.7555 54.7125C94.5028 54.9349 94.2071 55.1042 93.8684 55.2205C93.5297 55.3317 93.1759 55.3873 92.8069 55.3873ZM94.2172 54.6442V52.688H94.7555V54.7125L94.2172 54.6442ZM99.7915 55.3873C99.3972 55.3873 99.018 55.3241 98.6541 55.1977C98.2952 55.0663 98.0172 54.8995 97.82 54.6973L98.0399 54.2651C98.2269 54.4471 98.4772 54.6012 98.7906 54.7276C99.109 54.8489 99.4427 54.9096 99.7915 54.9096C100.125 54.9096 100.396 54.8692 100.603 54.7883C100.815 54.7023 100.969 54.5886 101.065 54.4471C101.166 54.3055 101.217 54.1488 101.217 53.977C101.217 53.7697 101.156 53.6029 101.035 53.4765C100.919 53.3502 100.765 53.2516 100.572 53.1808C100.38 53.105 100.168 53.0393 99.9355 52.9837C99.703 52.9281 99.4705 52.8699 99.2379 52.8093C99.0054 52.7436 98.7906 52.6576 98.5934 52.5515C98.4013 52.4453 98.2446 52.3063 98.1233 52.1344C98.0071 51.9575 97.9489 51.7275 97.9489 51.4444C97.9489 51.1816 98.0172 50.9415 98.1537 50.7241C98.2952 50.5017 98.51 50.3248 98.7982 50.1933C99.0863 50.0569 99.4553 49.9886 99.9052 49.9886C100.203 49.9886 100.499 50.0316 100.792 50.1175C101.086 50.1984 101.338 50.3121 101.551 50.4587L101.361 50.9061C101.134 50.7544 100.891 50.6432 100.633 50.5725C100.38 50.5017 100.135 50.4663 99.8976 50.4663C99.5791 50.4663 99.3163 50.5093 99.109 50.5952C98.9018 50.6811 98.7476 50.7974 98.6465 50.944C98.5505 51.0855 98.5024 51.2473 98.5024 51.4293C98.5024 51.6365 98.5606 51.8033 98.6768 51.9297C98.7982 52.0561 98.9549 52.1547 99.1469 52.2254C99.3441 52.2962 99.5589 52.3594 99.7915 52.415C100.024 52.4706 100.254 52.5313 100.481 52.597C100.714 52.6627 100.926 52.7486 101.118 52.8548C101.316 52.9559 101.472 53.0923 101.588 53.2642C101.71 53.4361 101.77 53.661 101.77 53.9391C101.77 54.1969 101.7 54.437 101.558 54.6594C101.417 54.8767 101.199 55.0537 100.906 55.1901C100.618 55.3216 100.246 55.3873 99.7915 55.3873ZM103.493 52.4074H106.299V52.8851H103.493V52.4074ZM103.554 54.8565H106.746V55.3418H102.993V50.0341H106.633V50.5194H103.554V54.8565ZM108.065 55.3418V50.0341H110.052C110.502 50.0341 110.888 50.1074 111.212 50.254C111.535 50.3955 111.783 50.6028 111.955 50.8758C112.132 51.1437 112.22 51.4697 112.22 51.8539C112.22 52.228 112.132 52.5515 111.955 52.8244C111.783 53.0923 111.535 53.2996 111.212 53.4462C110.888 53.5877 110.502 53.6585 110.052 53.6585H108.376L108.626 53.4007V55.3418H108.065ZM111.69 55.3418L110.325 53.4159H110.931L112.304 55.3418H111.69ZM108.626 53.4462L108.376 53.1808H110.037C110.567 53.1808 110.969 53.0645 111.242 52.832C111.52 52.5995 111.659 52.2735 111.659 51.8539C111.659 51.4293 111.52 51.1007 111.242 50.8682C110.969 50.6357 110.567 50.5194 110.037 50.5194H108.376L108.626 50.254V53.4462ZM115.054 55.3418L112.703 50.0341H113.31L115.509 55.0309H115.175L117.389 50.0341H117.958L115.607 55.3418H115.054ZM118.728 55.3418V50.0341H119.289V55.3418H118.728ZM123.321 55.3873C122.922 55.3873 122.553 55.3216 122.214 55.1901C121.875 55.0537 121.582 54.8641 121.334 54.6215C121.087 54.3788 120.892 54.0932 120.751 53.7647C120.614 53.4361 120.546 53.0772 120.546 52.688C120.546 52.2987 120.614 51.9398 120.751 51.6113C120.892 51.2827 121.087 50.9971 121.334 50.7544C121.587 50.5118 121.883 50.3248 122.222 50.1933C122.56 50.0569 122.929 49.9886 123.329 49.9886C123.713 49.9886 124.074 50.0543 124.413 50.1858C124.752 50.3121 125.037 50.5042 125.27 50.762L124.913 51.1184C124.696 50.896 124.456 50.7367 124.193 50.6407C123.93 50.5396 123.647 50.4891 123.344 50.4891C123.025 50.4891 122.73 50.5447 122.457 50.6559C122.184 50.762 121.946 50.9162 121.744 51.1184C121.542 51.3155 121.383 51.5481 121.266 51.816C121.155 52.0788 121.099 52.3695 121.099 52.688C121.099 53.0064 121.155 53.2996 121.266 53.5675C121.383 53.8304 121.542 54.0629 121.744 54.2651C121.946 54.4622 122.184 54.6164 122.457 54.7276C122.73 54.8338 123.025 54.8869 123.344 54.8869C123.647 54.8869 123.93 54.8363 124.193 54.7352C124.456 54.6341 124.696 54.4723 124.913 54.2499L125.27 54.6063C125.037 54.8641 124.752 55.0587 124.413 55.1901C124.074 55.3216 123.71 55.3873 123.321 55.3873ZM126.966 52.4074H129.772V52.8851H126.966V52.4074ZM127.027 54.8565H130.219V55.3418H126.466V50.0341H130.105V50.5194H127.027V54.8565ZM133.001 55.3873C132.607 55.3873 132.228 55.3241 131.864 55.1977C131.505 55.0663 131.227 54.8995 131.03 54.6973L131.25 54.2651C131.437 54.4471 131.687 54.6012 132.001 54.7276C132.319 54.8489 132.653 54.9096 133.001 54.9096C133.335 54.9096 133.606 54.8692 133.813 54.7883C134.025 54.7023 134.179 54.5886 134.275 54.4471C134.376 54.3055 134.427 54.1488 134.427 53.977C134.427 53.7697 134.366 53.6029 134.245 53.4765C134.129 53.3502 133.975 53.2516 133.782 53.1808C133.59 53.105 133.378 53.0393 133.146 52.9837C132.913 52.9281 132.681 52.8699 132.448 52.8093C132.215 52.7436 132.001 52.6576 131.803 52.5515C131.611 52.4453 131.455 52.3063 131.333 52.1344C131.217 51.9575 131.159 51.7275 131.159 51.4444C131.159 51.1816 131.227 50.9415 131.364 50.7241C131.505 50.5017 131.72 50.3248 132.008 50.1933C132.296 50.0569 132.665 49.9886 133.115 49.9886C133.413 49.9886 133.709 50.0316 134.002 50.1175C134.296 50.1984 134.548 50.3121 134.761 50.4587L134.571 50.9061C134.344 50.7544 134.101 50.6432 133.843 50.5725C133.59 50.5017 133.345 50.4663 133.108 50.4663C132.789 50.4663 132.526 50.5093 132.319 50.5952C132.112 50.6811 131.958 50.7974 131.857 50.944C131.761 51.0855 131.712 51.2473 131.712 51.4293C131.712 51.6365 131.771 51.8033 131.887 51.9297C132.008 52.0561 132.165 52.1547 132.357 52.2254C132.554 52.2962 132.769 52.3594 133.001 52.415C133.234 52.4706 133.464 52.5313 133.691 52.597C133.924 52.6627 134.136 52.7486 134.328 52.8548C134.526 52.9559 134.682 53.0923 134.799 53.2642C134.92 53.4361 134.981 53.661 134.981 53.9391C134.981 54.1969 134.91 54.437 134.768 54.6594C134.627 54.8767 134.409 55.0537 134.116 55.1901C133.828 55.3216 133.456 55.3873 133.001 55.3873Z" fill="white"/>
<path d="M51.6684 19.8789H70.6069V23.1035H51.6684V19.8789ZM52.0779 36.4117H73.6268V39.6875H48.2902V3.85792H72.859V7.13377H52.0779V36.4117Z" fill="white"/>
<path d="M89.0834 39.6875V7.13377H76.4918V3.85792H105.463V7.13377H92.8711V39.6875H89.0834Z" fill="white"/>
<path fill-rule="evenodd" clip-rule="evenodd" d="M32.3599 1.08481C32.2197 1.06167 32.401 0.963968 32.1561 0.917686C31.8906 0.867548 31.494 0.899688 31.2748 0.76213C31.1816 0.702993 31.1816 0.64257 31.0389 0.625857L30.1255 0.505012C30.0272 0.488942 29.9179 0.469658 29.8453 0.424663C29.7141 0.343028 29.8234 0.333386 29.6093 0.323101C29.2995 0.307674 28.9164 0.307674 28.6098 0.251751C28.4986 0.231181 28.4015 0.244037 28.2839 0.235038C28.1592 0.226039 28.0994 0.184257 27.994 0.165616C27.85 0.140547 27.8539 0.132834 27.7247 0.0981226C27.0896 -0.0722181 23.1435 0.0287007 22.223 0.0505558L22.0989 0.1849C22.0976 0.186828 22.1028 0.27682 22.0932 0.197113C22.0932 0.19647 22.0919 0.202255 22.0932 0.201613C21.8997 0.205469 21.8212 0.257536 21.6695 0.274248C21.2633 0.317959 20.3917 0.248537 20.0227 0.379024L19.9263 0.416949C19.4455 0.645784 19.036 0.521725 18.5835 0.632285C18.4768 0.65864 18.4003 0.755702 18.255 0.797484C18.1168 0.837337 18.0069 0.881047 17.8726 0.903545C17.5929 0.949826 17.4875 0.864334 17.2568 1.02632L17.1449 1.09638C16.9174 1.23266 16.5066 1.13109 16.3125 1.30658C16.1235 1.47756 15.8542 1.45506 15.5746 1.53541C15.5084 1.68068 15.4756 1.74561 15.2782 1.76489L14.8141 1.8311C14.6804 1.85681 14.7119 1.84203 14.647 1.93137C14.5365 2.08115 14.487 2.03936 14.2935 2.0895C14.2157 2.11071 14.1399 2.11907 14.0679 2.13385C14.0242 2.23285 14.0383 2.29391 13.9399 2.33055C13.643 2.4424 13.4726 2.40447 13.3949 2.47261C13.2972 2.55681 13.3839 2.52982 13.2207 2.60438C13.0985 2.6603 12.8061 2.71108 12.709 2.77151C12.6376 2.81715 12.6016 2.89621 12.5425 2.9457C12.4397 3.03184 12.4287 2.95535 12.3169 3.01448C12.2031 3.07426 12.2423 3.16811 12.1208 3.21696L11.66 3.33845C11.6034 3.45351 11.6522 3.4548 11.5314 3.51651C11.3353 3.61614 11.2068 3.62642 11.1496 3.71449C11.0994 3.79227 11.129 3.8334 11.0326 3.87133C10.9574 3.9009 10.8693 3.89061 10.7973 3.9234C10.6681 3.98125 10.7356 4.00889 10.6553 4.10145C10.6103 4.15416 10.5569 4.17087 10.4971 4.19337C10.4258 4.22101 10.3364 4.23387 10.2413 4.23644C10.2304 4.54305 10.0935 4.49227 9.85435 4.52312C9.81771 4.60733 9.82671 4.61183 9.82221 4.72368C9.42432 4.77896 9.54966 4.86831 9.37675 5.00201C9.21219 5.12864 9.27133 5.07721 9.06821 5.12928L8.96022 5.29576C8.92872 5.34205 8.89915 5.35169 8.8413 5.3684C8.74424 5.39733 8.69924 5.3954 8.63175 5.48475C8.48391 5.67823 8.40291 5.64609 8.35021 5.72708C8.20622 5.9482 8.38877 5.8325 8.05645 6.01698C7.90218 6.10247 8.03138 6.00027 7.93946 6.12304C7.90732 6.16482 7.93689 6.1359 7.89446 6.17189C7.89125 6.17511 7.88418 6.17896 7.87968 6.18218C7.87582 6.18539 7.86875 6.18925 7.8649 6.19311L7.73569 6.32359C7.6727 6.36345 7.67399 6.31845 7.58721 6.38659C7.44258 6.49908 7.55057 6.60128 7.23174 6.63214C7.21182 6.88475 7.18161 6.90404 6.9277 6.92525C6.90006 7.11616 6.89813 7.05638 6.85635 7.19587C6.40125 7.23508 6.76957 7.51791 6.32862 7.54683C6.28426 7.92158 6.14285 7.75895 6.03357 7.93187C5.96544 8.04114 6.00529 8.02764 5.88895 8.12149C5.73403 8.24684 5.6344 8.46603 5.49491 8.5843L5.41521 8.66658C5.3535 8.76236 5.37214 8.80157 5.30336 8.88963C5.27958 8.91984 5.25451 8.94298 5.22558 8.9597C5.12466 9.01626 5.16966 8.96034 5.11888 9.0169L5.01603 9.30231C4.72613 9.33123 4.83155 9.47072 4.75377 9.70341C4.71585 9.8159 4.7962 9.69763 4.70556 9.7709L4.56929 9.83518C4.4298 9.88596 4.4838 10.1212 4.3456 10.1797C4.3186 10.1913 4.31539 10.1881 4.28517 10.2003C4.13926 10.2588 4.21061 10.4439 4.07305 10.5699L4.04605 10.595C4.04027 10.6001 4.02548 10.6149 4.0197 10.62L3.9657 10.6702C3.86543 10.7782 3.87186 10.8977 3.868 11.0417C3.76901 11.1131 3.86029 11.0681 3.75744 11.097C3.6983 11.1137 3.71694 11.1034 3.67259 11.1208C3.54789 11.1703 3.57489 11.3689 3.53696 11.4737C3.49646 11.5868 3.46625 11.5894 3.32034 11.6087C3.27534 11.9538 3.20206 11.9384 3.07608 12.0425C2.95009 12.1473 2.9893 12.4417 2.91538 12.5632C2.79518 12.7612 2.7219 12.5986 2.65826 12.99C2.62998 13.1642 2.54706 13.2471 2.45064 13.3673L2.42686 13.4021C2.37415 13.5017 2.39986 13.6547 2.33751 13.7511C2.31951 13.78 2.3073 13.7864 2.3028 13.7922L2.11317 14.1033C2.07396 14.2422 2.05982 14.3823 2.0039 14.5128C1.86634 14.8329 1.77699 14.4466 1.74356 15.4082L1.651 15.4789C1.5443 15.5837 1.5038 15.5741 1.48838 15.8235C1.43952 16.6257 1.32318 16.3396 1.23319 16.5781C1.15091 16.7967 1.14512 17.2775 1.14127 17.514C1.13998 17.4375 1.07377 17.55 1.04613 17.5783C0.823083 17.8103 0.947785 17.7911 0.890576 18.1105C0.831439 18.4441 0.846223 18.5431 0.775516 18.9063C0.744662 19.0651 0.754304 19.0233 0.668812 19.1531C0.564037 19.3132 0.571107 20.3327 0.569822 20.53C0.568536 20.7164 0.574964 20.9105 0.533825 21.0796C0.520969 21.1297 0.522898 21.1246 0.519684 21.1779C0.509399 21.3804 0.560823 21.6465 0.504257 21.8317C0.475331 21.9274 0.4959 21.7886 0.47276 21.9319L0.465689 22.2463C0.463118 22.6628 0.460547 24.7017 0.553109 25.0296C0.563394 25.0669 0.563394 25.0489 0.567251 25.1074L0.573679 25.7823C0.574964 25.9404 0.576893 26.1024 0.591677 26.2361C0.600033 26.31 0.59939 26.3807 0.609675 26.454C0.610961 26.4643 0.625745 26.5363 0.627673 26.5427C0.677811 26.6783 0.733092 26.6006 0.767803 26.7381C0.837224 27.0126 0.86615 27.7775 0.938786 28.151C0.979925 28.3612 1.03649 28.2956 1.09627 28.4666C1.13741 28.5823 1.13162 28.7822 1.16762 28.9172L1.21519 29.2508C1.24861 29.4565 1.31418 29.4096 1.38553 29.5317C1.49545 29.7181 1.44724 30.1527 1.53209 30.2806C1.60151 30.386 1.58158 30.269 1.71978 30.4483C1.79949 30.5518 1.77635 30.8257 1.79306 30.9851C1.81684 31.212 1.83098 31.0905 1.9454 31.1618C1.9544 31.3791 1.95826 31.2505 2.01161 31.3502C2.09517 31.5025 2.04439 31.8284 2.14017 31.9795L2.26037 32.1183C2.35358 32.2655 2.34201 32.3022 2.39086 32.4789C2.43521 32.6409 2.51556 32.6248 2.58563 32.7785C2.64798 32.9147 2.65312 33.1179 2.74697 33.2438L2.88195 33.42C2.97709 33.5685 2.8196 33.3287 2.90381 33.4515C2.9578 33.5286 2.94945 33.51 2.96745 33.6115C3.00023 33.8018 3.03172 33.8391 3.19757 33.8873L3.30363 34.3295C3.36598 34.3585 3.4444 34.3797 3.53182 34.3855C3.56524 35.1497 3.77865 34.8695 3.84743 35.1272C3.87893 35.2436 3.87636 35.3181 3.95992 35.3895L4.04991 35.4538C4.21061 35.6029 4.13476 35.6235 4.21768 35.8028C4.28839 35.9005 4.37581 35.8652 4.42916 35.9789C4.45744 36.0407 4.47158 36.1242 4.51658 36.1808C4.63807 36.3325 4.64064 36.2142 4.73192 36.4289C4.78205 36.5465 4.79427 36.5703 4.82512 36.7079C5.11952 36.8396 4.94854 36.7876 5.07195 36.9798C5.15616 37.1122 5.313 37.0267 5.35028 37.1816C5.41071 37.4413 5.40235 37.3648 5.54891 37.5159C5.62861 37.5981 5.68004 37.7261 5.76939 37.7923C6.15056 38.0751 5.9468 38.0886 6.05093 38.1863C6.14735 38.2371 6.18206 38.2004 6.24763 38.2988C6.28876 38.3618 6.29776 38.4331 6.33697 38.4993C6.42247 38.5283 6.48996 38.5373 6.54331 38.6015L6.61723 38.7577C6.62045 38.7642 6.61659 38.8458 6.63587 38.7944L6.70144 38.8375C6.97077 38.9448 6.80686 38.9737 6.93284 39.1209C6.97527 39.1717 7.04083 39.1666 7.10833 39.2334C7.16168 39.2848 7.18418 39.3613 7.23431 39.398C7.25617 39.414 7.22982 39.4031 7.29088 39.425C7.53321 39.513 7.55828 39.5439 7.7087 39.5175C7.89189 39.4847 8.04745 39.479 8.22036 39.4578C8.43441 39.432 8.71274 39.4674 8.89465 39.3684C9.01293 39.3041 9.06306 39.2842 9.22376 39.29C9.40696 39.2958 9.30668 39.3433 9.68272 39.4256C9.93019 39.4796 10.186 39.594 10.1404 39.2578L10.1198 29.1885C10.1198 28.7803 10.0973 28.9256 10.0433 28.6106C10.0041 28.3818 10.0215 28.2551 9.91413 28.0784C9.72836 27.7698 9.73286 27.3578 9.5863 27.0248L9.45774 26.6089C9.42174 26.4277 9.42689 26.211 9.39025 26.0439C9.36839 25.9417 9.34204 25.8826 9.30733 25.7977C9.05342 25.1883 9.04892 22.0914 9.14406 21.2975C9.19034 20.9099 9.1672 20.503 9.29126 20.1623C9.40503 19.8512 9.42496 19.4398 9.50852 19.0811C9.52652 19.004 9.55545 18.8825 9.58373 18.8144C9.68015 18.5766 9.7245 18.34 9.7785 18.0726C9.82799 17.8296 9.92698 17.829 9.99062 17.6368C10.0581 17.4317 10.0337 17.3167 10.125 17.1181C10.179 17.0004 10.2246 16.9972 10.2651 16.9201C10.3384 16.7806 10.348 16.5884 10.4367 16.4656C10.4894 16.3917 10.5357 16.3975 10.5762 16.3011C10.6379 16.1513 10.6643 15.9334 10.7588 15.8254C10.8693 15.6975 10.9188 15.5696 10.9735 15.3909C11.0358 15.1897 11.1554 15.1839 11.2151 14.9801C11.2768 14.7731 11.3148 14.7249 11.4536 14.5983C11.6027 14.4627 11.4922 14.372 11.7242 14.219C11.8393 14.1426 11.7795 14.1471 11.8438 14.0243L12.2668 13.4824C12.5136 13.2709 12.432 13.1668 12.6421 13.0492C12.7694 12.9778 12.7309 12.8955 12.871 12.8094C12.925 12.776 12.9192 12.7908 12.9603 12.7284C13.0137 12.6487 13.0188 12.5966 13.0876 12.5356L13.2682 12.3839C13.3537 12.281 13.3582 12.1917 13.4926 12.1293C13.6385 12.0605 13.5671 12.0895 13.6494 11.9853C13.7336 11.8812 13.7349 11.9262 13.8429 11.8574C13.9451 11.7919 13.9194 11.7475 13.9779 11.6659C14.0582 11.5521 14.1212 11.6222 14.1971 11.5637C14.2948 11.4885 14.1264 11.6504 14.2183 11.5392C14.3584 11.3715 14.3192 11.3882 14.5217 11.2609C14.5975 11.2133 14.6104 11.1458 14.6747 11.0841C14.7871 10.9749 14.7775 11.0571 14.8746 10.9704C14.881 10.9646 15.0648 10.7293 15.1818 10.6496C15.2596 10.5963 15.3265 10.5802 15.3927 10.5243C15.4852 10.4465 15.4479 10.4465 15.5778 10.3899C15.6144 10.3738 15.6594 10.3597 15.6935 10.3321L15.7192 10.3076C15.9519 10.0794 15.9352 10.1649 16.173 10.0505C16.1788 10.0479 16.1859 10.0447 16.191 10.0422L16.3498 9.90139C16.4121 9.82876 16.3221 9.87118 16.4546 9.81076L16.7637 9.65649C16.8319 9.61278 16.8852 9.56778 16.9521 9.51379L17.1687 9.41094C17.2471 9.36916 17.2651 9.33252 17.3339 9.27145C17.4567 9.16218 17.6617 9.16861 17.7986 9.08183C17.8552 9.04583 17.8398 9.0484 17.8828 9.01369L17.9298 8.97834C17.9368 8.97384 17.9761 8.95327 17.9831 8.95005C18.1194 8.8832 18.3103 8.83564 18.4794 8.82985C18.4948 8.73343 18.5539 8.69744 18.633 8.66465C18.8477 8.5753 19.1016 8.55409 19.3086 8.4551C19.6435 8.29505 19.3851 8.35354 19.9565 8.2192C20.1879 8.1652 20.1506 8.18577 20.3422 8.08935L20.6282 8.00322C20.7896 7.96979 20.9342 7.94601 21.111 7.91515C21.4066 7.86309 21.3359 7.85859 21.5757 7.7821C21.7313 7.73196 21.8907 7.70689 22.0655 7.69339C22.2474 7.67861 22.4853 7.66446 22.6389 7.65996L23.9746 7.54876C24.3706 7.46905 24.9504 7.50569 25.3952 7.50377C25.5308 7.50248 25.588 7.50505 25.6934 7.52755L26.4616 7.6079C26.513 7.52112 26.5406 7.43949 26.6216 7.3977C26.6968 7.35849 26.7894 7.31864 26.8215 7.22608C26.8723 7.08209 26.8338 7.06345 26.9154 6.91946C27.0041 6.76326 27.0767 6.76455 27.1487 6.56014C27.2226 6.34995 27.2747 6.3538 27.3737 6.20918C27.4161 6.14682 27.4476 6.00477 27.4804 5.92699C27.5588 5.73801 27.5813 5.84021 27.6578 5.71229C27.699 5.64223 27.7459 5.51046 27.7742 5.43975L27.8609 5.26427C27.8654 5.25784 27.8809 5.24177 27.8867 5.23663C28.0448 5.0695 28.0602 4.81752 28.1907 4.68318C28.2646 4.60733 28.2357 4.68254 28.2916 4.57519L28.4073 4.30329C28.4767 4.16444 28.5166 4.20494 28.5796 4.08602C28.6734 3.9099 28.7178 3.75306 28.8425 3.59429C28.8946 3.52872 28.8611 3.55058 28.9261 3.49272C29.0874 3.34874 29.3368 3.36545 29.3985 3.60714C29.4461 3.79677 29.4544 3.74406 29.5386 3.85655C29.6756 4.03846 29.6653 4.21137 29.8388 4.33286C29.9989 4.44535 29.9757 4.69539 30.1114 4.84259C30.3203 5.0695 30.2367 5.19613 30.3839 5.34912L30.4842 5.46096C30.562 5.58502 30.569 5.74765 30.6577 5.85692C30.6867 5.89356 30.7259 5.92185 30.7574 5.9662C30.7824 6.00027 30.8043 6.04591 30.8236 6.08383C30.9065 6.24389 30.9161 6.35702 31.0409 6.48622L31.0788 6.52929C31.1424 6.61478 31.1701 6.72727 31.2273 6.82304L31.4066 7.03067C31.4702 7.11037 31.4728 7.20872 31.5191 7.30836C31.6155 7.51469 31.7016 7.38678 31.8071 7.79817C31.8546 7.98458 31.8713 7.91708 31.9774 8.01993C32.0584 8.09899 32.0481 8.17034 32.0918 8.29762C32.1882 8.57273 32.2461 8.46153 32.3824 8.7855L32.4852 8.99441C32.6311 9.18339 32.8002 9.22324 32.984 9.35116C33.0618 9.40451 33.1441 9.43665 33.2559 9.46043C33.6056 9.53693 33.4578 9.65713 33.7605 9.73876C33.9096 9.77926 34.0369 9.82811 34.1488 9.92967C34.2548 10.0261 34.3937 10.0473 34.5229 10.1251C34.5974 10.1701 34.6688 10.2575 34.7331 10.3076C34.807 10.3668 34.9195 10.3674 35.0152 10.4124C35.1766 10.4883 35.0917 10.5326 35.2222 10.5943C35.2563 10.6104 35.3161 10.629 35.3707 10.6541C35.6683 10.7923 35.5706 10.8026 35.6985 10.9016C35.777 10.962 35.8882 10.9581 35.9647 11.0263C36.0347 11.0893 36.0373 11.1716 36.1286 11.2204L36.3844 11.3599C36.4558 11.4171 36.5187 11.4872 36.5946 11.5379C36.6962 11.6067 36.7714 11.5887 36.8421 11.6839C36.8941 11.7546 36.8427 11.7301 36.9263 11.8073C36.9822 11.8587 36.9726 11.8407 37.0381 11.8735C37.2123 11.9635 37.1352 11.9628 37.2342 12.0721C37.3004 12.1447 37.3942 12.1557 37.4662 12.2283C37.6224 12.3871 37.5164 12.3524 37.769 12.4912L37.8757 12.5741C37.859 12.5362 37.8956 12.515 37.9406 12.4822C38.0287 12.4173 38.0537 12.3331 38.1289 12.2547C38.163 12.2187 38.1874 12.202 38.2183 12.1653C38.2491 12.1293 38.2704 12.0888 38.3025 12.0432L38.3256 12.011C38.3308 12.0053 38.3456 11.9873 38.3507 11.9815C38.4323 11.8941 38.5159 11.8664 38.5583 11.7372C38.622 11.545 38.5731 11.6087 38.721 11.493C38.7962 11.4345 38.8065 11.3483 38.8739 11.259C38.9948 11.1002 38.9935 11.1748 39.1336 10.9215C39.349 10.5313 39.2911 10.7325 39.3869 10.6008C39.4332 10.5371 39.4467 10.4092 39.5161 10.3404C39.5881 10.271 39.5765 10.3211 39.6459 10.2639C39.7334 10.1926 39.7732 10.0042 39.8658 9.90975C39.9358 9.83775 39.8998 9.90782 39.9795 9.81461C40.0818 9.69313 40.0464 9.52664 40.1904 9.46172C40.3897 9.37237 40.2945 9.44758 40.3781 9.25088C40.4231 9.14675 40.4674 9.12297 40.5998 9.08504C40.6217 8.8832 40.6738 8.85106 40.7953 8.75979C40.9013 8.68008 40.938 8.57338 41.01 8.45317C41.0774 8.34004 41.1989 8.30083 41.26 8.18577C41.3018 8.10671 41.2819 8.07714 41.3436 8.00772C41.3963 7.94794 41.4239 7.95501 41.4927 7.92415C41.5441 7.59311 41.6373 7.66832 41.7717 7.47227C41.7749 7.46777 41.7794 7.46134 41.7826 7.45684L41.8668 7.246C41.8887 7.18237 41.8906 7.1708 41.9246 7.13159C42.0166 7.02553 42.041 7.15087 42.131 6.99596C42.2235 6.83654 42.1098 6.8134 42.3463 6.73177C42.4498 6.69577 42.4472 6.63342 42.5012 6.54022L42.6613 6.35959C42.5546 6.2921 42.5218 6.31009 42.4556 6.20082C42.3759 6.07097 42.4408 6.07097 42.2737 6.01634C42.0931 5.95656 42.113 5.88714 41.9722 5.77336L41.7723 5.63387C41.6193 5.53745 41.6572 5.47446 41.4946 5.39283C41.4297 5.36004 41.3693 5.3414 41.3178 5.28291C41.2928 5.25527 41.3031 5.26427 41.2844 5.23791C41.1681 5.074 41.0177 5.12157 40.8621 4.95958C40.774 4.86766 40.783 4.85802 40.6461 4.8066C40.5626 4.77574 40.4829 4.73717 40.4218 4.67225C40.3453 4.58869 40.3556 4.54241 40.2392 4.51091C39.7366 4.37335 39.9519 4.36564 39.8086 4.24479C39.7353 4.18244 39.6151 4.20108 39.5354 4.15095C39.4557 4.10081 39.4402 3.96968 39.3496 3.94268L39.0321 3.86747C38.9851 3.85462 38.9234 3.83276 38.8907 3.78905L38.8244 3.66178C38.811 3.584 38.5166 3.58529 38.4516 3.56407C38.3559 3.53322 38.3134 3.49272 38.2781 3.41944C38.2177 3.29346 38.1868 3.32367 38.0576 3.28446C37.8757 3.22918 37.877 3.07041 37.6552 3.01448C37.3884 2.94763 37.3775 2.96563 37.2014 2.79722C37.0953 2.6963 36.9012 2.68344 36.7765 2.62302C36.736 2.60374 36.7347 2.60567 36.7007 2.59345C36.5168 2.5266 36.5869 2.49511 36.4146 2.43275C36.2256 2.36462 35.901 2.4154 35.802 2.19942C35.7995 2.19428 35.795 2.18978 35.7937 2.17885C35.7892 2.14542 35.7429 2.14414 35.7153 2.13835L35.6105 2.11586C35.5359 2.09657 35.5391 2.09272 35.4356 2.07986C34.9915 2.02587 35.2473 1.84781 34.8603 1.82017C34.6598 1.80474 34.663 1.79124 34.5004 1.76489C34.4432 1.75589 34.3937 1.75268 34.3448 1.72182L34.2619 1.62862C34.258 1.62476 34.2535 1.61833 34.249 1.61383C34.177 1.53991 34.0703 1.52063 33.9405 1.49813C33.7406 1.46213 33.4205 1.5142 33.3915 1.25194C33.3067 1.24808 32.4222 1.12081 32.3599 1.08481Z" fill="white"/>
<path fill-rule="evenodd" clip-rule="evenodd" d="M35.0513 23.1824C35.0172 26.1077 35.0481 29.0697 35.0481 31.9964L35.0474 34.7263C35.0468 35.0696 34.9999 35.425 34.9973 35.7657C34.9941 36.1488 34.969 37.0648 34.8707 37.3868L34.7684 37.725C34.6907 38.0399 34.699 38.4237 34.5943 38.8505C34.5364 39.089 34.4316 39.2831 34.3988 39.537C34.3301 40.066 34.188 39.9844 34.0948 40.5346C34.0183 40.9839 33.9669 40.8451 33.8409 41.1671C33.7766 41.331 33.7869 41.504 33.6821 41.6357C33.5896 41.7527 33.5073 41.9153 33.4571 42.0831C33.4006 42.2727 33.2945 42.3357 33.227 42.5048L33.065 42.7587C33.0245 42.8153 32.9834 42.8281 32.9468 42.8757C32.8876 42.9509 32.8754 43.0807 32.8009 43.172C32.7424 43.244 32.7642 43.1861 32.7019 43.2794L32.6016 43.415C32.5174 43.5165 32.5463 43.5776 32.4267 43.6599C32.3265 43.7287 32.3008 43.8193 32.2493 43.9177C32.1741 44.0616 32.133 43.9581 31.9588 44.2262L31.8199 44.3785C31.6766 44.4833 31.7441 44.5032 31.6149 44.6144C31.4458 44.7604 31.4021 44.8465 31.289 44.9378C31.0968 45.092 31.0917 45.0875 31.0968 45.4128C31.1431 45.4359 31.2215 45.4597 31.2851 45.4488C31.406 45.4282 31.4028 45.3774 31.4452 45.353C31.5339 45.3016 32.1542 45.245 32.3458 45.1833C32.4062 45.1634 32.3914 45.1769 32.4396 45.1492C32.5373 45.0933 32.5746 45.0509 32.7192 45.0117C32.9815 44.9397 33.3234 44.9288 33.5491 44.779C33.632 44.7237 33.9341 44.6749 34.143 44.5907L34.7325 44.374C35.0044 44.275 35.0686 44.3348 35.336 44.1722C35.5186 44.061 35.7513 44.0681 35.9326 43.962C35.9975 43.9247 36.0155 43.8862 36.0894 43.8579C36.1884 43.8199 36.1897 43.854 36.2803 43.7917C36.3896 43.7165 36.5567 43.7126 36.673 43.6374C36.8485 43.5243 36.7425 43.5294 37.015 43.4581C37.4277 43.3494 37.2869 43.3038 37.5762 43.2119L37.8937 43.1367C37.9972 43.1116 38.0383 43.0229 38.1315 42.9637C38.2415 42.8937 38.3707 42.8635 38.5134 42.8217C38.7281 42.7574 38.6496 42.6899 38.8457 42.6096C38.9794 42.5543 39.0861 42.5202 39.1992 42.445C39.2603 42.4052 39.2931 42.3627 39.3458 42.3319C39.4544 42.2676 39.6408 42.2483 39.7315 42.1725C39.7816 42.1307 39.8105 42.0799 39.8658 42.0458C40.0194 41.9488 40.1557 42.0291 40.2463 41.8871C40.3588 41.7109 40.5343 41.7309 40.6699 41.6049C40.8654 41.4236 40.9823 41.4043 41.1771 41.2526L41.7351 40.8489C41.8469 40.739 41.6374 40.9216 41.7614 40.8226C41.8418 40.759 41.8803 40.7866 41.9735 40.6972C42.4441 40.2492 42.5514 40.6195 42.5495 39.7446L42.5488 23.7802C42.552 22.8712 42.6459 23.0069 41.307 23.0075C40.9129 23.0075 35.5269 22.9754 35.3354 23.0146C35.2814 23.0255 35.2306 23.0551 35.1837 23.0924L35.0513 23.1824Z" fill="white"/>
<path fill-rule="evenodd" clip-rule="evenodd" d="M25.0282 38.8298C25.1882 38.8292 25.3155 38.772 25.4601 38.8214C25.518 38.8407 25.4286 38.8478 25.5797 38.8562C25.7037 38.8626 25.7198 38.8195 25.8638 38.8298C26.585 38.8799 27.3763 38.8581 28.1078 38.8549C28.1084 38.8825 28.1117 38.9365 28.1039 38.9616C28.0814 39.0355 28.1252 38.9905 28.0583 39.0252V39.1377C28.1207 39.1679 28.0988 39.139 28.1097 39.2174L30.4489 39.2168L30.4476 39.4392C29.6865 39.4456 28.8657 39.3968 28.1097 39.4662V39.5279L30.364 39.5305C30.463 39.5118 30.4238 39.5658 30.4321 39.4501H30.5279L30.5896 39.5285V39.2945H31.6033C31.6033 39.1422 31.595 39.2701 31.6445 39.2168V39.5298L31.9189 39.5324C31.9337 39.418 31.9164 39.4527 32.0726 39.4514V39.2952H32.2018V39.2174C32.2442 39.2586 32.232 39.2187 32.2435 39.2945L32.3824 39.2155V39.0085L32.6189 39.0355C32.6254 38.8311 32.6369 38.9931 32.7777 38.9127L32.8259 38.7237C32.9063 38.5849 32.9037 38.5643 32.9011 38.367C32.9069 38.3631 32.9172 38.3548 32.9191 38.3606L32.9898 38.2661C33.0265 38.1883 32.959 38.2648 33.0316 38.1954L33.1004 38.2886L33.0663 39.1184C32.7713 39.1338 32.8632 39.3505 32.7687 40.0267C32.6035 40.0447 32.6189 40.0556 32.5566 40.1835C32.5071 40.2851 32.5135 40.5101 32.5064 40.6881C32.3457 40.7145 32.275 40.6598 32.2307 40.7717C32.169 40.9266 32.2487 41.1632 32.1883 41.3309C32.1285 41.4968 31.9858 41.4685 31.9472 41.6864C31.8913 42.0065 31.9106 41.8522 31.7402 41.9821L31.6085 42.0849L31.611 42.423C31.46 42.4796 31.4915 42.425 31.3481 42.522C31.3372 42.8145 31.3353 42.7451 31.1816 42.7894C31.1103 42.81 31.1225 42.7811 31.0897 42.8762L31.0261 43.0491C30.9406 43.2426 31.0409 43.2355 30.8435 43.3223C30.7265 43.3744 30.7015 43.4779 30.6893 43.6096C30.3113 43.6186 30.4829 43.8147 30.3602 43.9278C30.2631 44.0172 30.2637 43.9137 30.1699 44.0551C30.1127 44.1406 30.1358 44.1926 30.0201 44.2203C29.6524 44.3103 29.8973 44.3951 29.6454 44.505C29.5991 44.5256 29.5766 44.5301 29.5387 44.5584C29.486 44.5989 29.4962 44.6034 29.4628 44.649C29.4204 44.7062 29.3362 44.7487 29.3915 44.811C29.3921 44.8123 29.3985 44.8162 29.4011 44.8149C29.3478 44.8303 29.322 44.8457 29.268 44.8843C29.2635 44.8875 29.2571 44.8926 29.2526 44.8959L29.2237 44.9196C29.0964 45.0122 29.1157 44.9409 28.9904 45.0816C28.9865 45.0855 28.982 45.0919 28.9788 45.0958C28.8849 45.1928 28.8779 45.0958 28.6696 45.1909C28.5385 45.2507 28.6259 45.223 28.5539 45.324C28.4941 45.4075 28.6002 45.3208 28.4883 45.3735C28.4832 45.3767 28.4755 45.3786 28.4703 45.3805L28.2794 45.4795C27.8327 45.7039 28.2537 45.592 27.825 45.7212C27.7485 45.7437 27.6951 45.7855 27.6662 45.7939C27.6244 45.8061 27.6193 45.7983 27.5781 45.8067C27.4798 45.8253 27.4965 45.817 27.4412 45.8723C27.3512 45.9642 27.3615 46.0079 27.2297 46.0298C27.0999 46.0516 26.9938 46.0863 26.8775 46.159C26.8717 46.1628 26.8653 46.1667 26.8601 46.1712C26.8544 46.175 26.8486 46.1795 26.8441 46.184L26.7727 46.2579C26.7489 46.2695 26.6146 46.2824 26.5767 46.2933L26.2353 46.3916C25.9538 46.4643 25.8953 46.5395 25.7243 46.5864C25.599 46.6211 25.4756 46.6468 25.3772 46.6796C25.3322 46.6944 25.3232 46.6983 25.2994 46.7066C25.2917 46.7092 25.2679 46.7169 25.2602 46.7201C25.1953 46.7439 25.2448 46.7246 25.2024 46.7426C25.1156 46.7805 25.1194 46.7799 25.0487 46.8281C24.8874 46.9374 24.5834 46.9271 24.4034 46.9798C24.2504 47.0254 24.0736 47.0209 23.8891 47.0254C23.8165 47.0274 23.7252 47.0312 23.6532 47.0377C23.4501 47.0563 23.3344 47.1669 23.1306 47.1874C22.6987 47.2318 20.6617 47.2961 20.4013 47.1566L20.1339 47.0608C19.7508 46.9657 19.3079 46.992 18.9056 46.9329C18.7166 46.9052 18.7134 46.902 18.5803 46.7966C18.5019 46.7349 18.338 46.7079 18.2229 46.6867C18.0905 46.6623 17.9677 46.6089 17.8308 46.6089C17.8308 46.4553 17.8032 46.4244 17.6778 46.3981C17.6855 46.3891 17.6971 46.3672 17.7029 46.3743C17.7029 46.3743 17.7453 46.3267 17.8051 46.3229C17.6116 46.3158 17.4078 46.3634 17.2047 46.3479C17.1154 46.3409 17.0954 46.3242 16.999 46.3197L16.9707 46.2714C16.9052 46.1532 16.8332 46.1455 16.7059 46.105C16.6995 46.1024 16.6937 46.0998 16.6873 46.0979C16.5664 46.0613 16.1942 46.0471 16.1152 45.9963C16.11 45.9905 16.1049 45.9719 16.103 45.9758C16.1023 45.9777 16.0567 45.862 16.0098 45.8298C15.9661 45.8003 15.9873 45.8331 15.9339 45.7906C15.815 45.6968 15.9346 45.8003 15.9249 45.7784L15.9333 45.7675C15.7391 45.763 15.511 45.7726 15.3734 45.6299C15.1703 45.4191 15.2301 45.5052 14.9884 45.4307C14.9016 45.4043 14.8881 45.4127 14.7891 45.4127C14.784 45.2815 14.7891 45.3735 14.7666 45.3265L14.676 45.2166C14.5808 45.1433 14.2884 45.1196 14.1502 45.1067C14.0582 44.7866 13.8757 44.9608 13.7465 44.7885L13.6719 44.6317C13.6282 44.5738 13.6867 44.6297 13.5916 44.595L13.2284 44.5102C13.1924 44.5012 13.193 44.4948 13.1757 44.4421L13.0985 44.2659C12.8909 44.2595 12.8446 44.2119 12.6454 44.1991C12.6113 43.8346 12.3985 44.0673 12.2693 43.8455C12.2147 43.751 12.207 43.7337 12.0951 43.69C11.9653 43.6379 11.9171 43.6103 11.7416 43.5955C11.6857 43.3377 11.6265 43.4142 11.435 43.3204L11.3045 43.0465C10.8481 43.0465 11.1271 42.9199 10.9542 42.8049L10.7511 42.7277C10.5994 42.6692 10.6424 42.7187 10.6341 42.5207C10.627 42.5284 10.7112 42.5529 10.5955 42.5297C10.5235 42.515 10.5974 42.5439 10.5473 42.5098C10.5049 42.4815 10.4959 42.4545 10.4727 42.4179L10.2246 42.4089C10.2111 42.0483 10.1179 42.2411 9.927 42.1267C9.79266 42.0303 9.90386 41.9737 9.6911 41.8805C9.46676 41.7815 9.58825 41.7423 9.44491 41.6305C9.41084 41.6041 9.34142 41.5636 9.30349 41.5398C9.13508 41.4331 9.25657 41.507 9.17365 41.4068C9.11772 41.3393 9.02516 41.3232 8.97374 41.2435C8.93774 41.1882 8.94353 41.2133 8.92296 41.1323C9.04509 41.0744 9.04059 41.068 9.21478 41.1059L9.65831 41.1612C9.85308 41.1953 9.70588 41.3097 10.0061 41.3534C10.2317 41.3868 10.5029 41.3778 10.7131 41.4691C10.8417 41.525 10.8153 41.5649 10.904 41.6562C10.9619 41.7153 11.0198 41.7783 10.9407 41.7211L12.3966 41.7552C12.4705 42.0129 12.9256 41.9679 13.1673 42.0104C13.3981 42.0509 13.6963 42.0071 13.9323 42.0727C13.94 42.0746 13.9464 42.0766 13.9541 42.0791C14.1881 42.1595 13.9695 42.137 14.4831 42.2527C14.7563 42.3138 17.7832 42.3446 18.1284 42.2694C18.1856 42.2572 18.2203 42.234 18.282 42.2193L18.6555 42.0997C18.9846 41.9589 19.4706 42.128 19.7457 41.867C19.801 41.8143 19.7823 41.8021 19.8595 41.7732C20.0677 41.6967 20.3975 41.7475 20.5839 41.6131C20.7221 41.5135 20.6379 41.4942 20.859 41.4505C21.4883 41.3264 21.2325 41.2088 21.4375 41.1548C21.8251 41.0532 21.7911 40.9105 22.009 40.8373C22.1568 40.7871 22.2063 40.7563 22.2249 40.5769C22.4204 40.5216 22.5406 40.4869 22.6543 40.332C22.7353 40.2215 22.7013 40.305 22.7848 40.224C22.8928 40.1193 22.8202 40.0511 22.9924 39.9939C23.0959 39.9598 23.0934 39.9939 23.1339 39.9007C23.1705 39.8165 23.1281 39.7246 23.2373 39.6886L23.4353 39.6545L23.4456 39.4225C23.5176 39.4218 23.5774 39.4289 23.6346 39.3852L23.6609 39.3608C23.6648 39.3575 23.6706 39.3524 23.6744 39.3485C23.6963 39.3254 23.6834 39.3421 23.7098 39.3068L23.8197 39.1319C23.8306 39.1171 23.848 39.0985 23.8583 39.0889C23.9399 39.0156 23.9836 39.0104 23.9868 38.8542L24.3301 38.8607L24.3275 39.1229L25.0989 39.1287C25.1799 39.121 25.2384 39.1126 25.3374 39.1126V39.0496L25.1053 39.0484V38.9442H25.0282V38.8298ZM24.6271 30.8013C24.5911 31.3117 24.6187 31.9397 24.6187 32.4642C24.6187 33.3281 24.6489 35.0264 24.5969 35.7958C24.5782 36.069 24.5962 36.3415 24.5596 36.5967C24.5416 36.7214 24.5294 36.8288 24.5011 36.9522C24.4387 37.2286 24.4362 37.1431 24.3706 37.2325C24.3185 37.3019 24.2562 37.7679 24.1913 37.9145C24.1353 38.0405 24.0749 38.0315 24.0254 38.1619C23.8692 38.5798 24.0203 38.4448 23.7542 38.7244C23.7002 38.781 23.6661 38.9256 23.6211 39.0034C23.454 39.2907 23.5086 39.0824 23.3492 39.353C23.1564 39.6783 23.1538 39.5652 23.067 39.6995C23.0323 39.7535 23.0413 39.7863 22.9314 39.8776C22.9269 39.8808 22.9211 39.8853 22.9166 39.8891C22.7347 40.0338 22.8035 40.0633 22.6833 40.1533C22.5631 40.2433 22.5496 40.1919 22.4583 40.3378C22.3548 40.5017 22.3676 40.4284 22.2172 40.5216C22.1202 40.5814 22.144 40.6431 22.0141 40.7306C21.9305 40.7871 21.8296 40.8205 21.7422 40.8752C21.6188 40.953 21.6304 41.0134 21.4594 41.0429C21.2209 41.0597 21.0949 41.2769 20.8262 41.3284C20.6501 41.3618 20.4952 41.4646 20.3377 41.5463C20.2734 41.5797 20.2233 41.5977 20.1506 41.615C20.0144 41.6485 19.8749 41.6433 19.7418 41.6767C19.1845 41.8182 19.3504 41.9364 18.5591 41.948C18.0661 41.9557 17.8809 42.0412 17.7016 42.0528C17.0691 42.0933 15.3753 42.0624 14.8579 41.9872C14.5667 41.9454 13.9811 41.9666 13.7619 41.8882C13.6841 41.8599 13.6571 41.858 13.5716 41.8439C13.4547 41.8246 13.265 41.8027 13.1564 41.7648C12.916 41.6812 12.585 41.6587 12.3221 41.6337C12.1678 41.6195 11.7326 41.5662 11.5899 41.5109C11.5321 41.4878 11.5475 41.4961 11.4877 41.4813L10.6906 41.3142C10.6379 41.3033 10.5782 41.2814 10.5152 41.2583C10.4676 41.2409 10.3718 41.2178 10.3377 41.2017C10.1359 41.1066 10.3018 41.1214 9.95336 41.0886C9.8113 41.0744 9.71745 41.0314 9.57154 41.0044C9.43783 40.98 9.3472 40.9163 9.21543 40.8688C8.95124 40.7736 8.70055 40.6939 8.41258 40.6746C8.31487 40.8193 8.2808 40.8958 8.45693 41.0076C8.75069 41.1927 8.59577 41.158 8.73655 41.2499C9.06758 41.4666 8.74362 41.3811 9.14922 41.6176C9.22893 41.6639 9.23086 41.6986 9.28678 41.7616L9.47383 41.9384C9.5304 42.0039 9.57346 42.0046 9.62489 42.0734C9.63196 42.0824 9.68145 42.1447 9.68274 42.1466L9.76952 42.2167C9.77337 42.2199 9.77916 42.225 9.78366 42.2283L10.0016 42.3735C10.0472 42.4172 10.0048 42.389 10.0652 42.4404L10.2812 42.6165C10.3377 42.6474 10.3686 42.7187 10.4271 42.756C10.5711 42.8486 10.6161 42.8049 10.744 42.9572C10.8276 43.0562 10.9253 43.1121 11.0333 43.1899L11.327 43.4149C11.4041 43.474 11.4896 43.5004 11.5616 43.5698C11.8117 43.814 11.8322 43.7401 11.9794 43.8314L12.1466 43.976C12.1794 43.994 12.1704 43.9863 12.2012 44.0005L12.4628 44.1547C12.549 44.21 12.5901 44.2814 12.6904 44.3193C12.7296 44.3341 12.7489 44.3405 12.7784 44.3585L13.0137 44.5603C13.0169 44.5642 13.0208 44.5713 13.024 44.5751C13.0863 44.6529 13.1403 44.6465 13.2335 44.7069C13.2933 44.7454 13.3255 44.7699 13.3897 44.8117C13.5896 44.9421 13.6424 44.9299 13.8641 45.1157L14.0332 45.2083C14.1032 45.2359 14.1701 45.2475 14.2479 45.2803L14.584 45.4641C14.748 45.5444 14.8836 45.5727 15.0301 45.6923C15.1581 45.7964 15.3181 45.8478 15.4743 45.8993C15.5617 45.9275 15.5695 45.9758 15.644 46.0143C15.8144 46.1037 16.0875 46.0728 16.4141 46.2856C16.5523 46.3756 16.5754 46.4032 16.7747 46.4456C17.0582 46.5067 17.046 46.6012 17.584 46.7053C17.7582 46.7394 17.8533 46.7915 17.9883 46.8435C18.3958 47.0017 19.6274 47.1572 19.7399 47.2003C19.907 47.2646 20.1416 47.2305 20.3191 47.2748C20.4193 47.2999 20.454 47.3565 20.6392 47.3648C21.003 47.3816 22.4364 47.4529 22.7154 47.361C22.8652 47.3108 23.4932 47.2703 23.6558 47.2652C23.7272 47.2633 24.0415 47.2029 24.0974 47.1823L24.1334 47.1662C24.3442 47.0807 24.7267 47.0492 24.9761 46.9965C25.1284 46.9637 25.2551 46.9303 25.392 46.8641C25.6118 46.7574 25.6273 46.794 25.7815 46.7343C25.9339 46.6751 26.0361 46.6681 26.1698 46.5761C26.3806 46.4315 26.8068 46.4887 26.9765 46.3422L27.1237 46.2297C27.2362 46.1795 27.2259 46.211 27.3352 46.1789L27.3892 46.1564C27.3962 46.1525 27.4149 46.1403 27.4213 46.1371L27.7498 45.9192C27.8018 45.8793 27.744 45.9102 27.8288 45.8703C27.9124 45.8305 27.9445 45.8395 28.021 45.8016C28.1939 45.7161 28.3546 45.5914 28.5153 45.4911C28.5198 45.4879 28.5269 45.4847 28.532 45.4814C28.5372 45.4789 28.5443 45.4763 28.5488 45.4731L28.8335 45.288C28.9106 45.2404 28.9364 45.2275 29.0199 45.1903C29.1035 45.1523 29.0476 45.1845 29.1028 45.1408L29.9025 44.4832C29.95 44.4273 29.9983 44.4125 30.058 44.381C30.1191 44.3488 30.1802 44.3103 30.2265 44.2621C30.3788 44.102 30.5414 44.014 30.6186 43.8738C30.6828 43.7568 30.7375 43.7478 30.812 43.6514C30.956 43.4656 31.0563 43.5364 31.1264 43.3146C31.1379 43.278 31.1424 43.2638 31.1669 43.2233C31.1939 43.1783 31.2106 43.2458 31.2119 43.1359C31.2427 42.9893 31.2286 43.1282 31.3301 42.9238C31.361 42.8627 31.3867 42.7946 31.433 42.7386C31.5551 42.5908 31.5705 42.6242 31.6708 42.4012C31.7049 42.3247 31.7209 42.2591 31.7794 42.2006C31.8688 42.1113 31.8624 42.1891 31.9157 42.047C31.9485 41.9589 31.953 41.9184 31.9909 41.8374C32.1908 41.4055 32.1478 41.7108 32.2223 41.4646C32.358 41.0198 32.4248 41.0777 32.4981 40.8893C32.5547 40.744 32.5836 40.6058 32.6414 40.4612C32.7282 40.244 32.7147 40.4747 32.8208 40.0691C32.8915 39.7972 32.8677 39.6179 33.0142 39.38C33.2135 39.0574 33.1364 38.5579 33.3196 38.2314C33.5137 37.8862 33.4211 36.3968 33.632 35.6345C33.7085 35.3594 33.6802 31.3284 33.6448 31.0803C33.6262 30.953 33.6294 30.9909 33.5703 30.9215C33.5658 30.9157 33.551 30.9003 33.5465 30.8945C33.4713 30.7807 33.5131 29.6687 33.5137 29.4746C33.5156 29.0619 33.4854 28.718 33.4841 28.3304C33.4835 28.2121 33.5092 27.2415 33.4501 27.2383C33.4475 27.4903 33.4449 27.7409 33.4449 27.9923C33.4449 28.4172 33.4115 28.4384 33.4083 28.7212C33.4044 28.7154 33.4012 28.7077 33.3993 28.7032L33.3806 28.6409C33.3755 28.6113 33.3781 28.5702 33.3781 28.5393L33.3543 28.6421L33.0985 28.6479L33.0952 29.0336L25.1921 29.0375L25.1908 29.6295L25.032 29.6314V29.0349H24.9041C24.9041 29.3004 24.9298 30.7942 24.8771 30.9157C24.7723 30.8829 24.8353 30.8225 24.773 30.7409C24.6547 30.7904 24.6573 31.0173 24.647 31.1253L24.6271 30.8013Z" fill="white"/>
<path fill-rule="evenodd" clip-rule="evenodd" d="M25.0232 38.9442H25.1003V39.0483L25.3324 39.0496V39.1126C25.2334 39.1126 25.1749 39.1209 25.0939 39.1287L24.3225 39.1229L24.3251 38.8606L23.9819 38.8542C23.9786 39.0104 23.9349 39.0155 23.8533 39.0888C23.843 39.0984 23.8257 39.1171 23.8147 39.1319L23.7048 39.3067C23.6785 39.3421 23.6913 39.3253 23.6695 39.3485C23.6656 39.3523 23.6598 39.3575 23.656 39.3607L23.6296 39.3851C23.5724 39.4288 23.5126 39.4218 23.4406 39.4224L23.4303 39.6545L23.2324 39.6885C23.1231 39.7245 23.1655 39.8164 23.1289 39.9006C23.0884 39.9939 23.0909 39.9598 22.9875 39.9939C22.8152 40.0511 22.8878 40.1192 22.7798 40.224C22.6963 40.305 22.7303 40.2214 22.6493 40.332C22.5356 40.4869 22.4154 40.5216 22.22 40.5769C22.2013 40.7562 22.1518 40.7871 22.004 40.8372C21.7861 40.9105 21.8201 41.0532 21.4325 41.1547C21.2275 41.2087 21.4833 41.3264 20.854 41.4504C20.6329 41.4941 20.7171 41.5134 20.5789 41.6131C20.3925 41.7474 20.0627 41.6966 19.8545 41.7731C19.7773 41.802 19.796 41.8142 19.7407 41.867C19.4656 42.1279 18.9796 41.9589 18.6505 42.0996L18.2771 42.2192C18.2153 42.234 18.1806 42.2571 18.1234 42.2693C17.7782 42.3446 14.7513 42.3137 14.4781 42.2526C13.9645 42.1369 14.1831 42.1594 13.9491 42.0791C13.9414 42.0765 13.935 42.0746 13.9273 42.0727C13.6914 42.0071 13.3931 42.0508 13.1623 42.0103C12.9207 41.9679 12.4656 42.0129 12.3916 41.7551L10.9357 41.721C11.0148 41.7783 10.9569 41.7153 10.8991 41.6561C10.8104 41.5648 10.8367 41.525 10.7082 41.4691C10.498 41.3778 10.2267 41.3868 10.0011 41.3534C9.70089 41.3097 9.84809 41.1952 9.65333 41.1612L9.2098 41.1059C9.0356 41.068 9.0401 41.0744 8.91797 41.1322C8.93854 41.2132 8.93275 41.1882 8.96875 41.2434C9.02017 41.3232 9.11274 41.3392 9.16866 41.4067C9.25158 41.507 9.13009 41.4331 9.2985 41.5398C9.33643 41.5636 9.40585 41.6041 9.43992 41.6304C9.58326 41.7423 9.46177 41.7815 9.68611 41.8805C9.89887 41.9737 9.78767 42.0302 9.92201 42.1266C10.1129 42.2411 10.2061 42.0482 10.2196 42.4088L10.4677 42.4178C10.4909 42.4545 10.4999 42.4815 10.5423 42.5098C10.5924 42.5438 10.5185 42.5149 10.5905 42.5297C10.7062 42.5528 10.622 42.5284 10.6291 42.5207C10.6374 42.7187 10.5944 42.6692 10.7461 42.7277L10.9492 42.8048C11.1221 42.9199 10.8431 43.0465 11.2995 43.0465L11.43 43.3203C11.6216 43.4142 11.6807 43.3377 11.7366 43.5954C11.9121 43.6102 11.9603 43.6379 12.0902 43.6899C12.202 43.7336 12.2097 43.751 12.2644 43.8455C12.3936 44.0672 12.6063 43.8346 12.6404 44.199C12.8397 44.2119 12.8859 44.2594 13.0936 44.2659L13.1707 44.442C13.1881 44.4947 13.1874 44.5011 13.2234 44.5101L13.5866 44.595C13.6817 44.6297 13.6232 44.5738 13.6669 44.6316L13.7415 44.7885C13.8707 44.9607 14.0533 44.7865 14.1452 45.1066C14.2834 45.1195 14.5758 45.1433 14.671 45.2166L14.7616 45.3265C14.7841 45.3734 14.779 45.2815 14.7841 45.4126C14.8831 45.4126 14.8966 45.4043 14.9834 45.4306C15.2251 45.5052 15.1653 45.419 15.3684 45.6299C15.506 45.7726 15.7342 45.7629 15.9283 45.7674L15.9199 45.7784C15.9296 45.8002 15.81 45.6967 15.9289 45.7906C15.9823 45.833 15.9611 45.8002 16.0048 45.8298C16.0517 45.8619 16.0973 45.9776 16.098 45.9757C16.0999 45.9718 16.1051 45.9905 16.1102 45.9963C16.1893 46.0471 16.5614 46.0612 16.6823 46.0978C16.6887 46.0998 16.6945 46.1023 16.7009 46.1049C16.8282 46.1454 16.9002 46.1531 16.9658 46.2714L16.994 46.3196C17.0905 46.3241 17.1104 46.3408 17.1997 46.3479C17.4029 46.3633 17.6066 46.3157 17.8001 46.3228C17.7403 46.3267 17.6979 46.3742 17.6979 46.3742C17.6921 46.3672 17.6805 46.389 17.6728 46.398C17.7982 46.4244 17.8258 46.4552 17.8258 46.6089C17.9627 46.6089 18.0855 46.6622 18.2179 46.6866C18.333 46.7078 18.4969 46.7348 18.5753 46.7966C18.7084 46.902 18.7116 46.9052 18.9006 46.9328C19.303 46.992 19.7458 46.9656 20.1289 47.0607L20.3963 47.1565C20.6567 47.296 22.6937 47.2317 23.1257 47.1874C23.3294 47.1668 23.4451 47.0562 23.6482 47.0376C23.7202 47.0312 23.8115 47.0273 23.8842 47.0254C24.0686 47.0209 24.2454 47.0254 24.3984 46.9797C24.5784 46.927 24.8824 46.9373 25.0438 46.8281C25.1145 46.7798 25.1106 46.7805 25.1974 46.7426C25.2398 46.7246 25.1903 46.7438 25.2552 46.7201C25.2629 46.7168 25.2867 46.7091 25.2944 46.7066C25.3182 46.6982 25.3272 46.6943 25.3722 46.6796C25.4706 46.6468 25.594 46.6211 25.7193 46.5864C25.8903 46.5394 25.9488 46.4642 26.2304 46.3916L26.5717 46.2932C26.6096 46.2823 26.7439 46.2695 26.7677 46.2579L26.8391 46.184C26.8436 46.1795 26.8494 46.175 26.8551 46.1711C26.8603 46.1666 26.8667 46.1628 26.8725 46.1589C26.9889 46.0863 27.0949 46.0516 27.2248 46.0297C27.3565 46.0078 27.3462 45.9641 27.4362 45.8722C27.4915 45.8169 27.4748 45.8253 27.5731 45.8066C27.6143 45.7983 27.6194 45.806 27.6612 45.7938C27.6901 45.7854 27.7435 45.7437 27.82 45.7212C28.2487 45.592 27.8277 45.7038 28.2744 45.4795L28.4653 45.3805C28.4705 45.3785 28.4782 45.3766 28.4833 45.3734C28.5952 45.3207 28.4891 45.4075 28.5489 45.3239C28.6209 45.223 28.5335 45.2506 28.6646 45.1909C28.8729 45.0957 28.88 45.1928 28.9738 45.0957C28.977 45.0919 28.9815 45.0854 28.9854 45.0816C29.1107 44.9408 29.0914 45.0122 29.2187 44.9196L29.2476 44.8958C29.2521 44.8926 29.2586 44.8875 29.2631 44.8842C29.3171 44.8457 29.3428 44.8302 29.3961 44.8148C29.3935 44.8161 29.3871 44.8122 29.3865 44.811C29.3312 44.7486 29.4154 44.7062 29.4578 44.649C29.4912 44.6033 29.481 44.5988 29.5337 44.5583C29.5716 44.5301 29.5941 44.5256 29.6404 44.505C29.8924 44.3951 29.6475 44.3102 30.0151 44.2202C30.1308 44.1926 30.1077 44.1405 30.1649 44.055C30.2587 43.9136 30.2581 44.0171 30.3552 43.9278C30.4779 43.8146 30.3063 43.6186 30.6843 43.6096C30.6965 43.4778 30.7216 43.3743 30.8385 43.3222C31.0359 43.2355 30.9356 43.2425 31.0211 43.0491L31.0847 42.8761C31.1175 42.781 31.1053 42.8099 31.1767 42.7894C31.3303 42.745 31.3322 42.8144 31.3431 42.522C31.4865 42.4249 31.455 42.4795 31.606 42.423L31.6035 42.0849L31.7352 41.982C31.9056 41.8522 31.8863 42.0064 31.9422 41.6863C31.9808 41.4684 32.1235 41.4967 32.1833 41.3309C32.2437 41.1631 32.164 40.9266 32.2257 40.7716C32.27 40.6598 32.3408 40.7144 32.5015 40.6881C32.5085 40.51 32.5021 40.285 32.5516 40.1835C32.6139 40.0556 32.5985 40.0446 32.7637 40.0266C32.8582 39.3504 32.7663 39.1338 33.0613 39.1184L33.0954 38.2885L33.0266 38.1953C32.954 38.2647 33.0215 38.1882 32.9848 38.266L32.9141 38.3605C32.9122 38.3547 32.9019 38.3631 32.8961 38.3669C32.8987 38.5643 32.9013 38.5848 32.8209 38.7237L32.7727 38.9127C32.6319 38.993 32.6204 38.831 32.6139 39.0354L32.3774 39.0084V39.2154L32.2386 39.2945C32.227 39.2186 32.2392 39.2585 32.1968 39.2174V39.2951H32.0676V39.4513C31.9114 39.4526 31.9287 39.4179 31.9139 39.5323L31.6395 39.5298V39.2167C31.59 39.2701 31.5983 39.1421 31.5983 39.2945H30.5846V39.5285L30.5229 39.45H30.4272C30.4188 39.5658 30.458 39.5118 30.359 39.5304L28.1047 39.5278V39.4661C28.8607 39.3967 29.6815 39.4455 30.4426 39.4391L30.4439 39.2167L28.1047 39.2174C28.0938 39.1389 28.1157 39.1679 28.0533 39.1376V39.0252C28.1202 38.9904 28.0765 39.0354 28.099 38.9615C28.1067 38.9365 28.1035 38.8825 28.1028 38.8548C27.3713 38.858 26.58 38.8799 25.8588 38.8298C25.7148 38.8195 25.6988 38.8625 25.5747 38.8561C25.4236 38.8477 25.513 38.8407 25.4551 38.8214C25.3105 38.7719 25.1832 38.8291 25.0232 38.8298V38.9442Z" fill="white"/>
<path fill-rule="evenodd" clip-rule="evenodd" d="M23.0201 39.7819C23.04 39.7517 23.0458 39.7285 23.0651 39.6983C23.1519 39.564 23.1544 39.6771 23.3473 39.3518C23.4604 39.1603 23.4662 39.2085 23.5189 39.1513C23.4212 39.312 23.3145 39.4598 23.202 39.5903C23.1435 39.6585 23.0831 39.7215 23.0201 39.7819ZM23.6841 38.8498C23.6995 38.8106 23.7156 38.774 23.7342 38.7457L23.6841 38.8498ZM33.5639 30.9152L33.5684 30.9209C33.6275 30.9897 33.6243 30.9518 33.6429 31.0791C33.6564 31.1761 33.6693 31.8459 33.6751 32.6449C33.6346 32.094 33.5941 31.556 33.5639 30.9152ZM31.2717 43.1308L31.3276 43.127C31.3475 43.0891 31.3655 43.0473 31.3848 43.0061C31.4619 42.9181 31.5191 42.8442 31.5712 42.7715C31.5995 42.7445 31.6252 42.7143 31.6503 42.668C31.6908 42.5935 31.7268 42.551 31.7576 42.4913L31.7602 42.4874C31.8039 42.4186 31.8508 42.3447 31.8997 42.2656C31.9189 42.2489 31.9421 42.2251 31.9691 42.1827C32.0623 42.0368 32.0764 41.9487 32.1819 41.8234C32.2738 41.7128 32.3162 41.5701 32.3689 41.4364C32.4235 41.3317 32.4782 41.223 32.5315 41.1105L32.7816 40.6297C32.8857 40.4375 32.8864 40.3893 32.9159 40.1926C32.9808 40.0146 33.0413 39.8339 33.0972 39.6527C33.1448 39.5775 33.1512 39.5858 33.182 39.4438C33.2058 39.3358 33.2553 39.2304 33.2688 39.1416C33.3453 38.6396 33.3627 38.8003 33.4398 38.5059C33.4822 38.3446 33.4642 38.1511 33.5253 37.993C33.5272 37.9878 33.5311 37.9814 33.533 37.9756C33.578 37.8548 33.5651 37.7069 33.5696 37.5771C33.5844 37.4807 33.5973 37.3817 33.6114 37.2814L33.6391 37.1194C33.6648 36.9523 33.6674 37.0764 33.6911 36.7813L33.7663 36.0504C33.8049 35.5696 33.7599 34.9526 33.8152 34.511C33.8679 34.0874 33.7985 27.4518 33.7985 26.6129C33.7985 26.5114 33.7895 25.1139 33.7863 23.7036C33.7888 23.4889 33.7901 23.2685 33.7914 23.0338C33.7953 22.3435 33.8055 21.5239 33.8248 21.0945C33.8448 20.6651 33.8737 20.6253 34.4188 20.5719C34.7402 20.5411 35.2422 20.5051 35.7082 20.4749C35.9653 20.48 36.1987 20.4852 36.3684 20.4845C36.5143 20.4839 36.5856 20.4562 36.7309 20.4569C36.9102 20.4582 36.9887 20.4922 37.0857 20.3881C37.2638 20.1965 37.0947 20.0455 37.0221 19.8501C36.9405 19.6309 36.63 19.2863 36.5336 18.9598C36.5001 18.8447 36.4783 18.7888 36.4044 18.6982C36.2835 18.5491 36.2135 18.3549 36.0817 18.2155L36.0303 18.1621C35.9608 18.085 35.9711 18.0496 35.9448 17.9628C35.9236 17.8941 35.9043 17.8915 35.8708 17.8298C35.8329 17.761 35.8631 17.7835 35.8091 17.7083L35.7063 17.6029C35.6407 17.5244 35.6169 17.4152 35.5681 17.3258C35.4646 17.1356 35.3566 17.106 35.2904 16.8251C35.2171 16.5133 35.2036 16.6502 35.068 16.4471C34.9626 16.2896 34.9774 16.2556 34.8372 16.0794L34.7035 15.8763C34.701 15.8712 34.6965 15.8647 34.6939 15.8602C34.6913 15.8551 34.6868 15.8493 34.6836 15.8442C34.6515 15.7857 34.656 15.7754 34.6309 15.7169C34.5595 15.5485 34.5197 15.6783 34.3982 15.3254C34.3699 15.2445 34.3854 15.2766 34.3326 15.2065L34.2651 15.1185C34.1398 14.9558 34.0839 14.7476 33.9823 14.5702C33.9264 14.4725 33.8454 14.4069 33.8036 14.333C33.7445 14.2301 33.722 14.1298 33.6532 14.0405L33.5973 13.9659C33.4803 13.8052 33.4668 13.678 33.3929 13.5719C33.3903 13.568 33.3537 13.5288 33.3427 13.5173C33.2193 13.3919 33.1698 13.2113 33.1145 13.0461L32.9808 12.8648C32.7976 12.7073 32.9423 12.8301 32.8272 12.5537C32.761 12.3943 32.6582 12.2985 32.5733 12.1571C32.5701 12.152 32.5662 12.1455 32.563 12.1404L32.2352 11.5612C32.178 11.396 32.1542 11.3838 32.0565 11.243L32.0237 11.1981C32.0205 11.1936 32.016 11.1871 32.0128 11.1826C31.9575 11.0978 31.9543 10.9969 31.8952 10.9094C31.8425 10.8317 31.8476 10.8683 31.7936 10.8034C31.7216 10.7166 31.7313 10.6375 31.6837 10.525L31.2588 9.8559L31.2421 9.8334L31.1894 9.73891C31.1669 9.69134 31.1495 9.64249 31.1296 9.59621C31.0994 9.5255 31.1161 9.57692 31.093 9.52871C31.0306 9.39501 31.0621 9.36737 30.9625 9.24203C30.8828 9.14111 30.8487 9.03569 30.7703 8.93991C30.7671 8.93541 30.7619 8.93027 30.7587 8.92577C30.7555 8.92192 30.7497 8.91613 30.7465 8.91227C30.7433 8.90777 30.7388 8.90199 30.7349 8.89749C30.697 8.84928 30.6655 8.80493 30.6391 8.76507L30.5575 8.62237C30.4585 8.41861 30.4971 8.32862 30.2978 8.13771C30.1802 8.02522 30.1391 7.86387 30.0362 7.72503L29.907 7.51805C29.9051 7.51291 29.9012 7.50584 29.8993 7.50005C29.8626 7.40492 29.8839 7.28472 29.8267 7.20501L29.6537 6.98903C29.6049 6.92089 29.5721 6.81869 29.52 6.7332L29.3587 6.50436C29.2745 6.36809 29.2379 6.15083 29.0457 6.31667C28.9576 6.39316 28.9724 6.43301 28.8721 6.50629C28.7493 6.59628 28.721 6.75505 28.6311 6.86433L28.3945 7.19922C28.3257 7.30143 28.4029 7.24101 28.2345 7.48141L27.9863 7.96158C27.8854 8.12742 27.8243 8.12035 27.7697 8.34211C27.7286 8.50988 27.6405 8.58509 27.5537 8.72522C27.4689 8.86149 27.4785 9.00805 27.3564 9.12504C27.1976 9.27674 27.2561 9.40208 27.0691 9.61806C27.0273 9.66627 27.0639 9.61485 27.0331 9.66113C26.9656 9.76269 26.8994 9.96324 26.8499 10.0777C26.8049 10.1805 26.7721 10.167 26.7097 10.2474C26.6281 10.3521 26.6024 10.4511 26.4758 10.6112C26.3871 10.7237 26.3041 10.9332 26.2328 11.0701L25.6941 12.1218C25.6575 12.2355 25.5945 12.1931 25.5129 12.3004C25.5032 12.3127 25.4884 12.3358 25.482 12.3474L25.4209 12.5216C25.3534 12.6855 25.2705 12.7665 25.1882 12.913C25.1715 12.9439 25.149 12.9844 25.133 13.0133C25.0603 13.1406 25.0018 13.2711 24.9048 13.3823L24.3623 14.3478C24.1836 14.5695 24.2549 14.6004 24.1257 14.8144C24.0865 14.8793 24.0994 14.8517 24.0601 14.9038L23.8339 15.3017C23.7606 15.4636 23.6873 15.4919 23.6018 15.695C23.5376 15.848 23.4019 15.9181 23.3479 16.0634C23.31 16.1636 23.3241 16.208 23.2663 16.2941C23.2412 16.3321 23.2316 16.3372 23.2001 16.3835C23.1429 16.469 23.1988 16.4008 23.1326 16.4722C23.0265 16.586 22.8999 16.9247 22.7726 17.1272C22.7405 17.1773 22.7707 17.1188 22.7418 17.1735C22.7386 17.1793 22.7353 17.1857 22.7328 17.1908C22.7302 17.1966 22.7276 17.2037 22.7251 17.2095C22.7225 17.2153 22.7206 17.223 22.7186 17.2294C22.7045 17.2648 22.7206 17.2423 22.6974 17.286C22.6531 17.3715 22.6884 17.2873 22.6306 17.3734C22.6055 17.41 22.6049 17.4261 22.5727 17.473L22.3825 17.7494C22.36 17.7886 22.3548 17.8131 22.3317 17.8548C22.2925 17.9268 22.2488 17.968 22.2083 18.0445C22.0996 18.2534 22.0167 18.4668 21.8875 18.659L21.8078 18.8139C21.7236 18.9656 21.5783 19.0524 21.5095 19.215C21.4517 19.3513 21.48 19.429 21.3745 19.5505C21.2929 19.6444 21.2704 19.7537 21.2306 19.8771C21.1637 20.086 20.9824 20.0609 21.0262 20.2898C21.0795 20.5694 21.4999 20.5051 21.7551 20.5051C22.0996 20.5057 23.283 20.4807 23.9001 20.4954C24.2421 20.5398 24.2466 20.6857 24.2761 21.7303C24.3102 22.9445 24.379 25.373 24.413 27.4826C24.4477 29.5929 24.4471 31.385 24.4445 32.7548C24.442 34.1259 24.4368 35.0747 24.3976 35.7149C24.3764 36.0607 24.3449 36.3166 24.3076 36.5428C24.2581 36.6611 24.2266 36.9028 24.1964 37.1213C24.1688 37.257 24.1399 37.401 24.1077 37.5488C24.0595 37.6645 23.9946 37.7616 23.9573 37.8888C23.7484 38.6056 23.7355 38.3915 23.6835 38.5529C23.6558 38.6351 23.6423 38.7258 23.6185 38.8042L23.4971 38.988C23.4752 39.0073 23.4328 39.0472 23.4167 39.0645C23.3499 39.1391 23.3016 39.2914 23.2374 39.3538C23.1551 39.4354 23.0895 39.4354 22.9995 39.5575C22.9963 39.562 22.9912 39.5678 22.988 39.5723C22.7977 39.8314 22.7726 39.7787 22.6409 40.0056C22.6023 40.0718 22.4358 40.2016 22.3477 40.3057L22.2327 40.3842C21.8309 40.658 21.3276 40.9923 20.9291 41.2127C20.5312 41.4326 20.2374 41.5386 19.7875 41.6473C19.3382 41.7559 18.7314 41.8677 18.2069 41.9385C17.6817 42.0092 17.2369 42.0387 16.6924 42.04C16.1473 42.0413 15.502 42.0137 14.9961 41.9834C14.4909 41.9532 14.1258 41.9198 13.7729 41.8684C13.4206 41.817 13.0806 41.7463 12.7013 41.6781C12.3227 41.6106 11.9043 41.5451 11.5327 41.4756C11.1618 41.4056 10.8372 41.3317 10.4882 41.2417C10.1385 41.1523 9.76375 41.0482 9.41343 40.9505C9.06311 40.8534 8.73657 40.7634 8.57394 40.7184C8.41067 40.6734 8.41067 40.6734 8.58744 40.8843C8.76485 41.0945 9.11774 41.5161 9.4295 41.8395C9.74126 42.1634 10.0099 42.389 10.2703 42.5973C10.5293 42.8062 10.7807 42.9971 11.0776 43.2118C11.3746 43.4265 11.7178 43.6644 12.1106 43.935C12.5033 44.2049 12.9456 44.5071 13.3377 44.752C13.7298 44.9969 14.0718 45.1839 14.4195 45.3652C14.7666 45.5465 15.1202 45.7219 15.5129 45.9013C15.9063 46.08 16.3395 46.2625 16.9033 46.4534C17.4676 46.6444 18.1625 46.8436 18.6568 46.9696C19.1511 47.0956 19.4442 47.1477 19.8254 47.1792C20.2059 47.2113 20.6733 47.2229 21.1695 47.2499C21.6651 47.2769 22.1896 47.318 22.6878 47.3064C23.1859 47.2949 23.6584 47.2293 24.1694 47.1252C24.6804 47.021 25.23 46.877 25.7044 46.7395C26.1782 46.6019 26.576 46.4714 27.0318 46.2645C27.4875 46.0568 28.0005 45.7734 28.4215 45.5182C28.8425 45.263 29.1716 45.0367 29.6409 44.6427C30.1095 44.2493 30.7182 43.6888 31.0769 43.3314C31.1521 43.2562 31.2157 43.1906 31.2717 43.1308Z" fill="white"/>
<path fill-rule="evenodd" clip-rule="evenodd" d="M11.9102 25.1904H17.1618V41.0006H13.8893C12.8004 41.0006 11.9102 40.1104 11.9102 39.0215V25.1904Z" fill="white"/>
<path fill-rule="evenodd" clip-rule="evenodd" d="M18.2246 21.6758H23.6447V35.5576C23.6447 38.5389 21.2059 40.9776 18.2253 40.9776H18.2246V21.6758Z" fill="white"/>
</g>
<defs>
<clipPath id="clip0_330_1390">
<rect width="135.965" height="56" fill="white" transform="translate(0.462891)"/>
</clipPath>
</defs>
</svg>
