<svg width="85" height="64" viewBox="0 0 85 64" fill="none" xmlns="http://www.w3.org/2000/svg">
<g clip-path="url(#clip0_330_1329)">
<path d="M1.91098 54.582V36.2607H8.10159C9.53891 36.2607 10.7138 36.5201 11.6263 37.039C12.5447 37.5519 13.2246 38.2467 13.666 39.1234C14.1073 40.0001 14.328 40.9782 14.328 42.0577C14.328 43.1372 14.1073 44.1182 13.666 45.0009C13.2306 45.8836 12.5567 46.5873 11.6442 47.1122C10.7317 47.631 9.56276 47.8905 8.13737 47.8905H3.70017V45.9223H8.0658C9.04986 45.9223 9.84009 45.7524 10.4365 45.4124C11.0329 45.0725 11.4653 44.6132 11.7336 44.0347C12.008 43.4503 12.1452 42.7913 12.1452 42.0577C12.1452 41.3241 12.008 40.6681 11.7336 40.0896C11.4653 39.5111 11.0299 39.0578 10.4275 38.7298C9.82518 38.3958 9.026 38.2288 8.03002 38.2288H4.12958V54.582H1.91098Z" fill="white"/>
<path d="M68.7574 36.2607H71.298L76.3794 44.813H76.5941L81.6754 36.2607H84.216L77.596 47.0316V54.582H75.3774V47.0316L68.7574 36.2607Z" fill="white"/>
<path d="M13.0338 55.3018V42.5948H17.3274C18.3201 42.5948 19.135 42.7644 19.772 43.1036C20.409 43.4386 20.8805 43.8998 21.1866 44.4872C21.4927 45.0746 21.6458 45.7426 21.6458 46.4913C21.6458 47.24 21.4927 47.9039 21.1866 48.4829C20.8805 49.062 20.4111 49.517 19.7782 49.848C19.1453 50.1747 18.3367 50.3381 17.3522 50.3381H13.8777V48.9483H17.3026C17.9809 48.9483 18.5269 48.849 18.9406 48.6505C19.3584 48.4519 19.6603 48.1707 19.8465 47.8067C20.0367 47.4385 20.1319 47.0001 20.1319 46.4913C20.1319 45.9825 20.0367 45.5379 19.8465 45.1573C19.6562 44.7768 19.3522 44.4831 18.9344 44.2763C18.5166 44.0653 17.9644 43.9598 17.2778 43.9598H14.5726V55.3018H13.0338ZM19.015 49.5936L22.1421 55.3018H20.3552L17.2778 49.5936H19.015ZM34.9313 48.9483C34.9313 50.2885 34.6893 51.4467 34.2053 52.4228C33.7214 53.399 33.0575 54.1518 32.2137 54.6813C31.3699 55.2108 30.4061 55.4755 29.3224 55.4755C28.2386 55.4755 27.2749 55.2108 26.431 54.6813C25.5872 54.1518 24.9233 53.399 24.4394 52.4228C23.9554 51.4467 23.7134 50.2885 23.7134 48.9483C23.7134 47.6081 23.9554 46.4499 24.4394 45.4737C24.9233 44.4976 25.5872 43.7447 26.431 43.2153C27.2749 42.6858 28.2386 42.4211 29.3224 42.4211C30.4061 42.4211 31.3699 42.6858 32.2137 43.2153C33.0575 43.7447 33.7214 44.4976 34.2053 45.4737C34.6893 46.4499 34.9313 47.6081 34.9313 48.9483ZM33.4422 48.9483C33.4422 47.848 33.2581 46.9194 32.89 46.1624C32.526 45.4055 32.0317 44.8326 31.4071 44.4438C30.7866 44.055 30.0917 43.8606 29.3224 43.8606C28.553 43.8606 27.856 44.055 27.2314 44.4438C26.611 44.8326 26.1167 45.4055 25.7485 46.1624C25.3845 46.9194 25.2025 47.848 25.2025 48.9483C25.2025 50.0486 25.3845 50.9772 25.7485 51.7341C26.1167 52.4911 26.611 53.064 27.2314 53.4528C27.856 53.8416 28.553 54.036 29.3224 54.036C30.0917 54.036 30.7866 53.8416 31.4071 53.4528C32.0317 53.064 32.526 52.4911 32.89 51.7341C33.2581 50.9772 33.4422 50.0486 33.4422 48.9483ZM37.5186 55.3018V42.5948H41.8121C42.809 42.5948 43.6239 42.7748 44.2567 43.1346C44.8937 43.4903 45.3653 43.9722 45.6714 44.5803C45.9775 45.1883 46.1305 45.8667 46.1305 46.6154C46.1305 47.3641 45.9775 48.0445 45.6714 48.6567C45.3694 49.2689 44.902 49.757 44.2691 50.121C43.6363 50.4808 42.8255 50.6607 41.837 50.6607H38.7595V49.2957H41.7873C42.4698 49.2957 43.0179 49.1779 43.4315 48.9421C43.8452 48.7063 44.145 48.3878 44.3312 47.9866C44.5215 47.5812 44.6166 47.1242 44.6166 46.6154C44.6166 46.1066 44.5215 45.6516 44.3312 45.2504C44.145 44.8491 43.8431 44.5348 43.4253 44.3073C43.0075 44.0756 42.4533 43.9598 41.7625 43.9598H39.0573V55.3018H37.5186ZM48.6092 55.3018V42.5948H56.2781V43.9598H50.148V48.2534H55.881V49.6184H50.148V53.9368H56.3773V55.3018H48.6092ZM59.0515 55.3018V42.5948H63.345C64.3378 42.5948 65.1526 42.7644 65.7896 43.1036C66.4266 43.4386 66.8982 43.8998 67.2043 44.4872C67.5104 45.0746 67.6634 45.7426 67.6634 46.4913C67.6634 47.24 67.5104 47.9039 67.2043 48.4829C66.8982 49.062 66.4287 49.517 65.7958 49.848C65.163 50.1747 64.3543 50.3381 63.3699 50.3381H59.8953V48.9483H63.3202C63.9986 48.9483 64.5446 48.849 64.9582 48.6505C65.376 48.4519 65.678 48.1707 65.8641 47.8067C66.0544 47.4385 66.1495 47.0001 66.1495 46.4913C66.1495 45.9825 66.0544 45.5379 65.8641 45.1573C65.6738 44.7768 65.3698 44.4831 64.952 44.2763C64.5343 44.0653 63.982 43.9598 63.2954 43.9598H60.5902V55.3018H59.0515ZM65.0327 49.5936L68.1598 55.3018H66.3729L63.2954 49.5936H65.0327ZM69.5325 43.9598V42.5948H79.0627V43.9598H75.067V55.3018H73.5283V43.9598H69.5325Z" fill="white"/>
<path d="M11.0161 63.3242V58.5219H12.6387C13.0139 58.5219 13.3219 58.586 13.5626 58.7142C13.8034 58.8408 13.9816 59.0151 14.0973 59.2371C14.2129 59.4591 14.2708 59.7116 14.2708 59.9945C14.2708 60.2774 14.2129 60.5283 14.0973 60.7472C13.9816 60.9661 13.8042 61.138 13.565 61.2631C13.3258 61.3866 13.0202 61.4483 12.6481 61.4483H11.335V60.9231H12.6294C12.8857 60.9231 13.0921 60.8856 13.2484 60.8105C13.4063 60.7355 13.5204 60.6292 13.5908 60.4916C13.6627 60.3525 13.6986 60.1868 13.6986 59.9945C13.6986 59.8022 13.6627 59.6342 13.5908 59.4904C13.5189 59.3465 13.404 59.2355 13.2461 59.1574C13.0882 59.0777 12.8795 59.0378 12.62 59.0378H11.5976V63.3242H11.0161ZM13.2766 61.1669L14.4584 63.3242H13.783L12.62 61.1669H13.2766ZM15.2398 63.3242V58.5219H18.1381V59.0378H15.8213V60.6604H17.988V61.1763H15.8213V62.8083H18.1756V63.3242H15.2398ZM19.3832 58.5219L20.8089 62.5645H20.8651L22.2908 58.5219H22.9005L21.1372 63.3242H20.5369L18.7735 58.5219H19.3832ZM24.23 58.5219V63.3242H23.6485V58.5219H24.23ZM25.593 58.5219L27.0187 62.5645H27.075L28.5006 58.5219H29.1103L27.347 63.3242H26.7467L24.9833 58.5219H25.593ZM29.8583 63.3242V58.5219H32.7566V59.0378H30.4398V60.6604H32.6065V61.1763H30.4398V62.8083H32.7941V63.3242H29.8583ZM38.2881 59.7225C38.26 59.4849 38.1459 59.3004 37.9458 59.1691C37.7457 59.0378 37.5003 58.9721 37.2095 58.9721C36.9969 58.9721 36.8109 59.0065 36.6514 59.0753C36.4935 59.1441 36.37 59.2387 36.2809 59.359C36.1934 59.4794 36.1496 59.6162 36.1496 59.7694C36.1496 59.8976 36.1801 60.0078 36.2411 60.1C36.3036 60.1907 36.3833 60.2665 36.4802 60.3275C36.5772 60.3869 36.6788 60.4361 36.7851 60.4752C36.8914 60.5127 36.9891 60.5432 37.0782 60.5666L37.5659 60.698C37.691 60.7308 37.8301 60.7761 37.9833 60.834C38.1381 60.8918 38.2858 60.9707 38.4265 61.0708C38.5687 61.1693 38.686 61.2959 38.7782 61.4507C38.8704 61.6054 38.9166 61.7954 38.9166 62.0205C38.9166 62.28 38.8486 62.5145 38.7126 62.7239C38.5781 62.9334 38.3811 63.0999 38.1216 63.2234C37.8637 63.3469 37.5503 63.4086 37.1814 63.4086C36.8374 63.4086 36.5396 63.3531 36.288 63.2421C36.0378 63.1312 35.8409 62.9764 35.697 62.7779C35.5548 62.5793 35.4743 62.3488 35.4555 62.0861H36.0558C36.0714 62.2675 36.1324 62.4175 36.2387 62.5363C36.3466 62.6536 36.4826 62.7411 36.6467 62.799C36.8124 62.8552 36.9906 62.8834 37.1814 62.8834C37.4033 62.8834 37.6026 62.8474 37.7793 62.7755C37.9559 62.702 38.0959 62.6004 38.199 62.4707C38.3022 62.3394 38.3538 62.1862 38.3538 62.0111C38.3538 61.8516 38.3092 61.7219 38.2201 61.6218C38.131 61.5218 38.0138 61.4405 37.8684 61.378C37.723 61.3154 37.5659 61.2607 37.3971 61.2138L36.8062 61.045C36.431 60.9371 36.134 60.7832 35.9151 60.5831C35.6963 60.383 35.5868 60.1211 35.5868 59.7975C35.5868 59.5287 35.6595 59.2942 35.8049 59.0941C35.9519 58.8924 36.1488 58.7361 36.3958 58.6251C36.6444 58.5125 36.9219 58.4563 37.2282 58.4563C37.5378 58.4563 37.8129 58.5118 38.0536 58.6228C38.2944 58.7322 38.4851 58.8822 38.6258 59.073C38.768 59.2637 38.8431 59.4802 38.8509 59.7225H38.2881ZM39.8727 63.3242V58.5219H42.7709V59.0378H40.4542V60.6604H42.6209V61.1763H40.4542V62.8083H42.8085V63.3242H39.8727ZM43.8191 63.3242V58.5219H45.4417C45.8169 58.5219 46.1249 58.586 46.3656 58.7142C46.6064 58.8408 46.7846 59.0151 46.9003 59.2371C47.0159 59.4591 47.0738 59.7116 47.0738 59.9945C47.0738 60.2774 47.0159 60.5283 46.9003 60.7472C46.7846 60.9661 46.6071 61.138 46.368 61.2631C46.1288 61.3866 45.8232 61.4483 45.4511 61.4483H44.138V60.9231H45.4324C45.6887 60.9231 45.8951 60.8856 46.0514 60.8105C46.2093 60.7355 46.3234 60.6292 46.3938 60.4916C46.4657 60.3525 46.5016 60.1868 46.5016 59.9945C46.5016 59.8022 46.4657 59.6342 46.3938 59.4904C46.3219 59.3465 46.207 59.2355 46.0491 59.1574C45.8912 59.0777 45.6825 59.0378 45.423 59.0378H44.4006V63.3242H43.8191ZM46.0796 61.1669L47.2614 63.3242H46.586L45.423 61.1669H46.0796ZM48.1301 58.5219L49.5558 62.5645H49.6121L51.0378 58.5219H51.6475L49.8841 63.3242H49.2838L47.5205 58.5219H48.1301ZM52.977 58.5219V63.3242H52.3955V58.5219H52.977ZM58.0073 60.0226H57.4258C57.3914 59.8554 57.3312 59.7084 57.2452 59.5818C57.1608 59.4552 57.0577 59.3489 56.9357 59.2629C56.8154 59.1754 56.6817 59.1097 56.5348 59.0659C56.3878 59.0222 56.2346 59.0003 56.0752 59.0003C55.7844 59.0003 55.521 59.0737 55.2849 59.2207C55.0504 59.3676 54.8636 59.5841 54.7245 59.8702C54.5869 60.1563 54.5182 60.5072 54.5182 60.9231C54.5182 61.3389 54.5869 61.6898 54.7245 61.9759C54.8636 62.262 55.0504 62.4785 55.2849 62.6254C55.521 62.7724 55.7844 62.8459 56.0752 62.8459C56.2346 62.8459 56.3878 62.824 56.5348 62.7802C56.6817 62.7364 56.8154 62.6716 56.9357 62.5856C57.0577 62.498 57.1608 62.391 57.2452 62.2643C57.3312 62.1362 57.3914 61.9892 57.4258 61.8235H58.0073C57.9636 62.0689 57.8838 62.2886 57.7682 62.4824C57.6525 62.6763 57.5087 62.8412 57.3367 62.9772C57.1647 63.1116 56.9717 63.214 56.7575 63.2844C56.5449 63.3547 56.3175 63.3899 56.0752 63.3899C55.6656 63.3899 55.3013 63.2898 54.9824 63.0897C54.6635 62.8896 54.4126 62.6051 54.2297 62.2362C54.0468 61.8673 53.9554 61.4296 53.9554 60.9231C53.9554 60.4166 54.0468 59.9789 54.2297 59.6099C54.4126 59.241 54.6635 58.9565 54.9824 58.7564C55.3013 58.5563 55.6656 58.4563 56.0752 58.4563C56.3175 58.4563 56.5449 58.4914 56.7575 58.5618C56.9717 58.6321 57.1647 58.7353 57.3367 58.8713C57.5087 59.0057 57.6525 59.1699 57.7682 59.3637C57.8838 59.556 57.9636 59.7756 58.0073 60.0226ZM58.947 63.3242V58.5219H61.8453V59.0378H59.5286V60.6604H61.6952V61.1763H59.5286V62.8083H61.8828V63.3242H58.947ZM65.5197 59.7225C65.4916 59.4849 65.3775 59.3004 65.1774 59.1691C64.9773 59.0378 64.7318 58.9721 64.4411 58.9721C64.2285 58.9721 64.0424 59.0065 63.883 59.0753C63.7251 59.1441 63.6016 59.2387 63.5125 59.359C63.425 59.4794 63.3812 59.6162 63.3812 59.7694C63.3812 59.8976 63.4117 60.0078 63.4726 60.1C63.5352 60.1907 63.6149 60.2665 63.7118 60.3275C63.8087 60.3869 63.9103 60.4361 64.0166 60.4752C64.123 60.5127 64.2207 60.5432 64.3098 60.5666L64.7975 60.698C64.9226 60.7308 65.0617 60.7761 65.2149 60.834C65.3696 60.8918 65.5174 60.9707 65.6581 61.0708C65.8003 61.1693 65.9176 61.2959 66.0098 61.4507C66.102 61.6054 66.1481 61.7954 66.1481 62.0205C66.1481 62.28 66.0801 62.5145 65.9441 62.7239C65.8097 62.9334 65.6127 63.0999 65.3532 63.2234C65.0953 63.3469 64.7819 63.4086 64.4129 63.4086C64.069 63.4086 63.7712 63.3531 63.5195 63.2421C63.2694 63.1312 63.0724 62.9764 62.9286 62.7779C62.7864 62.5793 62.7059 62.3488 62.6871 62.0861H63.2874C63.303 62.2675 63.364 62.4175 63.4703 62.5363C63.5782 62.6536 63.7142 62.7411 63.8783 62.799C64.044 62.8552 64.2222 62.8834 64.4129 62.8834C64.6349 62.8834 64.8342 62.8474 65.0109 62.7755C65.1875 62.702 65.3274 62.6004 65.4306 62.4707C65.5338 62.3394 65.5854 62.1862 65.5854 62.0111C65.5854 61.8516 65.5408 61.7219 65.4517 61.6218C65.3626 61.5218 65.2454 61.4405 65.1 61.378C64.9546 61.3154 64.7975 61.2607 64.6287 61.2138L64.0378 61.045C63.6626 60.9371 63.3656 60.7832 63.1467 60.5831C62.9278 60.383 62.8184 60.1211 62.8184 59.7975C62.8184 59.5287 62.8911 59.2942 63.0365 59.0941C63.1834 58.8924 63.3804 58.7361 63.6274 58.6251C63.876 58.5125 64.1534 58.4563 64.4598 58.4563C64.7694 58.4563 65.0445 58.5118 65.2852 58.6228C65.526 58.7322 65.7167 58.8822 65.8574 59.073C65.9996 59.2637 66.0747 59.4802 66.0825 59.7225H65.5197Z" fill="white"/>
<path fill-rule="evenodd" clip-rule="evenodd" d="M23.9502 10.7625L23.951 23.6975L28.2266 24.397L28.1937 13.1878L35.2437 9.03701C37.6707 7.63953 39.9887 6.18382 42.4319 4.87111C43.051 5.03352 56.2031 12.6218 56.8519 13.1878L56.8697 24.4374L61.1275 23.7177L61.1208 10.9649C60.9885 10.3046 57.6366 8.63614 56.663 8.0495L42.5915 0.00489151C42.4648 -0.00501126 27.3381 8.4468 24.5697 10.2653C24.5178 10.2998 24.3677 10.4048 24.319 10.442C24.0754 10.6274 24.1277 10.589 23.9502 10.7625Z" fill="white"/>
<path fill-rule="evenodd" clip-rule="evenodd" d="M31.0452 14.8053L31.0234 25.3149C31.6636 25.757 32.4348 26.0295 33.1054 26.3594C33.9646 26.7825 34.4565 27.2281 35.2456 27.5664L35.2741 17.2303C35.625 16.9102 42.2436 13.108 42.4655 13.0921C42.8105 13.0676 48.985 16.6381 49.7626 17.1709L49.8062 27.5537L54.02 25.3149L54.0469 14.8053C53.1442 14.1525 43.0002 8.23976 42.6057 8.21401C42.0805 8.17995 31.9357 14.1505 31.0452 14.8053Z" fill="white"/>
<path fill-rule="evenodd" clip-rule="evenodd" d="M41.5328 33.9291L41.559 21.071C41.9242 20.4617 42.0985 20.4752 42.6851 20.276C43.1193 20.6653 43.1474 20.4922 43.5086 21.071L43.5114 33.9291L46.4997 30.3887C47.1853 29.6372 47.0075 29.6012 46.9909 28.3511C46.8463 17.5515 48.0093 19.3289 44.5025 17.3737C41.969 15.9607 43.1597 15.9528 39.4105 18.0423C37.6799 19.0068 38.0708 18.743 38.0855 21.0706C38.101 23.5993 37.9069 26.7326 38.0716 29.1726C38.1564 30.4235 39.6493 31.4106 40.6333 32.7665C40.9854 33.2517 41.1423 33.47 41.5328 33.9291Z" fill="white"/>
<path fill-rule="evenodd" clip-rule="evenodd" d="M44.4287 38.0122C51.1242 37.9955 48.3371 38.6693 51.4383 35.5369C53.2152 33.7421 54.7517 32.6461 57.3102 31.7144C61.8278 30.069 61.1129 32.7669 61.1236 26.6113C54.991 27.179 50.8849 29.644 47.1761 33.7084C46.376 34.585 44.7607 36.5731 44.4287 38.0122Z" fill="white"/>
<path fill-rule="evenodd" clip-rule="evenodd" d="M23.9488 30.5677C24.3805 31.1365 24.8923 30.9975 25.7011 31.1531C26.3464 31.2775 27.0111 31.455 27.5946 31.6633C30.2188 32.5997 31.6741 33.5809 33.5247 35.4343C36.7625 38.6769 33.9339 37.9753 40.623 38.0015C40.0498 35.4509 36.4888 32.0321 34.2738 30.4314C31.3798 28.3404 28.2992 26.9991 23.9258 26.6113L23.9488 30.5677Z" fill="white"/>
<path fill-rule="evenodd" clip-rule="evenodd" d="M23.9666 38.0132L31.9811 38.0021C31.4305 37.0292 29.8116 35.8682 28.6732 35.2238C27.2705 34.4296 25.7174 33.9653 23.9258 33.7051L23.9666 38.0132Z" fill="white"/>
<path fill-rule="evenodd" clip-rule="evenodd" d="M53.0283 37.9527L61.0432 38.005L61.1323 33.7119C59.2393 33.9591 57.883 34.4059 56.3976 35.2278C54.7573 36.1357 54.1228 36.8293 53.0283 37.9527Z" fill="white"/>
</g>
<defs>
<clipPath id="clip0_330_1329">
<rect width="83.2197" height="64" fill="white" transform="translate(0.923828)"/>
</clipPath>
</defs>
</svg>
