<svg width="135" height="56" viewBox="0 0 135 56" fill="none" xmlns="http://www.w3.org/2000/svg">
<g clip-path="url(#clip0_330_1357)">
<path d="M1.40435 56.1123V49.7248H3.56262C4.06164 49.7248 4.47126 49.8101 4.79146 49.9806C5.11167 50.149 5.34871 50.3808 5.50257 50.6761C5.65644 50.9713 5.73337 51.3071 5.73337 51.6835C5.73337 52.0598 5.65644 52.3935 5.50257 52.6846C5.34871 52.9757 5.11271 53.2045 4.79458 53.3708C4.47646 53.5351 4.06996 53.6172 3.5751 53.6172H1.82851V52.9186H3.55014C3.89114 52.9186 4.16561 52.8687 4.37353 52.7689C4.58354 52.669 4.73532 52.5277 4.82889 52.3447C4.92454 52.1596 4.97236 51.9392 4.97236 51.6835C4.97236 51.4277 4.92454 51.2042 4.82889 51.0129C4.73324 50.8216 4.58042 50.674 4.37041 50.57C4.16041 50.464 3.88283 50.411 3.53767 50.411H2.17783V56.1123H1.40435ZM4.41096 53.2429L5.98288 56.1123H5.08464L3.53767 53.2429H4.41096ZM7.02225 56.1123V49.7248H10.8772V50.411H7.79574V52.5692H10.6776V53.2554H7.79574V55.4261H10.9271V56.1123H7.02225ZM12.5333 56.1123H11.7224L14.0678 49.7248H14.8663L17.2117 56.1123H16.4008L14.492 50.7353H14.4421L12.5333 56.1123ZM12.8328 53.6172H16.1014V54.3033H12.8328V53.6172ZM18.2066 56.1123V49.7248H18.9801V55.4261H21.9493V56.1123H18.2066ZM21.9485 50.411V49.7248H26.7391V50.411H24.7306V56.1123H23.9571V50.411H21.9485ZM33.0564 52.9186C33.0564 53.5922 32.9348 54.1744 32.6915 54.6651C32.4483 55.1558 32.1145 55.5343 31.6904 55.8004C31.2662 56.0666 30.7817 56.1996 30.237 56.1996C29.6922 56.1996 29.2077 56.0666 28.7836 55.8004C28.3594 55.5343 28.0257 55.1558 27.7824 54.6651C27.5391 54.1744 27.4175 53.5922 27.4175 52.9186C27.4175 52.2449 27.5391 51.6627 27.7824 51.172C28.0257 50.6813 28.3594 50.3028 28.7836 50.0367C29.2077 49.7706 29.6922 49.6375 30.237 49.6375C30.7817 49.6375 31.2662 49.7706 31.6904 50.0367C32.1145 50.3028 32.4483 50.6813 32.6915 51.172C32.9348 51.6627 33.0564 52.2449 33.0564 52.9186ZM32.3079 52.9186C32.3079 52.3655 32.2154 51.8987 32.0303 51.5182C31.8474 51.1377 31.5989 50.8497 31.2849 50.6542C30.973 50.4588 30.6237 50.3611 30.237 50.3611C29.8502 50.3611 29.4999 50.4588 29.1859 50.6542C28.874 50.8497 28.6255 51.1377 28.4405 51.5182C28.2575 51.8987 28.166 52.3655 28.166 52.9186C28.166 53.4716 28.2575 53.9384 28.4405 54.3189C28.6255 54.6994 28.874 54.9874 29.1859 55.1829C29.4999 55.3783 29.8502 55.4761 30.237 55.4761C30.6237 55.4761 30.973 55.3783 31.2849 55.1829C31.5989 54.9874 31.8474 54.6994 32.0303 54.3189C32.2154 53.9384 32.3079 53.4716 32.3079 52.9186ZM34.357 56.1123V49.7248H36.5153C37.0143 49.7248 37.4239 49.8101 37.7441 49.9806C38.0643 50.149 38.3014 50.3808 38.4552 50.6761C38.6091 50.9713 38.686 51.3071 38.686 51.6835C38.686 52.0598 38.6091 52.3935 38.4552 52.6846C38.3014 52.9757 38.0654 53.2045 37.7473 53.3708C37.4291 53.5351 37.0226 53.6172 36.5278 53.6172H34.7812V52.9186H36.5028C36.8438 52.9186 37.1183 52.8687 37.3262 52.7689C37.5362 52.669 37.688 52.5277 37.7816 52.3447C37.8772 52.1596 37.925 51.9392 37.925 51.6835C37.925 51.4277 37.8772 51.2042 37.7816 51.0129C37.6859 50.8216 37.5331 50.674 37.3231 50.57C37.1131 50.464 36.8355 50.411 36.4903 50.411H35.1305V56.1123H34.357ZM37.3636 53.2429L38.9356 56.1123H38.0373L36.4903 53.2429H37.3636ZM47.8345 52.9186C47.8345 53.5922 47.7129 54.1744 47.4696 54.6651C47.2264 55.1558 46.8926 55.5343 46.4685 55.8004C46.0443 56.0666 45.5598 56.1996 45.0151 56.1996C44.4703 56.1996 43.9858 56.0666 43.5617 55.8004C43.1375 55.5343 42.8038 55.1558 42.5605 54.6651C42.3172 54.1744 42.1956 53.5922 42.1956 52.9186C42.1956 52.2449 42.3172 51.6627 42.5605 51.172C42.8038 50.6813 43.1375 50.3028 43.5617 50.0367C43.9858 49.7706 44.4703 49.6375 45.0151 49.6375C45.5598 49.6375 46.0443 49.7706 46.4685 50.0367C46.8926 50.3028 47.2264 50.6813 47.4696 51.172C47.7129 51.6627 47.8345 52.2449 47.8345 52.9186ZM47.086 52.9186C47.086 52.3655 46.9935 51.8987 46.8084 51.5182C46.6255 51.1377 46.377 50.8497 46.063 50.6542C45.7511 50.4588 45.4018 50.3611 45.0151 50.3611C44.6283 50.3611 44.278 50.4588 43.964 50.6542C43.6521 50.8497 43.4036 51.1377 43.2186 51.5182C43.0356 51.8987 42.9441 52.3655 42.9441 52.9186C42.9441 53.4716 43.0356 53.9384 43.2186 54.3189C43.4036 54.6994 43.6521 54.9874 43.964 55.1829C44.278 55.3783 44.6283 55.4761 45.0151 55.4761C45.4018 55.4761 45.7511 55.3783 46.063 55.1829C46.377 54.9874 46.6255 54.6994 46.8084 54.3189C46.9935 53.9384 47.086 53.4716 47.086 52.9186ZM54.2002 49.7248V56.1123H53.4517L49.971 51.0971H49.9086V56.1123H49.1351V49.7248H49.8837L53.3768 54.7525H53.4392V49.7248H54.2002ZM55.748 56.1123V49.7248H56.5214V55.4261H59.4906V56.1123H55.748ZM61.4618 49.7248V56.1123H60.6883V49.7248H61.4618ZM68.0777 49.7248V56.1123H67.3292L63.8485 51.0971H63.7861V56.1123H63.0126V49.7248H63.7612L67.2543 54.7525H67.3167V49.7248H68.0777ZM69.6255 56.1123V49.7248H73.4804V50.411H70.399V52.5692H73.2808V53.2554H70.399V55.4261H73.5303V56.1123H69.6255ZM80.8379 51.3217C80.8005 51.0056 80.6487 50.7603 80.3825 50.5856C80.1164 50.411 79.7899 50.3236 79.4032 50.3236C79.1204 50.3236 78.873 50.3694 78.6609 50.4609C78.4509 50.5524 78.2866 50.6782 78.1681 50.8383C78.0517 50.9984 77.9935 51.1803 77.9935 51.3841C77.9935 51.5546 78.034 51.7011 78.1151 51.8238C78.1983 51.9444 78.3043 52.0453 78.4332 52.1264C78.5621 52.2054 78.6973 52.2709 78.8387 52.3228C78.9801 52.3728 79.11 52.4133 79.2285 52.4445L79.8773 52.6191C80.0436 52.6628 80.2287 52.7231 80.4324 52.8C80.6383 52.877 80.8348 52.982 81.0219 53.115C81.2111 53.246 81.3671 53.4145 81.4897 53.6203C81.6124 53.8262 81.6738 54.0788 81.6738 54.3782C81.6738 54.7234 81.5833 55.0352 81.4024 55.3139C81.2236 55.5925 80.9616 55.8139 80.6165 55.9782C80.2734 56.1425 79.8565 56.2246 79.3658 56.2246C78.9083 56.2246 78.5122 56.1508 78.1775 56.0031C77.8448 55.8555 77.5828 55.6497 77.3915 55.3856C77.2023 55.1215 77.0952 54.8148 77.0703 54.4655H77.8687C77.8895 54.7067 77.9706 54.9063 78.112 55.0644C78.2555 55.2203 78.4363 55.3367 78.6547 55.4137C78.8751 55.4885 79.1121 55.526 79.3658 55.526C79.661 55.526 79.9261 55.4781 80.1611 55.3825C80.3961 55.2848 80.5821 55.1496 80.7194 54.977C80.8566 54.8024 80.9252 54.5986 80.9252 54.3657C80.9252 54.1536 80.866 53.9811 80.7475 53.848C80.6289 53.7149 80.473 53.6068 80.2796 53.5236C80.0862 53.4405 79.8773 53.3677 79.6527 53.3053L78.8668 53.0807C78.3677 52.9373 77.9727 52.7325 77.6816 52.4663C77.3905 52.2002 77.2449 51.8519 77.2449 51.4215C77.2449 51.0639 77.3416 50.752 77.535 50.4858C77.7304 50.2176 77.9924 50.0097 78.321 49.862C78.6516 49.7123 79.0206 49.6375 79.4282 49.6375C79.8399 49.6375 80.2058 49.7113 80.526 49.8589C80.8462 50.0045 81.0999 50.2041 81.287 50.4577C81.4762 50.7114 81.576 50.9994 81.5864 51.3217H80.8379ZM82.9455 56.1123V49.7248H86.8004V50.411H83.719V52.5692H86.6008V53.2554H83.719V55.4261H86.8503V56.1123H82.9455ZM88.1946 56.1123V49.7248H90.3529C90.8519 49.7248 91.2615 49.8101 91.5817 49.9806C91.9019 50.149 92.139 50.3808 92.2928 50.6761C92.4467 50.9713 92.5236 51.3071 92.5236 51.6835C92.5236 52.0598 92.4467 52.3935 92.2928 52.6846C92.139 52.9757 91.903 53.2045 91.5848 53.3708C91.2667 53.5351 90.8602 53.6172 90.3653 53.6172H88.6188V52.9186H90.3404C90.6814 52.9186 90.9559 52.8687 91.1638 52.7689C91.3738 52.669 91.5256 52.5277 91.6191 52.3447C91.7148 52.1596 91.7626 51.9392 91.7626 51.6835C91.7626 51.4277 91.7148 51.2042 91.6191 51.0129C91.5235 50.8216 91.3707 50.674 91.1607 50.57C90.9507 50.464 90.6731 50.411 90.3279 50.411H88.9681V56.1123H88.1946ZM91.2012 53.2429L92.7731 56.1123H91.8749L90.3279 53.2429H91.2012ZM93.9287 49.7248L95.825 55.1018H95.8998L97.7961 49.7248H98.607L96.2616 56.1123H95.4632L93.1178 49.7248H93.9287ZM100.375 49.7248V56.1123H99.6019V49.7248H100.375ZM107.066 51.7209H106.293C106.247 51.4984 106.167 51.303 106.053 51.1345C105.94 50.9661 105.803 50.8247 105.641 50.7104C105.481 50.5939 105.303 50.5066 105.108 50.4484C104.912 50.3902 104.708 50.3611 104.496 50.3611C104.11 50.3611 103.759 50.4588 103.445 50.6542C103.133 50.8497 102.885 51.1377 102.7 51.5182C102.517 51.8987 102.425 52.3655 102.425 52.9186C102.425 53.4716 102.517 53.9384 102.7 54.3189C102.885 54.6994 103.133 54.9874 103.445 55.1829C103.759 55.3783 104.11 55.4761 104.496 55.4761C104.708 55.4761 104.912 55.4469 105.108 55.3887C105.303 55.3305 105.481 55.2442 105.641 55.1299C105.803 55.0134 105.94 54.871 106.053 54.7026C106.167 54.5321 106.247 54.3366 106.293 54.1162H107.066C107.008 54.4427 106.902 54.7348 106.748 54.9926C106.594 55.2505 106.403 55.4698 106.174 55.6507C105.946 55.8295 105.689 55.9657 105.404 56.0593C105.121 56.1529 104.819 56.1996 104.496 56.1996C103.952 56.1996 103.467 56.0666 103.043 55.8004C102.619 55.5343 102.285 55.1558 102.042 54.6651C101.798 54.1744 101.677 53.5922 101.677 52.9186C101.677 52.2449 101.798 51.6627 102.042 51.172C102.285 50.6813 102.619 50.3028 103.043 50.0367C103.467 49.7706 103.952 49.6375 104.496 49.6375C104.819 49.6375 105.121 49.6843 105.404 49.7778C105.689 49.8714 105.946 50.0086 106.174 50.1895C106.403 50.3683 106.594 50.5867 106.748 50.8445C106.902 51.1002 107.008 51.3924 107.066 51.7209ZM108.316 56.1123V49.7248H112.171V50.411H109.09V52.5692H111.971V53.2554H109.09V55.4261H112.221V56.1123H108.316ZM117.058 51.3217C117.021 51.0056 116.869 50.7603 116.603 50.5856C116.337 50.411 116.01 50.3236 115.624 50.3236C115.341 50.3236 115.093 50.3694 114.881 50.4609C114.671 50.5524 114.507 50.6782 114.389 50.8383C114.272 50.9984 114.214 51.1803 114.214 51.3841C114.214 51.5546 114.255 51.7011 114.336 51.8238C114.419 51.9444 114.525 52.0453 114.654 52.1264C114.783 52.2054 114.918 52.2709 115.059 52.3228C115.201 52.3728 115.331 52.4133 115.449 52.4445L116.098 52.6191C116.264 52.6628 116.449 52.7231 116.653 52.8C116.859 52.877 117.055 52.982 117.242 53.115C117.432 53.246 117.588 53.4145 117.71 53.6203C117.833 53.8262 117.894 54.0788 117.894 54.3782C117.894 54.7234 117.804 55.0352 117.623 55.3139C117.444 55.5925 117.182 55.8139 116.837 55.9782C116.494 56.1425 116.077 56.2246 115.586 56.2246C115.129 56.2246 114.733 56.1508 114.398 56.0031C114.065 55.8555 113.803 55.6497 113.612 55.3856C113.423 55.1215 113.316 54.8148 113.291 54.4655H114.089C114.11 54.7067 114.191 54.9063 114.332 55.0644C114.476 55.2203 114.657 55.3367 114.875 55.4137C115.096 55.4885 115.333 55.526 115.586 55.526C115.882 55.526 116.147 55.4781 116.382 55.3825C116.617 55.2848 116.803 55.1496 116.94 54.977C117.077 54.8024 117.146 54.5986 117.146 54.3657C117.146 54.1536 117.086 53.9811 116.968 53.848C116.849 53.7149 116.693 53.6068 116.5 53.5236C116.307 53.4405 116.098 53.3677 115.873 53.3053L115.087 53.0807C114.588 52.9373 114.193 52.7325 113.902 52.4663C113.611 52.2002 113.465 51.8519 113.465 51.4215C113.465 51.0639 113.562 50.752 113.755 50.4858C113.951 50.2176 114.213 50.0097 114.541 49.862C114.872 49.7123 115.241 49.6375 115.649 49.6375C116.06 49.6375 116.426 49.7113 116.747 49.8589C117.067 50.0045 117.32 50.2041 117.508 50.4577C117.697 50.7114 117.797 50.9994 117.807 51.3217H117.058Z" fill="white"/>
<path d="M2.84323 44.0762V-1.5486H18.2594C21.8239 -1.5486 24.7497 -0.939678 27.0368 0.278171C29.324 1.48117 31.0171 3.13714 32.1162 5.2461C33.2152 7.35506 33.7647 9.75363 33.7647 12.4418C33.7647 15.13 33.2152 17.5137 32.1162 19.593C31.0171 21.6722 29.3314 23.3059 27.0591 24.4941C24.7868 25.6673 21.8833 26.254 18.3485 26.254H5.873V21.2638H18.1703C20.606 21.2638 22.5664 20.9073 24.0516 20.1945C25.5517 19.4816 26.6358 18.4716 27.3042 17.1647C27.9874 15.8429 28.3289 14.2686 28.3289 12.4418C28.3289 10.615 27.9874 9.01846 27.3042 7.6521C26.621 6.28573 25.5294 5.23125 24.0293 4.48866C22.5293 3.73122 20.5466 3.3525 18.0812 3.3525H8.36811V44.0762H2.84323ZM24.319 23.5807L35.5469 44.0762H29.1309L18.0812 23.5807H24.319Z" fill="white"/>
<path d="M130.022 -1.5486V44.0762H124.676L99.8137 8.2536H99.3681V44.0762H93.8432V-1.5486H99.1899L124.141 34.3631H124.586V-1.5486H130.022Z" fill="white"/>
<path d="M41.8655 23.6568C41.8655 10.918 52.1925 0.591091 64.9312 0.591091C77.67 0.591091 87.9969 10.918 87.9969 23.6568C87.9969 36.3956 77.67 46.7225 64.9312 46.7225C52.1925 46.7225 41.8655 36.3956 41.8655 23.6568Z" stroke="white" stroke-width="1.18413"/>
<mask id="mask0_330_1357" style="mask-type:luminance" maskUnits="userSpaceOnUse" x="41" y="0" width="48" height="48">
<path d="M64.9351 0.00390625C51.8694 0.00390625 41.2773 10.5959 41.2773 23.6617C41.2773 36.7275 51.8694 47.3195 64.9351 47.3195C78.0009 47.3195 88.5929 36.7275 88.5929 23.6617C88.5929 10.5959 78.0009 0.00390625 64.9351 0.00390625Z" fill="white"/>
</mask>
<g mask="url(#mask0_330_1357)">
<path fill-rule="evenodd" clip-rule="evenodd" d="M40.4961 24.6032C40.7914 25.7674 41.17 26.8983 41.6251 27.9891L45.0417 25.9473C55.8889 19.0972 51.1571 22.2806 55.2106 22.5533C56.5202 22.6411 57.0963 22.1377 58.0429 21.8179C58.4052 21.8161 66.044 27.5183 66.753 27.9001C66.7003 29.4661 67.0062 30.6496 67.7968 31.4928C70.0204 33.8663 74.7033 33.5033 75.1553 28.3069L79.2075 25.9981C80.64 25.1223 85.6946 22.0555 88.6805 20.3849C88.7244 19.7843 88.7476 19.1774 88.7476 18.5656C88.7476 17.7958 88.71 17.0353 88.641 16.2843C87.4694 16.9852 86.1874 17.8165 85.4395 18.2603L74.7547 24.5418C72.9166 25.6665 73.9291 25.096 72.0841 24.5525C70.6385 24.1268 69.7414 24.5174 68.6518 24.9925L60.8395 19.368C59.523 18.4828 60.0251 19.0558 59.5763 17.2836C58.6259 13.5323 53.3355 13.0226 51.5809 16.5965C50.8787 18.0277 51.9263 17.7036 50.3647 18.7161C49.3961 19.3442 43.9503 22.616 40.4961 24.6032Z" fill="white"/>
</g>
</g>
<defs>
<clipPath id="clip0_330_1357">
<rect width="133.572" height="56" fill="white" transform="translate(0.748047)"/>
</clipPath>
</defs>
</svg>
