<svg width="172" height="65" viewBox="0 0 172 65" fill="none" xmlns="http://www.w3.org/2000/svg">
<g clip-path="url(#clip0_330_1316)">
<path d="M92.255 31.5781V19.0932H96.4736C97.4489 19.0932 98.2496 19.2598 98.8754 19.5931C99.5013 19.9223 99.9646 20.3754 100.265 20.9525C100.566 21.5296 100.716 22.186 100.716 22.9216C100.716 23.6572 100.566 24.3095 100.265 24.8784C99.9646 25.4474 99.5034 25.8945 98.8815 26.2196C98.2597 26.5407 97.4652 26.7012 96.4979 26.7012H93.0841V25.3357H96.4492C97.1157 25.3357 97.6522 25.2381 98.0586 25.043C98.469 24.848 98.7657 24.5716 98.9486 24.214C99.1356 23.8523 99.229 23.4215 99.229 22.9216C99.229 22.4217 99.1356 21.9848 98.9486 21.6109C98.7617 21.237 98.4629 20.9484 98.0525 20.7452C97.642 20.538 97.0994 20.4343 96.4248 20.4343H93.7669V31.5781H92.255ZM98.1317 25.9697L101.204 31.5781H99.4485L96.4248 25.9697H98.1317ZM103.236 31.5781V19.0932H110.771V20.4343H104.748V24.6529H110.38V25.994H104.748V30.237H110.868V31.5781H103.236ZM114.008 31.5781H112.423L117.007 19.0932H118.568L123.152 31.5781H121.567L117.836 21.0683H117.739L114.008 31.5781ZM114.593 26.7012H120.982V28.0423H114.593V26.7012ZM125.097 31.5781V19.0932H126.608V30.237H132.412V31.5781H125.097ZM132.41 20.4343V19.0932H141.774V20.4343H137.848V31.5781H136.336V20.4343H132.41ZM154.122 25.3357C154.122 26.6524 153.884 27.7904 153.409 28.7495C152.933 29.7086 152.281 30.4483 151.452 30.9685C150.623 31.4887 149.676 31.7488 148.611 31.7488C147.546 31.7488 146.599 31.4887 145.77 30.9685C144.941 30.4483 144.289 29.7086 143.813 28.7495C143.338 27.7904 143.1 26.6524 143.1 25.3357C143.1 24.0189 143.338 22.8809 143.813 21.9218C144.289 20.9627 144.941 20.223 145.77 19.7028C146.599 19.1826 147.546 18.9225 148.611 18.9225C149.676 18.9225 150.623 19.1826 151.452 19.7028C152.281 20.223 152.933 20.9627 153.409 21.9218C153.884 22.8809 154.122 24.0189 154.122 25.3357ZM152.659 25.3357C152.659 24.2546 152.478 23.3422 152.116 22.5985C151.759 21.8547 151.273 21.2919 150.659 20.9098C150.05 20.5278 149.367 20.3368 148.611 20.3368C147.855 20.3368 147.17 20.5278 146.557 20.9098C145.947 21.2919 145.461 21.8547 145.1 22.5985C144.742 23.3422 144.563 24.2546 144.563 25.3357C144.563 26.4167 144.742 27.3291 145.1 28.0728C145.461 28.8166 145.947 29.3794 146.557 29.7615C147.17 30.1435 147.855 30.3345 148.611 30.3345C149.367 30.3345 150.05 30.1435 150.659 29.7615C151.273 29.3794 151.759 28.8166 152.116 28.0728C152.478 27.3291 152.659 26.4167 152.659 25.3357ZM156.664 31.5781V19.0932H160.883C161.858 19.0932 162.659 19.2598 163.284 19.5931C163.91 19.9223 164.374 20.3754 164.674 20.9525C164.975 21.5296 165.126 22.186 165.126 22.9216C165.126 23.6572 164.975 24.3095 164.674 24.8784C164.374 25.4474 163.912 25.8945 163.291 26.2196C162.669 26.5407 161.874 26.7012 160.907 26.7012H157.493V25.3357H160.858C161.525 25.3357 162.061 25.2381 162.468 25.043C162.878 24.848 163.175 24.5716 163.358 24.214C163.545 23.8523 163.638 23.4215 163.638 22.9216C163.638 22.4217 163.545 21.9848 163.358 21.6109C163.171 21.237 162.872 20.9484 162.461 20.7452C162.051 20.538 161.508 20.4343 160.834 20.4343H158.176V31.5781H156.664ZM162.541 25.9697L165.613 31.5781H163.858L160.834 25.9697H162.541Z" fill="white"/>
<path d="M102.789 41.5261C102.789 42.8429 102.551 43.9808 102.076 44.9399C101.6 45.8991 100.948 46.6387 100.119 47.1589C99.29 47.6791 98.343 47.9392 97.2783 47.9392C96.2135 47.9392 95.2665 47.6791 94.4374 47.1589C93.6084 46.6387 92.9561 45.8991 92.4806 44.9399C92.0051 43.9808 91.7673 42.8429 91.7673 41.5261C91.7673 40.2093 92.0051 39.0714 92.4806 38.1122C92.9561 37.1531 93.6084 36.4134 94.4374 35.8932C95.2665 35.373 96.2135 35.1129 97.2783 35.1129C98.343 35.1129 99.29 35.373 100.119 35.8932C100.948 36.4134 101.6 37.1531 102.076 38.1122C102.551 39.0714 102.789 40.2093 102.789 41.5261ZM101.326 41.5261C101.326 40.445 101.145 39.5326 100.784 38.7889C100.426 38.0452 99.9402 37.4823 99.3266 37.1003C98.7169 36.7182 98.0342 36.5272 97.2783 36.5272C96.5223 36.5272 95.8375 36.7182 95.2238 37.1003C94.6142 37.4823 94.1286 38.0452 93.7669 38.7889C93.4092 39.5326 93.2304 40.445 93.2304 41.5261C93.2304 42.6071 93.4092 43.5195 93.7669 44.2633C94.1286 45.007 94.6142 45.5699 95.2238 45.9519C95.8375 46.3339 96.5223 46.5249 97.2783 46.5249C98.0342 46.5249 98.7169 46.3339 99.3266 45.9519C99.9402 45.5699 100.426 45.007 100.784 44.2633C101.145 43.5195 101.326 42.6071 101.326 41.5261ZM115.231 35.2836V47.7686H113.768L106.965 37.9659H106.843V47.7686H105.331V35.2836H106.794L113.622 45.1106H113.744V35.2836H115.231ZM118.257 47.7686V35.2836H119.769V46.4274H125.572V47.7686H118.257ZM129.425 35.2836V47.7686H127.913V35.2836H129.425ZM142.356 35.2836V47.7686H140.893L134.09 37.9659H133.968V47.7686H132.456V35.2836H133.919L140.747 45.1106H140.869V35.2836H142.356ZM145.382 47.7686V35.2836H152.916V36.6248H146.893V40.8433H152.526V42.1845H146.893V46.4274H153.014V47.7686H145.382Z" fill="white"/>
<path d="M102.155 51.4701V63.9551H100.692L93.8888 54.1524H93.7669V63.9551H92.255V51.4701H93.7181L100.546 61.2972H100.668V51.4701H102.155ZM106.692 51.4701V63.9551H105.18V51.4701H106.692ZM118.258 55.3717C118.124 54.9612 117.947 54.5934 117.728 54.2683C117.512 53.9391 117.254 53.6587 116.954 53.427C116.657 53.1953 116.32 53.0186 115.942 52.8966C115.564 52.7747 115.149 52.7138 114.698 52.7138C113.958 52.7138 113.286 52.9048 112.68 53.2868C112.075 53.6688 111.593 54.2317 111.235 54.9754C110.878 55.7192 110.699 56.6316 110.699 57.7126C110.699 58.7937 110.88 59.7061 111.242 60.4498C111.603 61.1935 112.093 61.7564 112.711 62.1384C113.328 62.5204 114.023 62.7115 114.796 62.7115C115.511 62.7115 116.141 62.5591 116.685 62.2542C117.234 61.9454 117.661 61.5105 117.966 60.9497C118.274 60.3848 118.429 59.7203 118.429 58.9562L118.892 59.0538H115.137V57.7126H119.892V59.0538C119.892 60.082 119.673 60.9761 119.234 61.7361C118.799 62.4961 118.197 63.0854 117.429 63.504C116.665 63.9185 115.787 64.1258 114.796 64.1258C113.69 64.1258 112.719 63.8657 111.882 63.3455C111.048 62.8253 110.398 62.0856 109.931 61.1265C109.468 60.1673 109.236 59.0294 109.236 57.7126C109.236 56.725 109.368 55.837 109.632 55.0486C109.9 54.2561 110.278 53.5814 110.766 53.0247C111.254 52.4679 111.831 52.0411 112.497 51.7445C113.164 51.4478 113.897 51.2994 114.698 51.2994C115.356 51.2994 115.97 51.399 116.539 51.5982C117.112 51.7932 117.622 52.0716 118.069 52.4333C118.52 52.791 118.896 53.2197 119.197 53.7196C119.498 54.2154 119.705 54.7661 119.819 55.3717H118.258ZM122.481 63.9551V51.4701H130.016V52.8113H123.993V57.0298H129.626V58.371H123.993V62.6139H130.114V63.9551H122.481ZM132.741 63.9551V51.4701H136.96C137.935 51.4701 138.736 51.6368 139.362 51.97C139.987 52.2992 140.451 52.7524 140.752 53.3295C141.052 53.9066 141.203 54.5629 141.203 55.2985C141.203 56.0341 141.052 56.6864 140.752 57.2554C140.451 57.8244 139.99 58.2714 139.368 58.5965C138.746 58.9176 137.951 59.0781 136.984 59.0781H133.57V57.7126H136.935C137.602 57.7126 138.138 57.6151 138.545 57.42C138.955 57.2249 139.252 56.9486 139.435 56.5909C139.622 56.2292 139.715 55.7984 139.715 55.2985C139.715 54.7986 139.622 54.3617 139.435 53.9878C139.248 53.614 138.949 53.3254 138.539 53.1222C138.128 52.9149 137.586 52.8113 136.911 52.8113H134.253V63.9551H132.741ZM138.618 58.3466L141.69 63.9551H139.935L136.911 58.3466H138.618ZM145.234 51.4701V63.9551H143.722V51.4701H145.234ZM148.777 63.9551H147.192L151.776 51.4701H153.337L157.921 63.9551H156.336L152.606 53.4453H152.508L148.777 63.9551ZM149.362 59.0781H155.751V60.4193H149.362V59.0781Z" fill="white"/>
<path fill-rule="evenodd" clip-rule="evenodd" d="M47.4071 15.0455C47.4 13.5149 47.4099 11.9872 47.4875 10.5071C49.9863 10.0216 61.208 10.1782 63.8634 10.6203C76.2099 12.677 75.3834 26.4125 68.3049 30.4831C65.2003 32.2679 61.0101 32.4067 56.9138 32.3775L72.9657 61.6452C73.5267 62.5045 74.0984 63.3395 74.6836 64.1376L85.3258 64.2394C83.8393 60.3204 69.9551 41.7575 68.7477 37.9866C83.1716 36.2225 86.9753 17.9714 78.9237 9.6379C70.5702 0.98758 55.1376 3.64867 41.0455 3.45076L47.4071 15.0455ZM24.412 64.1312L24.2881 64.3476L38.1082 64.3497L38.2663 64.1312H24.412Z" fill="white"/>
<path d="M18.2169 32.6408L34.9835 2.07443L51.7508 32.6408L51.7509 32.6409L68.5692 63.3068H34.9835H1.39854L18.2169 32.6409L18.2169 32.6408Z" stroke="white" stroke-width="1.64685"/>
<path fill-rule="evenodd" clip-rule="evenodd" d="M36.27 46.8298L42.4593 46.8198L42.4692 40.6611L39.9121 40.6782H36.2607L36.2671 42.5712L36.27 46.8298Z" fill="white"/>
<path fill-rule="evenodd" clip-rule="evenodd" d="M27.5078 38.0471L33.6473 38.0563L33.6572 31.8877L27.5128 31.9026L27.5078 38.0471Z" fill="white"/>
<path fill-rule="evenodd" clip-rule="evenodd" d="M27.5178 46.8186L29.9019 46.8258L31.2681 46.8307L33.6643 46.7994L33.6501 40.6842L27.5078 40.6621L27.5178 46.8186Z" fill="white"/>
<path fill-rule="evenodd" clip-rule="evenodd" d="M36.2559 38.0732L42.4814 37.8454L42.386 31.8811L36.3399 31.8633L36.2559 38.0732Z" fill="white"/>
</g>
<defs>
<clipPath id="clip0_330_1316">
<rect width="171.924" height="64" fill="white" transform="translate(0 0.341797)"/>
</clipPath>
</defs>
</svg>
